<mxfile host="app.diagrams.net" modified="2024-03-21T10:01:38.506Z" agent="Mozilla/5.0 (Windows NT 10.0; Win64; x64) AppleWebKit/537.36 (KHTML, like Gecko) Chrome/122.0.0.0 Safari/537.36" etag="TQJy3jXN7AfKMHa_YgII" version="24.0.7" type="github">
  <diagram name="第 1 页" id="H5l1Tb1N4UfwjCKNcM-Z">
    <mxGraphModel dx="1845" dy="604" grid="1" gridSize="10" guides="1" tooltips="1" connect="1" arrows="1" fold="1" page="1" pageScale="1" pageWidth="827" pageHeight="1169" math="0" shadow="0">
      <root>
        <mxCell id="0" />
        <mxCell id="1" parent="0" />
        <mxCell id="a1UpuL8nDIaCTMfH53SL-5" value="" style="edgeStyle=orthogonalEdgeStyle;rounded=0;orthogonalLoop=1;jettySize=auto;html=1;" edge="1" parent="1" source="a1UpuL8nDIaCTMfH53SL-1" target="a1UpuL8nDIaCTMfH53SL-4">
          <mxGeometry relative="1" as="geometry" />
        </mxCell>
        <mxCell id="a1UpuL8nDIaCTMfH53SL-1" value="spring根据 bean定义信息（xml文件、注解、@ComponentSacn等）扫描class文件" style="rounded=0;whiteSpace=wrap;html=1;" vertex="1" parent="1">
          <mxGeometry x="130" y="60" width="150" height="70" as="geometry" />
        </mxCell>
        <mxCell id="a1UpuL8nDIaCTMfH53SL-7" style="rounded=0;orthogonalLoop=1;jettySize=auto;html=1;dashed=1;" edge="1" parent="1" source="a1UpuL8nDIaCTMfH53SL-4" target="a1UpuL8nDIaCTMfH53SL-6">
          <mxGeometry relative="1" as="geometry" />
        </mxCell>
        <mxCell id="a1UpuL8nDIaCTMfH53SL-9" value="" style="edgeStyle=orthogonalEdgeStyle;rounded=0;orthogonalLoop=1;jettySize=auto;html=1;" edge="1" parent="1" source="a1UpuL8nDIaCTMfH53SL-4" target="a1UpuL8nDIaCTMfH53SL-8">
          <mxGeometry relative="1" as="geometry" />
        </mxCell>
        <mxCell id="a1UpuL8nDIaCTMfH53SL-4" value="将class文件组装成Resource，进而组装成MetaData（记录className、注解@Scope等、接口例如BeanPostProcessor等））" style="whiteSpace=wrap;html=1;rounded=0;" vertex="1" parent="1">
          <mxGeometry x="112.5" y="215" width="185" height="105" as="geometry" />
        </mxCell>
        <mxCell id="a1UpuL8nDIaCTMfH53SL-6" value="" style="shape=image;verticalLabelPosition=bottom;labelBackgroundColor=default;verticalAlign=top;aspect=fixed;imageAspect=0;image=data:image/png,iVBORw0KGgoAAAANSUhEUgAAA74AAAEGCAYAAABCeEkwAAAgAElEQVR4AeydB3RTV7b33/q+9755k3mZyWT6zJuZTDJpk0lPCIQklNCr6S0JLYQQkpBeIAm9BDAdY4orbrhgG+OOC8XGBVdcKO69SbIlWV36feveK8kymIxJSHvvaq1rybrnnrPP/+xT/nvvc/Rv9PNl6W6mu3B7vy6LtrGfuX6fySwYOxpRtWu/TyG+YdkWDG0NqDp03zCf7+Zxs0FLp1qH9VsozmoyoNFoMVlt30Lu326WNpsZrVqN3mT5dgv6FnO3Wk1oNRoMpm+jdb9FweWsZQRkBGQEZARkBGQEZARkBP5XIPBv/a3l/zTia6Od/LefY8OiiP5C0K90NosJRV4CJWGhzqss+ixd3wI3tdFC9iv/YOOyxH7J9q0kMmpoqLlCRZNayt5ioKOxkpKSEvEqr2zHJN6xUHkmiK0HklB8C4IoKnPw8w7hcse/NmSYupq5VF7KpeoOu2y9BTLpuqi9WkJNq5bvgkcbdbUc9zrI6dL23oJ8w/9M6lauXCpztkVJySXq29VYvgXbgEZxiWM+vlyoUH5DqcFq6ab+iqQ/Dj2q7TB+Rb5mVI2VlJbU01frmwxd1F6+QrNS6zS6WIzdNFQ6yrhKh8Ele1MXNZfLXXAroaZFLeqCtuUqlyvrULumd3lU/igjICMgIyAjICMgIyAjICPww0Sg38TXZuzCWJ/cr8tm7PwOattN65lwLsYVYvyqNfENJLkZ4mujmsKVn1BZfYPMXL62GtTkLHsWj5ELSXXfzjn37cRMGU60+0lU3S4Jb8HH75/4WumsySXsWBgZ5e1gs9JYlE7cyXhSMzLIyMjgXHIihU16wER7VQnZBdUI/93q180QX1VZAtv3uLN3bzR11wpjM9NYehbvXRsJOltF/xyYSooSE6n8moy+/8TXgqrpEhdLauiWrAlfCWPX5VT2bvMk2t4WaXFRhITFUtp6660wt4r4auvySEw6QXKKpD+iDmUkExl2kpyCGvrqQgbFFaJ9drDui1D66qK1eVHs3riH+LxqRL5qs9F8KZMz56QykkK88I/JptkOi01div/2PQQn9chQUqPEYgVVZTaxEaGcKW3jaww7X9le8k0ZARkBGQEZARkBGQEZARmBbw+B/hNfsxZT+4V+XTaT5tuT2JmzgvKdr3H802No+1oNO9P1/eFmiK+Vcxy77SecPtd3Xq7fSsR3NKGrInGgoMrfhu/TUygu7HJN+o0/f//EV0/lhVgiTubSqbdhMVcRfeAgaRfbcQTtWrs7UGjN37iu/yqDmyW+7tsCCQhwJ6agrVfWVqOWC6lHObBnNxGnK/tFfAXDSNjq1aRX9cqq3//0n/gaqS1O4HhUJh390HmR+G4N4YpdEouhifTgIwSk9UUP+y1unwlvBfHV1OQQcCCEzNo6unp5VE10VF8iJSyY1KLaXoYTm0lFQVIUR732sG512HXE19pZSMje/ezbe6SH+AK6rna0duZqbDrNng3byGqQqmZryWX/1hDK+zIuWAxczYgn/nR5nyS8T3DkL2UEZARkBGQEZARkBGQEZAS+dwT6TXytwh7foh39um60x7crP5LQN9+iYOsCtvzmF6z/7d2Ebkii9cw+Dj78B9b/4nb2DtxMqwss5it72HvHz8V7Gx5eyNUaBTaznvz3n2btbT9hzW23sf7ntxPgKbCObmoCV+LxVyn99rtX0uSaV/onYj5COeuHTSdyzIMuoc5qru5/nd1/ul2S4xlJjq60HXg8+BvW/Mf/Ze1/3c6OUa9ypUyNjVpSh90h5Xf7QE6FXhDDZvsivt3NgQQ8NpK8zB6XoOrsOnbdIZW14Yl3aNY5Vtl9y+GohinxTWcdNoxZwMkRf+kV6mxtSSTokb9Jaf77cWIPZTo9U3nL/oLXnJWET3mADY+/Sb3qm3r+9FzNPsHx2HyRqJhNJfhv3UdykWsLOiSH+uwwdh05hRAMq2m5QmRkJHmp4bhv3czGze6EJJfTVpONz/6tbNy4kb0eyTTbH68+48uXh85w9XICuzdsEO9vCcpyZn4d8TV1UZQazPaNG8W07j7ncZgdBI+v+6ZjFFQnE+AbT71LfKy2s5CYo2GcjAomMq2H+NoMbWSc8GWrPT/PsHzRsKGuOMuhPVtYt2YN6zZsZKd3JFda9NhQknZIknPjBk9SSuqd7WDrFvI6LMol1HN7eEqvUGcbCpI8Hc8e5lxVmxiieyX5ABvWr2PduvVs2LgRr3QBHTPNl8/hvUOq56b1kdTZUbmW+IKCrHBvvOIcVBhsunqSgg6yWajX5q0ExJc6CZ0gR/LB6+UQsrep60kO83TWYVdo/HWhzq3lcc622rw/gQ67XIqKbI76RZCb6svGTVvwO3kRrSBbmBfHsxXYsNB8NZ1DGzawaa8/oYe3cKrCQmtFJuERCTSoHH1F+i7seCIX00PZuKY38bWh4szhdRxLLSclyKcX8XUqDmBV5uCxfiPnaqVvbY3n2fVlOBWuiRyfrQYqs5JIkomvAxH5XUZARkBGQEZARkBGQEbgR4FAv4nvrdjj23khnMBn7uTIyuOYTTYUp79kzx23sWXcxzTVqbFyluD77iXaqwAbZjSxH7Hp7pe4LLJXNRX7l7Dj6XdoFD0113t8TU2VVKaliCHFNuo5Pelv+LwVjhYj6vj1bLvvITLtXKk92R2vh37O2gXSHl9DZRFXMrLQGhBJbfK4hwhZHYdADfvy+CpPeFAoLpT1NEVvxPPZhVypUyER3+H4v7aH6tJSWktLOf/WIEKXB6ESVcKMOuxVdg5cQZXobFRRtm4ymx5bRasJbiRHNwa6Ij9i/Z8fJDdf0q2WqFUcuPs2O/G1YSyLImziHM6daxGl7iwOJ3jERDITy8V9nbnzf8r6B8eQlWZf4V+jotbWJBYPeJyHHnqo1/XoQ3OI7+u8Mls3lzKjOB5fKO55tFnN5ETuZpuHP5lFVbR19ibWdedD2OYp7fFVN18m1HMjR+KKMJhtqOvOsH/DOrZ6x1Kn0GGjhrDt2zmeWY+wJbUq/Qjr1m7Gz07MbN01xPrsYUNAoWhw6EV8bUYupwYSnJCP0ii0ZycZAe74RFygSwhXtRPfywYtmSf9OH9FZd/7aaQk7jBRuRUUJ4c4ia/VoCIvLpDIs5fQmIX8lKT47SE0qQStVfj/eo+vqjSTAtHOYaa5LJ3DB0K5rOrGZtFwMcEHn+gM2uyEuyRuJ1/u7NnjqyxKp0RUFiN1+fHs3x9JnUHwml/v8bXoNNRcLqFdL8jRRbb/Zg4E54okXyK+/uS2tdHW1kZl8TlCfSIoscfcW9SNnI4MIj6/HqMVTPpGYn08ic2sQG8DQY6Lfchh1XeQE+NNQEI+KnuoeF70Drbs9bPv8bWgyQvEwy+ROq0gl5aLsUfYsu8U7RbouHoe710b2BlV5NRATe0FAoPjqNMY0HScJ9QrHGG7sK3pPDu3eJLbDkZFNSfDj1NQpxR1QttWTUyQNxmXWmgtiuxFfK3GborijrA7OBeFpo3Ua4ivxayns6ON1rZq0o8dxjulxwuurjyH7xFP9u/fz749u/A6FkdFqxGboIhWI1W5ScSnlqCRz/Fytp/8QUZARkBGQEZARkBGQEbgh45Av4mv1aDEUBner0tYGPf1Eohv0Kw5lBY2iQtXQ3M5J8c9Rtyhc9LeOyB7+eOEbkpGp79EyuQH8X7flwI/6crb+wEef3yEtDwh9+uJr/CtvuEilyP8xGfOLRvJoUn7aTcUkzz+Sfx3lTnF6ivUWVedS1mo9GzqgjH4veqPsFu5L+IrSpDhL5aT5/4RBx+YQ15Fm534DmDH4yMIXbwQ38d+QeAXuT1etO5CTg76NUc/canXrjfZ+bMHOH9REq8vOZT6XGKeuRf/IwKplV69Qp0tKq4cWM7R2W9w/pCUd/7hHRwfP4yI7UnojZC74E6OzPO2E3BHLl//XdtQyqmYGDIuNYnEScjJolNRcj6ewMO72HwwkqKiK6jsIaXXEt+wwACK61WiLpi6VST67iLmfIUzlDU/ahfByeWi8UEgvhu2nMCVf2tKT7B2dQBXDeBKfM3aS4Qd2MPJ0wUUFEhXTlowhw6GU9HZQ3wrrCaqc+KJiM9GYbBiU1/Ab28Al5TqXsRX3ZLHsSNHSDzXk9/Z+AB8AxNp0PRNfAUslDX29BkJHNkTxIUODYbOHI7u8Sa/rieWt69Q5/Yq+7NnT+LhHkKJXvByXk98hXKMGgUVZVL6/PjD7PVMEaMmROK7bTf+UVGEhwTg4xfKxUbHAU9WWivOEuwXSNp5e1n5F0iO9CMwKpN2u83iWjku6k10Np3l6MFgypp7drm6hjrbjHVE7lhNSLI934IC8jOi2LluNxdaJeLrs8+PIkWPq7398lkiks6j0Vu4nLCXY2lVoofc1lWC75d+FAs4axpJiY0Xia+1q45Tx7yJzagUD7RSuhJfo4ar52PxD06n2QamPohvd2cdmQmRREVFEZd6nsKiYlp7xHF2CrO2g+xYH3yislAJ1gEsKBsLOXUikYs10oFXzsTyBxkBGQEZARkBGQEZARkBGYEfLAL9Jr6YuzErivp12cx9rCABkfi+9hrVlyRiLBLfmYNIOZaPYxfoxdXjReLb3XqK4Mf+ypHlHmR79L6qRYfltcTXQuelBBImzybig5Wc9/AgbdEwifgqMol+8Z8cD+o5Nbc38TXQkRvJybFTifxinVhe0pyRNyS+Nhoo3bIa/8eGk+DhQdaGtzlw72wX4tuzx1d5/nM8f/0Cp9MlL6u1MZIjv/8Ffu/0rpNQx/rGG8uhbDtFyON3ER3bo0uuxNemayDvsyl4jlnM2V298y7PqsJshtzFv8Hn/SgnCe/JSfpkU+Wz+70VLF++vNf11vJtXOiJ0nY+pqkrJjkmmYJ6hbP9HDc1rRXk56URsNOd6NMVYljwtcQ3PDyMq83STmiR+AbuJymvznnS8uXkI72Jr0daL9JurUlhzWoPCpW9ia+pJY0D23YTlZJDTk7PVXDxEkqdC/HFhqa5nOiwSEobW7maeIgjCZVCfEAv4qu8Gs+B3YeIS+vJS8i3+FKVGOJ9vce3i/LTKQTsO0xiTg7Z6Sc5tDtQJL76xhSOePhR6hIN3pv4qihOTiTQ04dk4dnUKPZtD74h8dWpq0kNDiXiRBwZQvqYQ72Jr32Pr1mvICsmAP8T2agNFrCZqSuIwvOAP8lneterpKKBbpMkR9A1cgjEV8DD2zucChedcCW+VlU++1evJjC+d745ubkIh38LHl8f71CuuoTauxLfgsgtxBdLB+TZWnPZvzmCSuF4NFUt8bEJlDe1cjXekw2bdhIYGUtsbCzH/fexbs0eQhJPcfbsGQL3u+PhHy7ei4kK59Audw74hnAyp8ez69BVfesVIo9sJDq/7xOpVZXn8faNprZbIPoWVM3FpMQkUFTZ+Z2c+u2QU36XEZARkBGQEZARkBGQEZAR+PoI9Jv4WnWt6Eo9+3VZu3u8kq6i3Qzx1ZnyiXvmPnw8HDsWXXMSPl9DfM06ru5ejNf09dQ1dotexJqtYyTiay4ldeLTeG/tCa20UcGZyU+xfkEENl0bRWtexm/RHlrsv2tS9tm4GxJfa0Uoh/7+LAnHa0SvlK4ojKNPze2T+EIX1ZsnsWfCMmrqhEjJDML/+1eE+rv6LqW6iXKs7VsOpamAuIH34bO/Bw8bZSQ/d68Y6myztlO6fRG+r+6nq9NhRuiN2b8ivhgVlF/IJTs7u9eVk12KosdB2ZOptZvyjESSzl1G5zjNqueuuP+0NeMoB/3OIJgcvinxXb8hknqX/Bsy/Fi3O4FWc2/ia9YXErjrENlVvUOtHY86Qp2FPZxWs4r85DBORISzZ0sgxUIs8zXEt6slkwDPYEoa+wLheo+vraMI710HSChRivqhb7pIsKfk8TVq8gjY7cWFmh7Z9NqL+NtDnQWit3fLPlLKVaIBoLs2B+/dNya+rQWRHPI5SYXCIIZrd5y/xuPrPNzKiq6xiGAfT+KLhfhlC81XUjjqG0NNh2PPrAMhcJVDoHsOOQTi29WaScCBoF54dLbl4rNX+jkjm6WC4NWrOVFo/4mrnmzFT30RX3XtBYJOnqWr20x7dgC+EXmoUFGYFonHusPkK43UFZ4iMi6b9m4j6rZGGhoanFdZeiAb1viT29RMa4eStqaee8JPU0V7exKWkkt1h+PIud5CFUasJ+B031sAOi6fwSs0mU692R7qnEx8ykXUcqhzbxDl/2QEZARkBGQEZARkBGQEfsAI9Jv43qo9vkH99PgKWwfbAxey+j9/wpkMCUHh4KaQT6LscErE12f+brqEw25MWi5vnoDHnM9oagFL9RF2/+TnIvEV/MvVeyex4bYBXLCfvNt8fBX7/vLvrJ0fgU3bTP7HL3Lo9T0olGCp2MPO//fb64hvZKBEOi0Xfdl7z6+JiZcOBxI8rRv/z4gbEF8wdGQQ9uyjxHmdF4lQy8HxbPjTPeSKIdtgbQjHa/lJSY5P+pZDoCoVmwbxxb8Ppsi+Pm/wW4L7b//debiVNi8Y/wG/49gR6VgeW3ctF/z9qcqXDBH/kvjetKJee7hVKdEHI6m2cwvhcKRTnhsJPC3h9k2J77q1aziUJDWgrSWfQ3u+JMoeve4a6myzWig4sZv9QQnU20+00jef5eQZSQ5X4itUWThN2GfvZjyTHMSnt8dXCN8+G7qDw1Hnnacpt9dkkJ4rHZ3m8PhG5kkeQ1vzBTx2buFEueCm7KQgOYAtXxwRPb4Wk55Uv434Rmc5fzs279hq1rpLe3xt9efYtmUDiVfBZmgn84Q3m77w7eXx9T+aTHOnRFabswPY4xdFlRIcntZeoc5O4ivUVEfpqUC2ecSLB00ZVfXEH92OX1KZ9PNIVhM1l7K4UNqOrSGjRw5jjxwC8TVqOojz2kxQUiFdds6cGbSadbsce3yh5YwHW/ccotB+OplVdYEjxy+JGtYX8bXp6kg4GkBahRqzQUuy72rWrvYg9VITJSe3sWbNejz8eh9E5qquvUKdXW8ITXBNqLPFUkb8kTQc53l3XAhi/cZNnKuRHqzPSiSzTiLtBkUtsX4eRGZXS+H88uFW16Ar/ysjICMgIyAjICMgIyAj8ONAoN/E16prQ1fu1a9L8A739dKUnSJh4yYaq6UwRmNHNec+WUhO0iVnqGzFwRUke2eJBFHIoy1wEZ4DB4jXwSmfUdsoPSvcszVmkbRsingvJrQeU3MJZ9+dKKWdd5CG+E0cfy9U3KcrpK/eNc6ZV8T6vWR99ipe61JFUQ3VmZx6faz07PyjVIZtInZ9rPMnicwZG8V7fku+oKZCizL2cymvYVNI3XGA2Nc2Ul6vxGbUUrL5TZL3p/eEFFt0NERtxH/+auqEE3uA2oMvO2U5OGML7YI3CTBUn3eRw/86Oa5uetb5XNROP7I/mIn3lvPis8IfdcZBAkY/L6UZPp0zYdLhT8K9svUjiNmZ7txD63zoa3/oTXwF36eyKZ+Igwc5dOiQeJ0sFE9HEktoKU7kaESW2B7d7TWkpJyivkPyfJr1as7Hh5JV3uLUhdrsKBKzpd9eFff4eqSRnxHizDuhsCd0vauhlJMnkqixH6hl1rSTFR/gTOsXVeRsS3VVJgE+yU7vsU3fxNkTseQ1OTy63VzNTiLtQgNmu1fPoKwlNdrPmV9oYllP+wqe45oU8Z5/ZAo1HUY6y5OktN5BpJ3JJCE6hbJO6TeIdMoGUiJ6MEq/0kxq9HHyqySslBdjpGd9wsg8n0FUWAqVRkk/bNoWMhOPifeP53Zg0XWSlxwo/n84+CyKmhSOReQgRCFra3M55p/kPOVZaARbdzXxQX4ctYfe61ouERvmI5V32JuTZ3v2WPfIEeqUo0I8ZEs4lfsqCaE9dThdVkPSiRjK63u8vBXnetrqcPA5Z5h6Z10xMdHJ1Kl7/4hyy8UEPA9Fcam5vXcEgVlLe0unMwS+L3XtupKG16FTvU5xd6QzdyvJTThBZnmjfVyx0Xb1NEcdeuqZ0BsjtBQ7dOdgACm5leI+czE/mfg6YJXfZQRkBGQEZARkBGQEZAR+VAj0m/hisyAccNWfC2vfobY/KmRkYfuBgIHq/HjCY7Lp1AlH3n57Lwfx7aHR315Zcs7fFwJ6qrKTiQkPJeF0Lrm59ivrDGnJJU4D1vclnVCuzayjJD2aROHk6+9TELlsGQEZARkBGQEZARkBGQEZgZtCoP/E96aylRP/70DAira1jNiwEBLzrt+zfCsxkInvrUTzh52XWdtISX4++faroKzReer79y15a3ESx0KiXE7H/r4lksuXEZARkBGQEZARkBGQEZAR6A8CMvHtD0pymhsjYDOh6VSgUDvChG+c9JvckYnvN0FPfvZWISD8dFSHUo1JPtjqVkEq5yMjICMgIyAjICMgIyAj8J0gIBPf7wRmuRAZARkBGQEZARkBGQEZARkBGQEZARkBGYHvCwGZ+H5fyMvlygjICMgIyAjICMgIyAjICMgIyAjICMgIfCcIyMT3O4FZLkRGQEZARkBGQEZARkBGQEZARkBGQEZARuD7QkAmvt8X8nK5MgIyAjICMgIyAjICMgIyAjICMgIyAjIC3wkC3ynxNVssVNTUE5t6jpzC0u+kgnIhMgIyAjICMgIyAjICMgIyAjICMgIyAjIC/7sR+M6Ir9lsIe9iOd6hMRwOjiLsZBJWvQJTaxaGmigMVeEY6+KwqC6Jv5WJTT429X+3asq1lxGQEZARkBGQEZARkBGQEZARkBGQEbg1CPSb+BqNRrq7u792qVdr6vGxk16vkCgKMiPRFe+mu3D7NZc7+st+mJUl2Czf7k/kfO3KyA/KCMgIyAjICMgIyAjICMgIyAjICMgIyAj8aBDoN/HNyckhJiaGrq6ur1W54wlpoqfX+1gUp+IDaczei6bA/RrS20OCdSX7MbWc/1plyQ99MwQsxm4qLuZR3apG9rt/Myzlp8GmrSLKczcbN20m5lwZSeEB5FV0YAHKYrdxLKEc3f9YoLq5GHuE3d5ZqH9kddQpakkIC6KgWvGjHAf0mhrigo9SUKkSka9I3I7v8SK0P7J2+C7FvZrwJf5RF/n6Ju7vUlq5rGsRuBT3JcGxpd/7eGqzmsmOPkBSTi3Ga4X8wf2v4qz/DmJzmkTJGi+EcsDvLJ0/ODn7L1Bdph+7vLN/FHNOS+EJjvinIY3S/a/jjyWlUdNOWoQv58taMP9AhW69GI/30VMob0K+7rZK4sKCKapV/ujWB/0mvleuXGHbtm1ERkZ+LfIbl5ZJ+MkEctKDqc7cT1xMIJfPHRCJb1n8Z3hvmo/HmnlUJK92kmHdxb1Yuq7cRFPISW2KK5yMCie1vAt9ZzPnM8/RoHClFWZaruYSd7oYg6lvWmtQtxMXcICUogZMgKosgZCQkJ4r+CTlP+ZZ4SvUxKhrIeNEcE9dQ0I4d0Vz3ROmbhW5yfZ0wScp6wMPc12GM59jyfmodWaEEP72yiwig3vKCI2I5HK7o4gOciLDnc9Fp+XToZGGy8aCWGJSMmm+AYOytp/hIzc3dnl5sWn9Aa7Y88w6MIttEZccBYjvJn0lXqvfIzKzQfy/6dQW3NzcnNdUt+VElPfUu7M8gdVv7CBL+9VRGNa6M3zwxnwxn82h5dho49SO5Uydt56oqCiSEo+xYNhQDiSUi7oVtuR2JiwPp6OXdP3/p7uxkAOffUlMSSN1sZ875RfqMtVtBXENtn5lVnF8JZ98Hs3lq+mseedlZz4z5r7J0cRLfHWtb1yEjVYCljzOHwe4U3/jZN/4TmPCWt54PYCab5yTIwMbDUXhvDx0BIeSL4tt5bjzY3lXNabw+tihHEmowkYHR6b8nEGzfGm9hRXQt17Gb/0mwrKrf/AYFQV9xtqtiV9Z/5PLf8YLLx2l7RZi9E2zUhZF8sHiXRR+04y+5vM5fl+wZV/a1x6jvmaxX+ux46/9jNGvHbspWduzfXht9l5u5akrZmM1n464l3d2ptMzi3ytKn3rD9moYt2QX/Hq7lxATdwXo/j7wHW3cCwVpn0zZ4+sxv3IuZsiF1+v8p1ErHiKP9zCOacxaQNLX/Unvyqbre9Ndc6Ps15eQkTuzdCla2uk5dTWGfxz0KdUXXvrO/jfeGG/sy7zlu6guO3Wa6uiJp3Xhz/D1tAC9N+gTsWBb/DmmvhvRX+KAl5nwJAPqLwJ+dpKEnndbQy+pytuGaFXFkXw5uJZuE2ZivdpaQFrU+Wz/fX5eEREsGbFZ+TcgoVUv4mv1WqlpqYGd3d3oqOj0WhuTkEMRiPa1hI0hXtQ5e0gM9mH2JhAOnK24bNlAb5fLiAn4mPaszY7ia8QBq0rOwy2H6qd5Ca05DtJqudyegjescV0G61oWis4Hn6MSw2uTMlIVe5J9gem0m0QfG7Xv64lvq1nPdm5N5ZKtRq1Wk1tZgibt/lR+j/MRNeRd4w9Hp5kXukS6ynUtUtdw8mDuwk9WdDLAlybE8mFKildbeYxNm/tjUf1GV92bTvOJTtm6m4DVptN1OW6/FhCwtKoaZfwVKs1GO1N0ZAbhl9iuVh+V9MV4o55ciSuGJPFhlndSk5sOPE5VX0OoNa6IAb925OsD9nB0vFvkF0ntW3k6z9j1pbe0RN6TR7vjHyCbeESIb7qNY0//XopCQ0NNDQ0kOv9Fn//2wTCaqU8Ws95MuK+eUSqvtoXZC0NYvTElZyrb6BDbcSmvsjmmbNZHVYuZmQx6VC0taPVmxEo6TcjviYup+5j+uRXOVfWTvm+4Tw1eRdF9jrU5R7ixT/8iUU7hQXNjV826nEf+UvmrD9LS24AM9yWEZlXTkNDLZkxu5g1fAah2TWih/rGudzojpVuVSvNbZqv+byUr0Dckna9zWfbk9Fc40Kx0cwht98xZEXiLSVfFlO31FaGH+f460p8wYKmvZE2RfcttE5bqcn156VJc4i70ISVDFGqeTYAACAASURBVD58+EmCi26kC9/u9zaq8Xl1MqvDmq8ryEYNG0b/hTd2ZX+lHv7wiK+a1J3zGTjd/Wsbn64D4ya+EDD9Ysz9fHgo/ytxu4ksv9WkN098lZxYOYqHZvncUs+szWais62FTo1BHOe/1Up/w8x7E18rus52WtrUt7S9zaZLfDL2MVb7Fd3SfPuu+q2Zcxx522jBa8afeXZ5PHUFkSwcPxKPmGzqGhrICXuXkUNeIq6oD8u/I4OvfLeiVytoaeu6ZeTpK4tzuVl7/B3+8bvXOWlfL9SnefD24QsuKW7NR6tZj7KtDY3O9I36Qsqq+3hg1AGkuIRbI5sjlx8K8bUYNLQ057JqwP/j3SBpAWttSWD2PcPZmh3Kq48O40SZQ+qv/95v4isUYbPZEDy/O3fuJC4u7ub2/FpNGBtO9SK1yrwdVJ/ezJ7P51AQ/SldeVt73Zf2/7pj6breFmQzG9Ap2tF3KtA0N6Ju10oLGqsRfXsr6sYGuhqb6O7Uuyibge7GRroaG9CqNFgdDk+bFbNGaX9GeK4Bg3NxacLQ1oLW7nUTcLB0q9C0d4rl3VAOzBiV7X3LYdaiEeVroKu5A5OpbwJ6882qICvMm8gchfhof4ivzWbF0K1Fp9Oh1ahRaw3or/H4CsR3t0cyLXaBhMVA2OrVROa5WPqsJrRddsKo6cZodoALVrPBeU9ncvHA2Szou7VOkqnp1tHzmBmdWoPB3JPerFejtQ8eFpMejVaP2Sg8r0FnkIiUsMDV3UAO8RnHPa3BZQFspa3gBDu2n0DgeRaTAa1AWDXd6LRqujVdnI/0J/psOd094jibx6rKZ//q1aTb1dTckI3n3qi+LZhWExXp4YQmXeyXJbylJBnPw5E0Gs1g0XE5I4lTmVf6DGWzNh7jhX97gW3RXnw6Z6vTC91f4vuX375PvrONL/DeH+/klYNSpW6G+I6dsomrAse3mBAseHOHvsjbPudobGxHazDSqfgK4mvR0mafiBqb2+kW6i2MPVYjqrZWurqNzv5sNSg48eUbrPg8jGY9IvF9do5fL4+WlVSWPvAY20/UYcFKt7KV5vbeJFRXto/Bv5xAXBN05AYwa9r7nGuStnTYdDV4vzeehV+cQG2AbmUTHYpOFO3NNLWoMFmFiloxaJQ02+UWDAeu5FQIdepFfK0GlC3NooGhsbH5usWh2aB2YtDU2oXZZkWjKsPnw2kseteXS1UNKLU9Y4a+4ijDfzWKUHGesKDrVDhlcchh0qloa+/EbNbQapezqU2F2SIptNUstUuX8GxTo4iRyWyQ2krsWxbU7U0oOjV0dthlb1D2XiwbNTQ1NYr1amptQ6VU0K5QI9h7+noJ+iHoQqdKSUtzYw9GVhNqRRuNopyNdKh0Ln3VgrpNMs40NrSi1rssJqwmuhStYvlCG1wpj3d6fIXy9Z1NduJrE9urTanBrGmT2qGhhU6tyyLdakbb2e7Mq0Ojp1OYV4SoDfvLZtaRdmAFS9/2prKjk8amUOb96vdsj2ugpaMTozh2melqdcjbhsZuRBA8QF2KtuvrbjGg6uipg6JLg7KjA53DMgYYu1XO9hX0Q9AEAUtVRxYbxj3Fq7su0NjUTJeuR0e6L27lxb/NJdUxiGNE1Si1VWNTG2r7uNqb+Er9RcCyoaEJharbuWi32fR02PWoo0uH0A3Ahqvuqrp7ysdqFPET27SxCWWX3qVNDSjsebWrNFh6pg7MHXmsmzWPLTGOyC8rBm0nLfb0vfqyRY+ipcnZZm2KLhxTq81qQa1qQ93VRXurlKa1Q4vZbEDZLulz07X6DHQXbmDsw0s463CBW7qdfVPAzWHAM2naaG5tR+9UDwNKoZ5iB7Si7+qgqVHAsZF2oVy7Dhk6m2lT6dAoW0S5hTFFUBt9l6QDjQ1taB1joEXQ7zY0Wg0Kx/jR1EJXtxCXJb2uI76u8jYL46+jZCm9sTmNt4ZOZ1+OYMW2YdR1OceHTp3UcYWtT8oOBTq9hnaHzrS0o3MxnAvyK5Qq2tuaaGrtxGyziXWSiK+FbkULrSqdaAQU9KmxoR1dr4bW09FmH1eamlB2dqFQKJ3riG5lMwpFJx3CuCvmL04K6DVKmhy60Mu42Ft3lZ0uY4jNhkHd4dSTJmWJi8cXjFqBiEnE12zQiHLo1EqaxLoL47/W2Q8EFE1ahTOvtk4NmjbJ6GtvEvFNlbOaSQPfJksMbTLRZW+/3joDVqPaqdvO+UVck+hQdXSg6VLQ2NhIa3sXnQphPOoZ/4QxQNQPnQnDtXMOJtStko5dO+fYTBqXMpUYpc7sFF9fGcTo348mpBaaCyJZNGkiwdk1Yv/Vtl7mi8Uv4pUkrBOkMcW13/ee+yx0K9vF9hLq4JybupVifQTNFIytyg4lWrVKnIeu7S+CUBZjl4u89jlYlLbvuQ+h7m1Sf2pqaUVnEjS9mDWP38PYrZJB3llZ1w/CfNLR6pyHFJ09Y5ahq4XWdjVdqhYamzvoUrY4dcaRhVHTIc5pJpd2cUyFFlPPOkfUZ8dDXzH3uRJfYS3coVIjlCH2pyZpbWTWdfapp+Lc16Gh26W/tKh6/M//ivi6juuOOedaj6+wRlO2OOa6DnROPerdLsI6Snpd3y7C9zZq2fqcC/FtT+alv49nT0k07w54gwzHWOzI5mu83xTxFfIXDrlKSUlh8+bNlJb2PzhGWCToK0J6EVtV7pek+K9g1bIJHNn0CnGH3+x133Hwlakl87qqaa+cIWL84wQuXsSxOdMJXx1Pt1FN25mjnFj4MkFTpxLgNpaARVuoqxFi0FU0JmwmYMBYgqZN5cTaI7S2SiHA+oo00j9+Gf+xU8V7gWMeI3pnCu2twkLoIomDHuCQu2PihXq/JbgP+VgMJ7qRHO35IZycN4egyVMImjGL+F1RqLRgU1VyyXsVR8cJZU3iyMiZJHun9J4E7LW1aStJjYoUw8uFEHPHlZSaT4dTeVyhuXniK4TsJh7dgW9QGBHhIRyLLUbxL4ivti0b79XupFXad8vpVVQWniLAVwjfDcLHJ4iEjDLUJgtWi4qLGScJ9goQw3eTchukxbJZT1tVNsdDjhEcFEJIcCDBoaFklLaiN1mxcZmQL3eSWtazp7w0ch37Qy6IhLGpIIY9+4+SnBxKSFg050uaMOpVVFWcJWifnxQqHBbDhautCBHdls46slKjCAoIJjjkKAc8w8ivVYgLEHN3LQkB/qRd1WE2dVB8NpZQv2BCjoXhvXsLp2utdFTnEh4eT62iZ7CQkDejvHKKXe6HKBFjKE1UnAsjOL2ctqpyysvLuXSlBoXd8i1MTuXJR/EKSaSgXLrfcqPgCauRquwTePol0i6s4P4F8bVRjoebB6evJnPUPZJ6u3P26xBfRVUgs37zDz5PlFbKX4f4atsqOPjuEP76299x/8CRzJy+irisTN6ZOqzPUGdbZzWJfquZMVIIuZ7AqBensfZAPB1GC12tZ1g66FFW+2Q7SX9nYxbvj3+ePSfKRZ0SPL7XEl+hjZI2zWTW4iNUm1rwnf8P/jJ4N1KAt3C3k2Ov3s8Tc0MRzEXXEV9LE2GfL+DdzQniRO238A4GDF/IG0tn89LyA1TpTGgq09n+8ctMFOV2Y/LIR3h3exJXW6VOenbLYGeos03XQV68J0umzcTNbTLjx41n6fsHKG2R9tObmnI5uGMFM58fJ4ZgvfLaJrLqtSQeeI2BD/6Zux8YyPiJbuxMcDAYDXErX+Qxt8O0YUFRf5adr89n6uiJ4vMH42tFT9nFkBU89eQkDge785qbG5PHD2fgiJfxOVkiqrGy8jxvj3+ElxYsZM7saSxdFcuVy+m8OWWkPdS5mnXP3c6wOZ/yxTvzmew2lId/OooDF6VZyKCoJt1zGf98frJY7uyFC1g0ZTBPzNjaa4Es9Rnpb2dtPu9N/AezX17I3DnTWPxxDB0mLRWZIXy06GXcJrkxadJIZs5dS2Zlh9hXNTVpbH1DCLWbwItPjGLFtuO0CsTAaqIhK5Alc8fz4lgpZH/CK7MY/9wQMdRZKDHu7V+Koc4tdHFqx3yeGL6IkB1v4eY2nqGPvcCrn4fQKhJbG3Xng3hvwTiGjpbyWvrFp0x55lG2hPYslPRd5awc/wQbAotoyPFn/tyh3PX/fsrjQ914Y62X2P6a6mQ2LZsiyjv80VG8vz8OlcWKprmcT9weYPrchbw0dxoLP4ii1aChLH43c6dPYPR4qdwlb7/KqGGTOZ4haay5MZeD699k6jg3JruNYcjg+QRmVKFqu8zh9XN55I93cs+TY5gxdz4hWZIBFJT4z/odw5ZGi/vobJpGzqTuYf6TY8S2mjnnNQ5GF6A2gSvx1bddxG/dEjHN2OEjmD1vExeaBT3tIDtsFXMGSM+//2UYjRoTZmMNx91XMOMFSXfXeF+Q9gobuihN8+Ptl+biNtmNiRPH8PKSbeTVqbCgpPDkeuY+OVosZ8U6H662O8ZYM+UJO5k5aQlnKgUjqw1FZSrbPn2N6S9OENO/umIvFxVg624j68QWZo+aJn4/eeIoZi14k8CUKtEAIRDMjS//g0VvfMiyhbOZPPIxHn9mOYf8PPhg6Wwmuw3hof8YhXeZ66YLBV4Tb2P8u3FitI9NXUda8Cb7+DSRMaOmsNL9OE3dRiqPf8CQwc/glS7oqZ7qnB1MeXAEu6OuYFRWcHzXe8ya5sbEcSOYNPoDUmsUInlK/OCPPDRxFdtXLmbyuOd55JHp7AoOY89KoY+N5tl7hvGBz1ksNhtdDcV8MOlBFr/3mdQ/3NwYPeJ5ln4RSqN9O5Mr8bV11ZDkv7ZnPB0xjTX7Y2lzkl8DF45+yNjJH1PeqcfQfZWQjcuZOXS8iOH6oxfFsbYhO4jZw5/lsy838Na0qbhNGsewERNY7XFKIt02G7vn/oHh4xeyZPFMXnnbl0aTnh0v3SeGOqtp5sisu7l77Gfs+WIJk91GMuBPL7I6Tlo/mrsVFERsYMLESUyY5Ma0mTN5dcksho5ZRIa9PQ6/8isGj1rI66/N4uU3D1NvttJ5JQ33T5YydbzQF0bx/MDFROfXi3OBvq0Y3zWLxTF27LARzJ3/JfmtGpGsGeuy2LJ8LANflPrYuMULmfvInfZQZ8jeN5n7nxVCnc1cTtvH5KEvsn7Vu0yfNoWxI55lwtjVXGiTJld15Vn2vTeGp4ZJeS365CMWPPh/cFuf4RzqhGidA2N/yoyVyXTRTdWFo7w5bJKI8StLPyCpSBrbbB2lBO96l2ljhLzGMXzIXDxOFol9SCCcr4wcwNJlC5k2bQpvfeTF5wuG8NGB03TZ7UttZfEsdxuF16lqUnvNOe3kZXqxfJQk47SZ89nul47QzWwd5Rzb/R7TxXFuHC8Omc3eqDyXPf5aElaP5Um3A+L2h2uJb0u+H69MepmYglasZLHsv/6T1317Ntz0zH0m2qpT2LxgHlPGTmLK1Gn4npLWgvne83nsBSHU2UrNhaPMHPIcKz96j3mzpzFh7LOMeu5DzjVJiyRbewmBO97pweiFuXjGlyCY5Bxz37QxrnOfjtqiUD4YN5XJk92Yu3A5J3LbMFHDvvEP8N+jV5Nz2TFOOpsMjGounw3kvfnz7PPQaGa/spHsaqnfJn38F/7y6CI+fG8ecxavw+fzcfzlobfJt6+5bMYOjr03iIEvh1HVVMrKGQOdoc621kK8D7zPrMHSOPnykvWcF6Zzl7lvSh9znyvxvRK7kTGT53Bk89u4TZ7AsMHPM/+trRzZ+TEzpk1h3MjBjB/9BbmtkkDC3PfA4GVs2/Ix84T5f/RTPDTiM7IuSXX/KuJrarrAwZ0rmOWyJslphWuJb3NhGKsWC3PdOJ6/ZxTrRN21oGw4x85l85lmX5N4xglrEj11xWF8OH6aOCc42kUwflxLfAVHW9CbPuTos/H68CDlPZTApcFu7uNNEV/B41tRUcGRI0eIiIhApep/rKvN3I3+8tFexNZBfFcum4DXpleIP7y8130n8W1Mv65WAuEMf/bPeH98FK1o8bTRfSWJ5DdfJze9TrQam7VVnFs+jehNJ1B3nCLwj78kOkKSWVtXh6arCxtXyZz3AiGrg3BUx6bMIXbiQKLdz6HrD/HtQ47I2eOIPZSOyWgVF2XdLZfpUnTT6L0MrwUHaBLFMKI4ewDfZ1/mYq1jsu+pqiDHoY0b2LDB9drI/sMnqe3jhBabrp7EAG9ii6U69sfjKxJf780cOn6Odq1kOe4r1HnLNi9OpKSIRo/TZ05z5nQ5kv6ZaC1OJOD4WRrEPmals6GQY17BXGjQYFCcx2+fD4UNUt7KxkYE22tXUxFRgUGcLWuTLPw2M21XMgj0CediYxfWfhDf3Vv2EFXuWKhIcuw5cozCOvvoYxasYt2YLDouxXoSnnaFTtGTb6A+J4y9e09Qrwfl1XMERaajMJhpLo0hJDSdFh3YWnPYs9GTvA4wK6o4eTyG4qZO0eNo1LVRdE7AI57IyFjOOeVQkhvlxyG/GESczqQRczyc43FZtAveKauF5ss5nDlzRrzig/bgFXmGumsjhWxmOqpzCPbyJTanGovoWTRQeSGR2KRCunqM/D0Kc4NP/SW+v/jZQBavWsWqVavYunUD2zdGY4+W5usQX0Eca91pXh09nlUnrorSKSpuRHx1lAa8w8SFeykUAwlM1J33Ys7z8wi91IlBW0uc72FOFzU6w3lrTq1l6qiPyGqS+s6NiG9p5CfMnPIJBa1aik8cZK9fjvPQD2tzHDPvfpGtOVL0Qm/ia6G5JJK3J8/HK7ZcNKD4vvwzHhz0BqeuSultVHBo9nPMWeVPjX04tClzWTnuKd7aekZcMPdM/mYas/x4Z+mHnCiWJhx1Yzbr5s1gg08mGouKhA+eZtDc9RTWSjps6yyksEqYDNo4sf5l3lodQ5eL0cvacY63np/E6qRasKhJP/IGM+esp7xF8uxUFxeLhzkJxPfh3z7Em15ZYr+1GdqI37aQR57+hApAIL7LBv+RCe/70KqRlKvjGuK7duB/8uSET8iu12GjiZBXnuCRkZ40oSHH5xNGjZlLVJEkt7qpkK2Ln+bhqV9NfFcM+QNj3jpEo71SXTVn2fLmIjwTK9ALth5TE97vTOGNlaE0G0BZmObUj/q0fYwfuISEli66ledZP2MU7+9LosPe/c/7L+G5ATcmvg/e8yx7M4R9RAYuJexm8uCFxJW3YrGUsXbMYyzZHEGTfZdISdQKhjzWm/gqcjYzcdAbpNdLBlQhumDJb/4bL5fIekVeMhftY311wlaGPvE6Z7RGkfh+MPx3jFy6nxq75b29IpY3R7/Aar9MMbpAcJUn7Z/HoOcm2YmviuSPBrJgbbzdqKUhz2shTz34Frldgo5UsG/qs7zj12PWEftgQwSj73yefQWCIAYq47YwZMQ0/E5LQXM2Yzu19S1o9b2Jr6b6IsX2yAd1XQYrp01jc2geWlU0k/7zNjYmSOC0XL1Kh15PZ4UHUx8eRli+hEd1fj5CXFR7aQyfv7Gco+caJG9m5yX2vD6Nj7bF096RyMyf/5SPI6UBsL2mhjb7NipBRyM3LmfJJwE0ay3YbG0cWfY8U947TFWb1AksilwuNei4HLuD6ZPmEZRpP9jA1Emm78eMHfUhWW1aBOK7dsofmfq+F7UqE8K+sTce+ykPPfcmqRUqbDSyd9gvGPJ6lDMSx1oXzHM/GcjhYkE2PVeOf8Hsxdu4IHZdM82Fobw6ai4+WY3YrCZO7p7H4qW7yMkIZeFTw1iVKEXL6BorKKttQVgKGNUV7HplPO+4p4hjg0B8//LEKyRc0WDT1XHotQH8/P8+wZZ0IfZITdrORQwc/TktZqtIfN8d+ntGvOJOSbu0AGjMDWTekAnsjioRCZ+D+LajoyzofSYv3EWBfTytz/blpSHzCC6Rxh7BsH7wrYW8vTMBrclKc+EOpg2YTMxFaTytvHBBHCsE4jvt4buYsTKYdmEesnRTFLmZMYMXcLK0RQgFZNfUO3hq3Eqy6ySdsPZBfH9z/3ROlAv3laRsfIkHn1xDFRZqs/1YOGYMO6NKxS0/Zr2KsI2TefrFhU7ie2jO7Tw89B1OV0l6IpDJY++N4oN955BUoYvMHRMYPXIdpRrQVBVTLHZeG101Z/jYbTpbjxeio5rAOQOY+M4BrtqXDlVpGxh5742J79iHHuDdQ2cwWmx0Np7mneGj2HT0Ajrq8J5wD0MXbaXUfnBAbcYuxvy1N/G11Prx7E8G41fahU1fxrYZzzLvyxxxPhSi0xrq6jCiJmvzWMa+EcJVEUId5VGfMfDvC0hXSp7WOY//lZkbItEJlnyTmtRDH/DKO7uo6JDG68z985g8bR0lndBrzjnvy8xJk3CPkIycmDW0NNbSodaQs30yI5cEcllczOm5FLOW5x6YT4qkIlgVmbz/ohufxwqzhCTHS0PuY8rCN/l01SrenjWc5Vukg8C+ivjWmTuIdV/ArMV7qFUKfdlGTWmpSLCvJb5uD/+d13cmoDYIYecX+HTEED7dn4EWNZkbRjDxrVAq7BiVRnzCU3cv4HS7mvTD0tx3yWXu0xgq8Hh1BHNXJ4mRRwatlvqqKtEYXHvOm7fG/ZUHh81n/e4AyuocjMqGquIUG5YvwSulWuy3Jl0NB9+ayoq1kbQaQSC+v/71aLxzpW0l1qZTzHzoPtaektYF6rJjTHt4KHuK9ah7Ed9OTn/yFI+5rSSnSurDtq6LXKhA1NO+5r7l9rnvWuI79Mmn2RJfKYQJUBK7jRf++GemrztOt9GCqiGVpS8MYufxUnG9JBDf3/9xIl5nKsW627pK2TbxbwyZfVSMkLsx8ZXWJANnr6PAZU1SUHU98W3JS+1pF99l3PW3DyiyaDjttZyZc9ZR3iytSaqKitAYKvF8bSRzv0hCCDpzbZdria+oeLf4z00RX2GP74EDBwgPD0ehUIjK2195+vL4CsS2OWMjuz+bTcnJVX2SXiHNjT2+QzkTWyKFnViN1Id/gse993LoxTH4jR2D35iReD5yN16vbqO1sYyE53/DzudmcMo7y7lfyNLkw5G//YPsLJfVJFC9YxaH5+6gRdsfj++Q6+Twm/U+dTXOeGkRJpu6iMQpT+D+xHBJPkHGEQPZ9uvfExN7I7dfPxE2dFKankjcuQJauiUF6zfxPbqX+NxqyRMrLI368Phu3xVGbkUFOYmBHPCMdR7UYzO2ce74EXbt8+Lo0aPi5e97mF1btxKZr8CoucyxPV/iGZDIpSYpPBybiZqCExwNSaGpqyeuTfDKJgT5EV/ciNnWH49vpHO/g0OOo6nV1wFm05Tgs3ktew9L8gly+nvvY+uW3eQ2QWtZGmFJueKEUhSzi9i8VlGnbJ1FeG0M4YoQGtNVS0JMgpP4CqEqzTUVoiGo9Hy8WO/iZrAZWzgdeph9QedQic1vQ9dxiSi/wySW2JmRi4TGziYS/TYRll7t1EnhduOFSA56HiYiuRCl3sFyrejUtWTGRpImWFgdcTMu+fX1sb/E97d3TMcjMRHv9QsYMeg1Uh0MAr514tuuKWXLzAHc+8gLjBo1SrxGDhvAXXf+jnfDrz+OSCBeHnMf47XNp537nW9MfFcxd/oaih02EidIGrIOLOGp8e6it1f4WiC+4wc9zNNDhjNq1AjGuk3lS69zKNRSX/Zf+GumLg91Hv5jafJl7B/u4fD53uNHzq5ZDJ2xDeF8MMcipM6kIH7nIp649yGGDJfqOOrFITxy95+Z/mkILdUnmPz729kUf60V5EbEV0dx2OeMmPQ51ULcmE1PftQ6Rj36AONe2UuNS3isQHwHPv06RS5Ko8s7zJN3jUXgSQLxfWfCc+yILnbq4bXEd/3zd/DyprNOw8OVw5P4258+okBfzZEV43hpVTRao0Mp1aTte5Xn50jEt7M5h40LR4vtOnbUa0TXWRE8vh9OGsiW0Hx7G9ooi1vNs3/9CwNfsOMzcgTP/PNvDJv1ORftapC6fZykH889zl13TOZYo4rWvK1MenoCsaWOvgK99/he7/EdOGUTanuot+piNK8MmsHB/DqMtQcYf/8zBOf3jN9GfRHvjnzM6fEV9r35vPQAsz9LdnpH+iK+gk7FbR4ryTv4Uf58+3ROaAwi8f3U7SnWHc1xPn858TOmjFjImUpp/BaebSwJY/4EyeNrbY1h4p3/zgMD7NiMGsXI5x/id7ffhU/hjYhvF6e3zeTBsR6St1dXg8/7E5izMgq9yzYSR5dw9fgK3xUHvSXJPvx5HvnzYFb5ZqLWF/DuP/+Dh4fOxzOy2BmBoW1O4OWHf82zkz4msahRmpctOs4HvMeAv/2dwUPtco8YzpMP/JWxr+2mormEVU//Fw8Mnsl2/9xeJ24ra9N4f8YUDsZeliJz6v2Z+uiT+J3vbfW1GZs4tnoGc1f40apx6B8YLkUx5ZkJ7MxpF4nv5sUDcQ8vk+QCfBb8lhkrwrFTZQq2PcMzMxyHn3WSsm48d4/1kry93VfZv/RFHnhooIiHMEaNHD6Ie377e5Z5C1EANrQtuexcNp0X7n+WZe5pzjFFwPHyyfVMnzSKUSOG8/Q9T7BkTYxYrkB8n3szzjn3nt85ir8+9BmX7Q1Sn/Qlw8d8QrnJIhLfjyYPYFNwnhNzi7KCnUum8pp7IioTOIhvm6aMbfMGcd/Dz/XIO+wZ7vrV71hxTDCMWGksOMbiaQuIzmkQPaGKyuPMfvj3PD/lc9Ivtzq3lAjEd96ICQTn1Tm/M1Wns3T0JNbEXhaJ7955d/Hq2jjnwTt9Ed9HFkY5x5b6kyu575cLSbfqyPR7kxkzVlHc5AiNlzyt0916PL5HXvkDcz6IdLaVtSmIUb+9nUcGufSF5+7nvvuHccIOnnAYkNhOw57j4f9+ni8Cs1G3HmPUz37BzvSe8br3Ht/rPb7Txr1ESrGEh1FVz66Xx7FiRzId7ScY99P/YG1Cj9PCRh3bK+XAJwAAIABJREFUBv9fF4+vksSVw/n7xKOSHpmbCHx/DP98/DkWfBjtPITMqjjNqw/9mrufdKnPkMf49X/cydZMiXAuGDUGv0zBVCC8bLQWHmf5wrdJKBW8rY3smPkon/uWiGOpY86pN3UQu2Mhs5buok7RM64IOViV51j2+B/52xOuZT7Ob39yJ5vOCin0lESuY8ykT7mslIxZgsd3/qhBrNxzlITERKLCdvPWvCUEpV5B/1UeX6uGzKMfMfTRfzJx0SHnuk0o5VriO3fMFKKy6kVds+hUHHltNIu/iKZVkcb8e+/gnqdc5X2UX/37L3HP1JMfudY+9+1zzn02cyvHV0/n8ceeYdabPX1dKFd4aWqyifDdxaQBv+fJAXPwz21FWJ8WHl/JoLvuYtAQe1kjX2TAQ3cx4pWNlLdLxPehIbvFrXFSTgYy1w1i6GuRKNGR4/suUxfuptFo6UV8dW3xuN35f/gs+pq1oM1KaewN5r7ZX4hz37XEd+JLn1JrN5o2F0azaNRovM9WivphUNax841JbAgQDDTS3Pf0+APOdbsgc9fxl7n3n8vIUMKNiK+1VViT/Bcb465fk1zr8RXCrn1W2ue6gffzq39fyFmbnoKo9Yx85H7GvrKXase2DXMbkWtn8ITYLmHO9ZQg1w+K+NbW1vLll18SEBAg7smUGvsm/op7fFOuI7f/mvi6Y1FfT2bEEOOpI8lMumSfYPVU+y3DZ8aHVF9SolP2XIZuPVZxH6+K5piP2PHzO9j06FwuFjRgrtyP590PkVfQuy4NB+ZzcOYmmjr7QXynjuiRw2oQ5fCb+zlN15wxIljPol/8J6GHr/aST5DV5Fww9shhqTrIc3f+kl/+svf1xOC3ro9zt9kwtZYT4RdFgVJaGAjEN8Lfh9yqDpf9VL0PtxI9voH7Scqvcy5o+yK+jj2+VksDiQf2sDVaCv226Rs5FeLJsTN16PX6XpdgIRUmWKOmmcyTfmzbtJmth1JRCiG8uREcDUvDNczXpm4g+ZgvJ/Lq+0V89x466ZwIHXKEiTEjPRgKn6zKHDw2bCL9Sm/59HqDuKfYlfjmRW4nuUSy/Nnqz7J1fTiC9unbrhAdm0Rtu92d5FKEEL6cH7oa37RasCnJifTleEZP49t0DSQFehCefR3zEnOpSvHE76T0EyI2usgK2sU2951kVBowue6DwkR96SmiojJoUfcYDFxE6fNj5NLbGLNUCuV1JOjrcCvHHl+LqZTt4wfxxOIwR/Jvn/gqc/lk7KMs3leEUqnsdQkHtV37slQfZsSf78En17FY6nuPr/Bc9MdjmLHUn/qeNbGYneBNXTftaZbst1vC7cR35pS3iC+rFWVQdantezUlCfwX/YZZH51wLvAslR4M/ePf8XdsjrYLWnxwPoOnrBe9fY5FSJ2hlYj1M5i5dDdltb3rqNEZMdf4Mvi22/HofQ6ZJGsfHl/JYzOa+WvicGzzE/axd1WeZPGAB7jjjjsYvThYnFQE4vvssHe54kJ8rSX+PHn3cA5ckYjvu1OHsj+uzDkOXEd8X/hlr4PCnMRXW4HHGyNZuC7BKYforXIhvoJHTNvlqHMXwvZAgfh+NP05dkbZybbNSmHoCiaOXUpqqSOt9K7W6jBZi1n7xIPc+/s3SFcq6cg/xrSnXxWJb/O5NYwbOJkkKbBAxOxfEd/Bc3dKkRTCyfWuxPeSOyMfHITDQSJkdi3xtdb5M+zOX7E/o0f/riW+NvL59N6/8sh973NWkDfHj1EPLXES35UzB/LlsZ6TPsuiP2DSmCVk2g+UE8p1Jb6i5+g/b2NrYm9shMgrIXq1L4+vTZnF+8P/wet+du+u5jJ7lgxn0eZU8RkRKJc/DuLbSgPB787kHz9147hSiaKmgB2LF4vEVwgY1Xe2kXp4KX+/7Xb++sTrZDR2YrNZ0LYUs+/Ncfzp9l9w3wtbqDVrST+4mCkzV5J1pbfcaq00Lxs0KgqOv8f9P/0v/vzwS8SWNouL3kuxnzB59CLOVUv933R5ByPuf6ZXuwiiC+NrwKeTefmjYOyOULFG1so4pj07ho2nW0Xiu+W1wey1R54ICXwX/Y65n8Y4f0blksdIJ/G1dpxh2YC7WR7a45XZMvdZ5m9K7TU2CWOV1r7X1SHH7/7tXtYm/X/23gPMqurq/3/fN8kvJhp7SWJii72CsRdApPfeQSwgCChI70yfYXrvvffee7tTbr9nABuigAIaUKQzMJ//f59zy8wwKNhizJ3nOXNn7jl777XXXrt8VztK6tEuDlPuu4QnrxxOdMfHHDn4KWnrXusBfAeuqbWOgAC+dz7rZj1QH6z3Z+jojVbgu3bq83hnG60AUoSHBC2Zwjy3Ig6f7gZ8v9KyaezjvOanuYBeeT09d4LG6EVMnbWFjoPKwijizo99rsHztSH85epruO8lH/mgLIDvnDGTyDV+ZgW+5/c18dboMazL3qUA33l38ZZHtc2Tpg+L7+PLKq39tALfcydoiFjAlFlbrVZTzC7GPYDvq39l3uYS61id+yiAl257kKjGnjL1tVivz+0jedlkHvjDJHKF7O7Rsn3+6wrwFWvsldcQ2molhe8CvlMn2CzPPYDv/gwGXPFbttd3r6sn8D3/RTXzH76V5fkWhVwXZ08d47ApmCd+90duuu0JtkS28M2BQibceh2rc3r2R8iXiBtXXIzHkdb+qfUsd/7oTrxfG8winyZOfxTKmPtnULFfmSu2PecgWY5TmP1OFJ9ZDJpmcs8fLGXaXTezIuvCNuU42BOfEP3uaOZtzOXoKUVGers6nz9+gPhVU5mxMZ3PTn6bq7Pw3jnF1x/mMP2BO7jm+huZ9E6OrBzqDXxnj5tGqUY5P3UHvgc/z2fUTX9iXd6F9AoeWfa+15607X1fIvh9nCM7onj6/13Jjbc+zArfOqucClYIuT/xzR7S14/l/hvn03D+DG2JbzF+3Ns07OrZltiHxLFWWHwfHROB7ZQHZ9/3Z+DfHyK5+QMCF85nU7xGPl92t/ie2JfKc7/5X7xlxYJNbkSekG/b+8QxsDfwnfDGNr74WlHgCOD7+rixpLQosddnvt5PyIrpPYBv7zcadJYv5s4H51N78OLAV+w5z//hKoL6OJN0B75naWDB9bcyYoIX+iNH+LLGjduvWojopjIuxbz+9APymWTYa+JMYhuXZ6+4ihtufZAVPrXyuPxigK9wSygtLSU2Npbjx3tqW7sN3Xf82cW5rz9AvKJIWHEt13cB31O7ovvM6nwB8KWTQ/W+JI18lZ26L5SEKl3nOXviKKeFC2/ncY4rfq50HdBSNv1Jkj3rOdPZSPaD91OW0sFZ89okxwsteYm0lbkc5V9o3+yP4/RMJSFF50k+CpqD54vdYny7A9/udGhtdHSe+JozZ/fQMncQYSuyOaEo0ODcKY4fPnZZ1vOLM/owrZmZ1LynaGfOHv2MypQESjS7OWU+8J7rPIy2PJ3Cht2yW9HlAl/Rdtf+Jjyct1H5nkgQdRRDcRKRuRqOWwwkXZ2cPHma8+e76Dp3ilNm4NK1vwWf7e5UfHSOgx81kByXy/ufn1A2064uvtnfQU5cCq2fiHe8HqE8ypOcZvNC33mS9vSeMb7dgS9WOtQ2Os6f5fSZTs537aXA053cts+s2ZMF378xu3af2KcjKbeWw8c7+UoqIT6lmt2HP6a+LJ84tyAaPvgcfV0hpY27UHKcneX417ZELyITXWvqVhLqhSb9NB81ZRNbaOFHF2e++oiixDSadgt/xC5OnzxuTeJ17tQ3NKZtJ6ddLKHn2F2XiI93odXFuMdYf0eMb49nu/2zM3Iszz+1kXZrkqBO9u8K5vVnJ1Npzl8vsjpbgK8oeq4jlvv/ciVrspXkOT+1q/OX7CX+9WEMXZrMYYtuQSSrOSKS0HVx/txJvtj3KYe/EQkmTtPmPJDn56ZaFR+C5gssvqeO8P6H0cx5eDAJTULpcI5vDn3Knn1f0cl5PlfFM3v6Khr32rSvPV2duzHR/Gdv4Csy+S675x9sSDTJSTPEY2L9iFkykNnvZMuabcshZJ9w1Ypfy+RJa1B/rLgEioz1x775hhNylut2VvztBpaEaa0yLGKCBT8srs6LN+bytXwI6eLwzlKWz1tElnqfchgSSbZOikRvyuGns3IZN97en3QJBPDtf/Mwkg6YPUs6T1EfMo/nRzvIh2xh8f3ewJcvKXSex9g5Puz/WllEO09/TPTSEfQb/e2uzj2AL13sUYcx96XpZLV8bk5yJObLUb4+doZzhgju/vMzhMkGtk4+qQpk2L3TZOB75PMs5vcfQETlXtmdVozDx2oPhv7j4q7OFwO+nZ3VvHH/I3jm7pbd20Vd//oklJG3WlydT6PzGcujEyzWQUU4ZOB7462EtyiWlXOaAG65+klihY5QJLUr9uD522deFPjuNUYx57nxZKgOyIcrMeqG0o0Melhxde5CzYpbr2NxqGVtATqPcuBLZTOxAN8lUZYYu3PsrQpg/KRNmL5WrFJCjgod5zHmFR/2fWUG7Z2nsCQWtADfg/saeXPkMFabY5qPfqxi9fARCvDt/IYvhXlRdGtPBdMHPsDCuN2cP/M1X5uTQJ7ThXDrDdfjVHcGqcyDmSMXyLGM8jbUdZ6Tx4/yjdDWdB7jX4prDF2ftbJsQn9m+7ZwrusEqSuGscSr3up6fO58LYse6odb9ntW0C7m2tenvqY29G0mTtuCZHY759wZdlcGMO7ZBeR/fvSygK942+aeYjeGjnfkI3O2ReFhkrV6CiMXhNnAtUhS99UxOsUzXefZWRvE2wtXkBfjyOChq1F9cYKuf+3EZf5Y3vCvkWOozxzZjef0wd8b+K4cdC9vehZz2EzXoY4KFk8aSkTFB7LCymLx/ZJ9JL45kmFLEqyu/5w/zWE5eVgXZ4/tJXjJRBziFYuQGMtzZ77mqDlp3jm1L1f/8U94NoEAvtMeeQLHQqPiZXS+k13l/kwd/wqV4p15XV0Efl/gyxmkcnemD32dqo7D8lmg6/xx6mKX8PxTNsAZ1Qv4nqeBJfc/iEPaDltCsbNf8cXhU5zfW8frw4axNlfRgn29u5F3h46Uge8x2ll6y9W8HSnJoRSi38f/lc7EKy/u6nwx4HsYPav+cgWv+Oqw5JE7cSSfab+xuDp38lHOZgaMdbPt5+dP882xk4rCrfMU5e7jeGb6JowHO3D55x2Mc6q3hbJ0HufAF8p5uy/gK2j/IH8TQ+c6Uun4FJPdbDEW3fec5rjVTJ68Fs3H5rX//FlOnjjGqc6deDx3LyO21mJeHuDccQ7I2qMujrxfzapXFpCqsr3RoDfwPXdsH1HLJzFnaxYHTh0gaMSVDHu3XPFgOPMNuRueVPJbdJ3j5Inj1rPgiaIF/O2hl8jfdaHF92LA9xASDo/cyiTXxh48+lzwqOs8p7rvfRVLlb3PeIZjx05w1uzd0hY4hX6jltC2/wyH9x7AvF3JBppvVIE8cc8yWjjHB43+zH55NgXqg9bEfadOHLWeGfsCvmI80t65j+kLNrN8nQOaD5VzeHfgexIdq/9yJfP92qzJvTh1hH+d6OLj9tA+976j5tCjHwp87713BSpLnNSpI0TOvoJRS/Nl5UN3i+/ZU1/x2aefmxP3tbPi1ut5q/uec/KwfCbpDnxP167hhpuHUyhnhz2FMfZNbr3iNRovOJO8zY239SOt17iog6fy2Ki3aNv3C7P4nj179vKyOAsp6PUjssed+bSEE0ZfK/D9V5sbReFv8UmNg/U7Cyg+KQVx7qgSW9CrKi4EvnD2y49oXzeWuNc3oE1MxZSWTGtsAh9oDyLi7urcgzClpWIM8ybv1aW01u6RhXp/8gpSpk+lKlCUSUW/YQZxC9ezx6x5P5i3kqCbh1IryiaGkTf5CZyfuBjwVejQbZ1CwsItCh2pSegz0mQL8DF1EumDbid5s9KWMTmCyqhaOi/yTt3e/f72/wXwtWV1FiBs/y4VqdFp1Gl0SJIRVWM5WVkVfPzlMXmT+V7Al+N0FIUQElvOx0dOcfLzDvIT/Igvl5AkCcmgprb9PXninD2yg4a6Nvl7U30hMSllchyAyIKpq0wmMb8WvVGU0VJTkEqh6j3rorarLpHE+DxaRZ3qOmL9HXokt+oJfJHpKE0LtdGha0X34QH5kPSlVEpibCRlzQqNJl0jVVpFX9d1+kuashLJbtnLyTMnMNZlkZVZya5DR9mnzSMrK4eqJokjZmAvDkEtWeUKXZJES2E6sVlZ7DRnm+v66mMq8mJJKzchSVoqi7JJL9Jw7FQn58+d5YP2Str1Ch2q3CSS8uvk+OiuzgPUJIQSV6hW+Cj6LV/vceiEyND17VmdLyYbnWc1uEyayBuLtxCTkkJKSgBvjhnB9pg266GyN/AVcVjlW4fQ/6mlVH1wRLb4Drr3JVZGxZEi15FCdnmb1QXY0rZ4nZElq7P47tJjfOGwLp25g+9k4gZBYwoZSRG4R1bJB+Tuya2OHy5h/LV/Z31hz/R+Avje+9xiwsz0pTmuYvDMmXhlK75vwj3Vktxq35mDZDm9yoylkRz4xuYCdrnAV/TRmPIukyZNYLOfQnfyhlkMe3U1zWb8YTuEwPG9GlwXDmDkYk+5j2nJ8YTGZqL7QIkN2p2/gSnjhrLKS6krN8qNDJNo5SiahE2Mn/IOkbFJtLx/kIaY5UyZ7kiHCH4VP+dO0NGURlhwlFy3oGPsgkBEjKkAvo/ccz9T392u3AvayoypE/AsVIj8IcBXvF/1M00Gi4Y9xSuu0XL9CRHuvDrsbu6b4PGtya16Al8QFpWELRMZNXcFoTEppKYkExcXS0nrZ5z/pJrXht/LhPUppCXH4bNiFg/fMFEGviKzasLasUyatZjAWIV33quG8vBjlw98RRx+juMExk+ci3e0UlfoljE8cv+jsqvz+a+qmHPHfbyT3dMFv4sOfIb2Y+rKEAprdXxpKmL6gNuZtimF9OQYPJdO4b5rp14U+J741yeELBvBlNdXEp4g2k3GaclAHnrKEuMLH+dvYNTgZ6zykZUQgGOcJA+/kO+yzbN4boYT6Zk5mD7aRfS705i1LotjZmWIePDoexVsnPc8o1YqczkjIZz0sjbE+dECfA8dfo+AFaMYuchDHs9Yr7UMu2eQ4ur8ZQNuDv7y9yn+jsyZtZw042FOfFKE7/YQ5XvX5bw8cQN1h+DUofcIWTmCka9tIjZBjGkiUbFJ1BsO0XW4FU+XQKVMsAcL5y0jqnEvnZ9HM/LOF4hr6+5i14UqeikTp83CKcg2P8o/EDGdKtwWv8yYd4KVuiL8eOf1GWxNbpe9EESM76VafA+e/JDABeOZ41BKZzcPia86Clk85kFGrVHaTk+Kwju6lINHTvGpKpEl4wfgk7uTU3xFtetYnhi1hRa1iVSX2Yyav46o+BRSw5yZ9Mgz3xv4rhh+C0+NXkhIVLzcz+1LRzB7YwwfmWMyLcBXqPmOGLKYP/Ruxq+z0BuJe2QFXx87y5dGH8b8czIFki3E6qsP8/HzClP457yUF8dtoukLBfhOfuY2hsxZS2JSMikxQax8dTTLAysVUP2DgK/i+eE+/yVmvONAXFIKyQmRrH/lKR4ccHHgK+S4LXYpo8aMwSFA6V92gi9Bue/Lygbfd0Yw6i1vUlNSiPVcw9C7X5KBr9CpNgfPYuSgkTiEK+Wi3Wbz2N+uu2hyq4sBX6Eu1ce+yvCnXmRTqFJXjOdr9Lvxf2VX564TO9k+cwTzPGwm4a4Te8hLjiE+LpGUpATcl77KqqAKDp2CA7U+jHr6ThY4K3VlJoawOUKJBb4Y8D3/WQUzH3+BR57uT5ot7541vEb4HRz/VI3P28MZs9RXHtv0pFgy8sXZDQ7WBzDqqb/xmqOlzVC2RLTA+VO0JK1i8pTNGPbb3MIFHfOG/JNlTgEkp6QQHeHMotlvkdf8sax40cdNY+ijU9mekkJWbADTXvy78j7hs0fRVKcSHhoj05C4dgZT34nkvaOXDnzFbn+gxpNRz97Nmy4WeoPZFKGW9z6pMf3Cve/APkoz44iNSZDb9Vv+Cku3F7DvxF6y1q3D2TdVkfeUKFxXLWCFr+KVcPpfHxO9fhyj5q8hMk7Zh6Jj46kwx/ReDPh+XLSG+298kDc9E/nMPLW6A1+hftxfuo2powfwjofSh5woD5L0Yu/ba937wmJ77n1C3n8o8L3prkGsclXWxyTHmTwwcAbFytssu7k6d/GxOowJT08gV6Xkitidv7HXmcSddFPPGN8zO1IY/ZwyLuLctm32S9wsXJ3lM0k6oUG2M8mYBYGYDuynLCuO2GhlHfN7Zx5LPAqUc3CvrM7y5vYj/7qsGN8fo+3zJw9yencGJwzeFwBdC+AVnyc7Qjh7qO2iTZ49sp8PCrL4/JMjVvcb8fDZAzvoSAxF5eeLKiCYHd1erny4PkL+vtk3lJ0NO61aY5FN7VBjplLGz5dmnxS+6OEW8g170/yU+/F5fFyZgyajUfadF3R82AcdXV9/zK70aKVMUAjv6S1ZWOGEMdfalioqjy8Omq0/F+3tpd7oDXxFuU6+3LOD9lYVKpWKFo2J/f+ymJuFIeI0n+zS88khJausKCHetbpnl5G9XyhZEE98ZkRn+NQaiyaeEYm0dO069pizxonDjahfbkMt8fkRxZIr3Ej27lC+V6m0fGpTscHJw+wyaczlWjHs2INZuSV3+Ozpr3hPq5Rt3bGfLz9oQf/eQXmBPf7FbvSm3dZYJ7mAoOvoJzY69Lvkd8nK9J4/x6GPdN3ufWKNDRX3j36mIyMqluJajbwJWes7vgd1w3vmRF6Wb+HkkY/RWPqr2ml1fbU80XX6IHrL/W50CH3WqWOH2KEx80r1nhz7I5frPMruDj0t5nIWfqpUOvZ9891ZnS1t9/X5zRfvkRflI7+HW7yLO7HGYhVSnv6qo4DI0PoerwISMc7JgaFUGw4hZEAceERZyxWSUkH3lPiipt7AV7ivV2Tn0rxbsaqKtPq1BZkY9hyWrZQfVAaSWy3ig2x0WOoPDM9mx34lLvzMif1Upiag2nGADzMXc9cL662vazIX5bA+00qbqCPQO5+evTzBjrI4ItN0HNqvx+HNyXhnGWW3W0sdJw/upKigns+s7guWO8rnzvIQiswJIqx3Ok+wqzHL2rafd4q8oVvuC+B7x/hEq5Lh+KftxIYHyM/7BUZRoxHJTcw/5zv5VJ1nrSvSnHVZ3BUKldyUSPleftMHhK4YxdqQetmSZCl+7OD75Cf4KnV3o8Pi6tyqSbXWnVVjsmqdxbjUFWRYx0XUd/LIPqrzszB9KrLiH6U1PZhyrW0d+8qUR1R4gzU+RxyKAv0VGYtJTyPBxRbja6Gv++fpb76goTAN7UdfWuMuxf1TX7xPXlKoTKePjx+5Ve9b57kAH2Js/YNiaWhoIjelkveOKQezE1/spihJ6bt4pm7XXqpyMjDtUcDTntpgUotEQpUzfKotI61Eq7xbW/hpfLmb0tRCTIeUtVgApco0W11Vu2wxvnsL1vDY4FWyQqF7f8TfR3eVyPTF5NRx8Kh4nVeOQm9wAi3NjWQmVLL77Dn5FShNRSm0v6/kE7DU881+iew4hYc+Pj4UVthifMUzYj3dURMv1yn6GJrQZFs/xP1DRsJDAvAPCqOirJiV82cSVfmh1QpuaUd4PQX4K/0LjM5kx6fKhvdxdQDpJTtlfgs5jYsIQNCRWdBGa3UlTTs+l9ffDyr8ZBp8vMOp0H6KwNUirrMlV6nT1zuWtv22febk5xLpccFyGV//EIoblSQrgp49tSHmukIpan6f453Q4fMkz84MwZKn0EI3p4+iq06z9j++yjbDu74wER2urFE+3kHkVhmtFp1zp4/TXpmK3rwOifp2lIf1oEMAxZSiHXy2s5hFs+eS0mSLabW0//V75da2A8LS0O8W3knwQYU/sclVfGbuctfRDlL8AynTHECsKVkJSh/jM9VILZVUqJS965P6cDlMyFL/59osolLbrK6YwhspK7eJw+eVrM7C1dnRL5qIiECZjrCYZD7oFkHzYWUA2ZXd50uRld7A8EykvV/J62690zOMXZYsvwbO0nbnqaM0ZlvGLw7NIcWqb3F1js+Ix9dXkc34rPIerrP60miq2j+1rmNCTrUlMdTKWZaPYyqK6rHnHPu4iZjgcmvM4ZHdrSRFKnUHhoaQnR5Ed1dnqSycMlXPPBjnTn5Na3GMtX/hydpua2wbMeFCdv3ILmxDVVmJatcBWXbF6xVb82xzu3zHPlrSQ6jQKWvbAX0esaktiBSbR/bpKcwvt2bNFt5dutIcaoXMmxmnL1LmgpiPRdp2a4zvYUMmr8x4lZxua6YocqijjPAgH3y8fYlLreFz2zSRM9OLesQVHFPBQfP7sY4f+pDyvDzeP/BNj/MuHKY9PZ6IZFvCRtHG/vZUuvNDZIyOj1Lmn39onDWbr3j2YHuKlYfBMWXy3td54ghRK4fzbkBNj0Sago7CRBvv/ILCqTN1V0B/RZ35fmhqFYbKeMJTlDdxiKzkWbHKGPv7pZuTeCn8SEwX61gXRw/tpCSviD0HzSEGnaeRKrOpaP7Iugfsa0m20hsSW6lk9Rfxugfe63Pv+/K9WmJClXaj48utb7voYj/lZnkW/E4o1vCNyKho/hHzNjvRvDb5BlBQ+6H1nPJJQyQJuUriSMvz4vPEVxK5oUm07RJ+I8qPeD2WWOvV74v3Lig/Bw0F1j5E5gvVsfLT195nORvtbY4lNtso50E48nEb+RUqq1JZvEGjIi+XXZ+LhL0g5NRQV0TrToUOkdzqqfEBFJXY5kvtblvs1xc7q0jOqJf3kmP/+oCy3Hw+tCD3rnPs7eNMIhS1lfk57NinrCmWcQmMyGGHvo6IwEr57RniTFJglonuZyMRShUbpoxLVFyZda3/xbg6Wwblx/nsouvMV5z5rJqTJv8+wK83p97KJ8UoAAAgAElEQVRP4NxXu+R3d/44bf631HIcU2kifSV4+m/hwPfvZydHD+5jV3shcRExxMQoV2x6LR991ut9pd+/kR9U8tzpo7SVZlClsx0wflCFP0Hh3sD3x26i66gJpwmPMS/swrj/S25LuCUWOzFryiKad1sh5yUXv7wHvyLz7Sd4ydG2uV1e+b6f/lIXyowhYygwWbbFvp+zfGsBvt1jfC33forPrpMi4dVIZm0u7PEu7p+irZ+jzhMfRDDxny+QWqvHZ95zzPXtFdT9kxDRxc7iLUwZu5DGjyzH7Ets6NxJ2lPWMOuVDZjMGfUvseS//TERFznztt+xuaCH9vnnoavzG+ojlzFroRsffmE5uv48TX9XKwI49I7x/a4yfd0/f6CQaffegk+1zdrb13OW7yzAt3uMr+XeT/J57jiNscuYNncrHZ+b489+koZ+/ErPHypizDX/y9acPZT5L2D2skD2HrHAnR+/vZ+qxq+kKGYMGkaOvhsq/6kas9f7k3NAAN/eMb4/eaPfs4FfKfA1c6PrvBwT1PlFO6c/yef0nmzO7C3l3Ncf0nVOHEZt2ojvyb//ymLnvt5Bop8niapuauD/Sk58z06LJGidnbbrnHin8C/j54OKcMKTK9h//JdC0YV8EcD3yfv/wu+vuIJprn1kRLiwyOV9I+L2z4ikXz+MB8Ll/MyZs+b4ncsj4XKePr8rnRcfGIz/jh/38CMsKpdD/08NfL9oiWK1fx7HTon44hOoszYx4M7xZKj3WpOxXA7f/p3PClfn8sDXiahVLBnnaWLBVVcxamEqX5w/T+fZMz9Y/vrq36kvPyQ+YAvlJgXwdZ4rYfoN/2DJ9kqOfg9xFzJ+9mynku+irwZ/qd91nePMqVPWPAg/N5nnO89ytlO8cuXnbvnb2/uxgC+Cv6dPm2Pov71NcfenBr7H9qhkTxG1+fUu/9qbyPhb+rE1tpUTv7Ax6M2t90OH83aiEhPXxU7cXniIvz6xnU9FXgqLHPUu9B/wv7y/nD7zk++P/wGs+FWQ+J8CfA/UePHYXdfzu9/+hhUplpdp/vhD8LO7Ov/4XbDXaOeAnQN2DvyyOCCyKkauHc0jjzzCmnjTv/0Q/WGpO3NeUw5kPxWnTMlLePqfj8h9fnrkfLKber5P9qdq96eo9+g+Iw7z+sl9EWM4ybn5p2jmgjo/1+WwaPxjSruPPsq7ET+up8AFDdq/+I/hwPFDH+D77lziK9+3uhT/HMQfkkpYv2QF1d1ecfRjtytcvmcMe1SW+35PDcQlbeeP3cRPVl/Kyv7WdWLIsqSfrB17xXYOfF8OiHCrOauVRFbft45fUzk78P01jaa9L3YO2Dlg54CdA3YO2Dlg54CdA3YO2Dlg54CdAxdw4H8+//xz7JedB3YZsMuAXQbsMmCXAbsM2GXALgN2GbDLgF0G7DLwa5WB/+no6MB+2XlglwG7DNhlwC4Ddhmwy4BdBuwyYJcBuwzYZcAuA79WGbADXzvwtys+7DJglwG7DNhlwC4Ddhmwy4BdBuwyYJcBuwz8qmXgZwW+Gp2ekqp64rOKyCmpokMysdOkYaexxXy1sUPS0dEh/aqZ/mvVotj7ZdcQ2mXALgN2GbDLgF0G7DJglwG7DNhlwC4Dv0QZ+NmAr1ZvkMFuVFo+kal5ZOUX8GF7FntUYXza5MWnjdv5pMmX3a1xvK8tYYdJawe/dq2TXQbsMmCXAbsM2GXALgN2GbDLgF0G7DJglwG7DPxgGfjZgG9pdT0W0BubnoO+wp/9tZvZX7vxgmtvvRMft8Sw09T2gzv4S9Q22Gmya8HsMmCXAbsM2GXALgN2GbDLgF0G7DJglwG7DPx8MvCzAd/4zCLZ0itAb1NxAFKFG5/W9A18FTC8mT3NIb9Kt+fqlU8RPNsPrfRrc+mWaC8MJW7mPKpyGv5jlRaa5mqSYuOpaGpH+pG1a5LRQF5CKBlF9Rh+5Lp/iQtne30pcTFJ1Lb9+jw4JElDYbQ/4Zn1/7Gy/kuUmf9WmtrrClk1dwwuUUXo/41rg+cbz7J4axLt/0YaLkUGJKkWh7EPMt8xR55/+b6vMXjsOqr/A/fVhvxIFsyYRVhu7Y++51wKLy/1mbhlDzPm1SCa/wN5fCl9LI/dzORJb5HbovnFrukJK/ozfI4/Tb/SMbiUcbI/8/OBxF8jr78T+Gq1WhISEqiurr5gIZAkiZKSEvm+0Wi84H53huWX18ruzbqKQHZUupCUnkFzsbD6bqQ8aiErXhnC4pkv0ZT0Vg8L8Ifq9G+tt3sbP8/fEpJeh8lgukS6TJi0WkwmRVDFZp099FY8R7ig+REWLpX7WLZc8Qf8p2zvoz6J5pAV+N7+WyJcKy+LXslM7+XxVKI125OQQcMoTa39jvYkJIMek+Hb5eby2v+WxcBkoDIjGI/gRGpbDEiSkZbCCJycnOTL2TOWWo2ejg4Tquo8Qn3DKalv+9EPISajnvQwTxKyay4L+DZl++Pk5klqWft38PVbePC9DrISJqMJSbq0eiWTCZPJotAx0liWSaBvFJU/wkFC31JDXLArDh6xNOgMF/JBMpEVug2v4FhqWr8PvZdWxiKTktROdoAzPokXro2WZ2yfgo/GS+ajXE4yYTA0k+rjaJVTIa9+ydUYxZj0MZ6SpKcyK4btjsGU9TG3TMYm4ra7EBpXcAGwkSQtZclhuG4LpdK8Nkm6epJCfXByVOaJaD8gJoMmTQeq/BBc3beTU9s3LaameKY9ejvTVr7L03/5Bx5ZFrm4PD7bePjrLtdalcWrQ/uz2i8HXR9j+3PwwSSVsvCp25nxbjSt/yYaLrWfJqmCFf2vYOSKFKSOFkKXDeP+f75F+Y+wr14qDT/OcwaKYrcw7Ilh+GZUYfqR+J7hMIab/vQ7fn/FFVxxxe+549mpxOa39LluXEo/TFI1G56/hqfHb6fhZ+axsaUS59eeM/flCv762ApKL/kMdmnrhtShJtllPk89MZP0ZvWF+8tljMuGsbcybXnUTzKHwuZex0NDnKiTJEyNcUx9+DamrV7F03+9m+3Z9jX2UmTZ/sylzYlfK5++E/hqNBoSExPx8PCgoqICk0kBfAaDgfz8fFxcXEhNTUX8/+1MkvhQkye7N++t2Ux7iQ8V+eF8ULYB3/WTSfaciy57BR9Xru8BfPfVbWOn6YctQt9O1+UJgNRRQc6U54nekvcd/VXqNXbEEH7zn8lJ/2kWJBn43v0Mgc+Moay4J59MrSVkvT4Br7tuJMrj0oCvsSOCiNv+Qf73OqReOvCVOhooXjaW6GWh6PWXNwbfZzwNulriAwMpqBPJ0/RUp/rj4ZuByryBm1QlJBe3XNKYfp/2LWW+D/CV9A0kensQmxBHWHwB7cafnl8WejVtBUT5R1DZ8t3yK3W0U5AQSkzWT2MBlYFvhC9ebp7El7VeMFb6+mQ83XwIibw04Ct1tJIbHURMruqCuiz9/7bPywG+JqmcqO1+FDV+Nx9Fmya9huqceAJDgsits5UR4LQ0KZwg32hKmtsxdj+MSRJtdcVEBbrjuC3kQuBr1FAa74Ori/uFwFcy0VKVR5ifGw5bw2zAV1tLQkgYmXV9K1zaSmIJCs+mpY+DsAC+0x95idXZAUy99RF88m39+Da+/rfe+yUA3/8k3ncHvv9JdP9ctArge8/jCymTJIQCy3fZaJ6bsIaG1u86q/18+8ul8ELqUOE28TFGz/On3rzeGdPWsibsp9lnLoWm73rmZwW+Dw1iTW4QU//2KL4F9jX2u8bGfv+XNb//HePxncBXEKVWq2Xw6+bmRnFxMQIM5+bmymA4PT39EkBvBzskPR+3RPYAtZ9Ub0KdvRKX5eMoj3qTnUWre9xXXJ438b62qI+DqYH2gniKNq8he81qcjfGoJYXRS2qeF/yQvNpS3aX72WvdqeurFHWdBrbq6jw9aImIZZipw3y/XynRDTdDpCmlkzy165Wyq5ZTbnZldGkbqImaCVh/e/Cd/irZK9bT3WRiEPW0ZIUQN56UWYdRT4ZssZeX5ZA7qZZeF99DWHzVpPvF4O61UBr3FYKAnKtFj+pvZiijeus7RVHZaLXKcJpUJVS7udHXWI0hdvWk71mDYXuKWjN9Argu/W3k4lZ9jLx74ahs4JIE23ZQSTMn0Doo/cR7Vpl5aGkraXKx0Vpb90myuJL5QO0rjia7PXT8b7+RiLmryY/MAFtuxGx8VS7KXzOXu1JY70NdEhtVVT6Oil1rV1DpsPqHhZfk76eShdLWR+a27RIBi2NkRuIGvAQvgOmkLFyNWU5ok49bdmRFGxUeJ/vmNBjXH7IBNHrionyCaasWUKSGoj3cMUvrW93bIOmhYrSMlRqYQHuoLEyn/LqeipL88jJySGnsB6dQUd9RYHyf3aZVbOrb2+irKSC1rZ6irKzzc+X06JWDht9AV+Duo4CUa+4CqpQG3t6E7SVxuPinUZtQy6hAWGUNgjwbpYPXSsVJaXU1VZRVJAr11FYXGeWDwNNFYXkVbSgqrbQWkJTd2upUU1NWRG55vYListpNcuetrGU9LQofD18iEvNobCqGZPUgVHfRkWBmd7sMlpMEpJR8COLyABv/MKSZDqqmvVY+WFpUzLQXFdOnrm93Nw8GtSWhdhAY1k++ZUqmqos9JaiMlsuZeAbFExMQjAefkk0W2W9A6GtL4zwJTg1geheFl9tazX5Vv7WyHPTZNBSW55JuJ8n/hEp5OTmUa0S422kpaaMvFzRv1xKyhp6WN/0zeXKOIn6SkvI8HPqZvE10FxZbOZlHmVVTbLLqk5VSXZOLL6uHkQn51BQIeRHyKGWaisfu4+LkaayDCLCkmUvBKNRRaloL7+IkqJ8qpoNNJcmER6WSI3a5jFh1KnITYomLiocT7ewXsDXQFNxIr6BqSRH+V0AfPXqejLjY0iMDsHNOcIGfFsriAyIoqC1b9c/dW06URcDvup0Xu83EafKQGbdNoqo7gC+o5yA1atYtWoV67cFUdZsrt+opiAxkI2rlHtr1q4jq9YiHx1UJjjiGlFMTqSTXHaDY7jMo6okN/n/NavcSStvuqjVTFUej4O57o3OMTSbJIwaFclBDnhH59Auy5SEqjYdX2d/imtEuEMrKR6rzfW7kFRYJ6+XJr2WtAgP4uMT8HbZKN939stB1VJNpM8W+f/1q0KpNs/VpuJ4PL2jaGhKx8VCg0ck9S3KfO4L+DYUx7DN8qxLPC3d9inLGiC8VBorUnAzPxeRpygp1I1lhPv7kVecjvfGdTI967Z5klNuU/Blh24hICgGf8/NbHSKlvmRFbqViJQKdB1q8sNccAgvozDGRS6/dpUXuU02JYjUWkGQl4N8b8269QTHpRDsH0xFg6KEzQ/fiE9AHME+W9ngGEG9WAdMesozw9hspneTW6p1/ZQ6NBREuLF61SpWr9pIQHgebdY+S9RkBMhtCbnZGBhotfgKXtTnhOCyPYGWDomW2jyZjtykcDZvWMOqVevw8s/swT9VXrC1LrfIVFI91+GT0Jf3hp6q3BiczPTGltnkUVKXE+y4Wen/egdiMqqsbuqF4evx8o8n1G8rGxzCSAvbiLNvdg9Pi/LYLbgG5FJfX0yYnz+FdRYvIwM1+XE4W3mUZuWDpKkkzGWrmedbiUyttLZpk4kOugPfjg4DOb6LGTBuEbXNWrTqAkKcvSiosYWg5IVtIji+VF7vpI5aojYoMuPkFUJVi9Lnsqh1bA/JR92hoyItBI+QDJoztiu0rHImPrfGRouxnfyEAOtcdvDKsvZd6qgnbpvCt23ufpSrlPqljkqCzevC9rBUVJoOjB2RjL3uryz2KrXue937Kf6W2grxMPNq7abtZJQqa4BkMpIe4khIaCRebpvY6JJAZvg6/KKKrWcoUb4gfAMBMSXUlibj4x1BndaiHFBTlBDMFnPdboF55nNmB1J7EZ5rhWytYu1Gd9KKGqyKyO7AtyrZDceIUgqilTm03iGEqlYtdakeZr65klRUL5c16jWkBLsQn5pOhJcza8Q8WLeJyG7K5B4WX3Uarz02AefqIGbdPprobmtsbx7Z/7fNWzsv/rt5cUnAVwiJcHlOSUnB09OTiIgIvLy8yM7OviTQK8rvMGn4pNGnB7D9qGwtUc4zWDRjEOsWDMdz9YQe9xXgu5GP2pIvWPCMzdVU+jlQ6OVNifdGwu+9nwTnFPRSM8VvvIDTnf1IXO9BiY8DCSMGEzDbCb3WiLYmhoiHb8J/3Gvku3tR7PMm/n9+kszoCrkNU3EgkS8/TPRSL0p9vCl2XETYkNGkhtQhaVtpTHIh5tn7CZy6hlJfXxoqNejLMij2dqHY25si15WEPTGInIhCtLU5lAUswe/a64hZ4U1FfBZatZGy+bfg/rIjaqGJrU0lbe4gQl93k9srcV1L3JQxxG9LRjJJtBcHE/bQnwmcvJACDy+Kvd/A7/YXyU1QgKwAvtt+P53iFG/i571KbYWykUkGDaVb5pK82ZmUoY9bga/UWknxmjeIXbSOYi9vChyXEz54HIVxJWirMijxW4TfTX8hbqU3FYm56LUmWsPWke0h+OxC8tghBM3cotCuaaBi4wxCJr9Ovps3JV4exAy7C7d+Q62uzqqQdeRuF2WdSHz5BYLmuaMx6GhJ9yJh1BMEjFpA0XZvasvUGOqKKfd1pMjLm2LvDYQ/1J9U7yyrgsCyWEmaKgLWL2LciBGM6HaNHDEbz4y6C2RFlOsBfDt0FES44+Qd1uMQaKlf3VBGRFAIxeZDSG6EI17BMeQUFFOSn8h2Fx/ComNJysiltDSb8O2+BJtjmlur8wn28SAoMoXCkhJKi/NJiAkjJD4fjc5Ib+Brai4kOiKCtPxSSksLSQoPIzyh2Oq2LulVZET6EJylwqBpJjXcl/jsSnRmV3RNSzkRXm4ERadQWFxCSWkKge5B5Na0IUlq8iO8cNgeRGpOEaWlucQGBhKUWi7zSNK3U54bR0RcOkXFov1islKiiE4upEVjRN9aQ0F+PIGe/qTmllLZIOrsoLksi7wi8XwBCYEBBCWWojHqaa4rJD7El6DoTEpLS2loM9Bak09IYAQVKg0dkkRzeRqRMXFky/0tpSg7irCoNARIFvTmBrsjDlppZnqj/QIIzlBk3QJ8M8oryAhxJ6HMBsbUdRl4B2ZQU5/bA/iaGnOJjoohs0ChNz4oiIjkclkGm+oKiA30Jig2h7KychrbDOhb6igpLqSktJTiwkwi/ELJrVQpQKepgMhgH2IzRV2lZCSF4+fqYAW+uuZqCosK5XsFuWmEB0ZSVNuKrq1eHpcAt+0kZJVSWafCYJRoK8sgR+ZjIcnhIQTH5cvjbtQ2k5UQJceB601NZEUFk5xRSkl+BqG+PiRXajDqWsiICSGjxAbyKjLDiIrLpro0A3+PnsC3rTafiKBIipp1lCb2Ar6SRHFqGLHJBdQUJ+PpYgO++qYSwvy88A+PIDo6moTUrG6Kig6+DfhKHW0URudQY6whIySZeq2y2ZqKAxg58gkmzdwk7yM+HlvxTWqQX29XELSMUeMms3qzl3zPdfU4Ro9ZSHS+kugwasHtXPuP51i+yQNPx7cZ0u8Jnh88hGmvr8XTaxuvDh3Iy7OdadfZFAKWeW3McWbsiMms2OolP/vKy88z+o0gGrRtxDq9wkvDZpNU0YrJWM3muYOY9aYn1U0a6uNcWO8m6HFj+azxDBu3jNxmNXp1M8uGXseTw+ewzcWT7Rumct9ND/Hy+Km8vWYbnl7vMOiqfzDTI1+eb/m+r/PgHbczbPq7uHt54umymolDBjJhkb8cHtAb+BoytzJu1DRWbhP0bmXOgKcZvzjsgvhKTXsiy0YP582ljjLPnB2DZVfUuuxgxvS/haeHzcfJfTteHs4smjmUlyeukgG94MvmUX/k7w+/zLJ1DviHZdJmktg09i9MfjuSFqke1wn3cOXfn2DZBg88vTYy48lnGLI4UO6Prrkct7eG8dKkBTi4erHdw5X5o+7jrn4jiTAri13H/Z6/3jeQxau34ReaTrPeSF3MeiZOnMc6Ry88PTcz7YlHmbsmVgalLfkxuHu6yf3YtnYho54fi3dqhbwHGLK2MuTFJ5i3SpGNt+c+z303/F52dRZ9yXAYbbZwGilLceale//K8Jlv477dC8ctcxhw3wh8zftDbdQKhj77ENOXe8ptbVw6lodv/A3PLoy7YP9oqAzhzdHjePtdZ/lZJ4cQOb5Sasxn05tzmfv2Nry8PNm8+g3GD59FaHaNvF54Tvh/3HL3i7wp+h6SSp7zcG66fQpJzYpVzqRKY/ZDVzN1SyllGb6MH/gSXmmVstKmKnoVw0aNYelyJ7lNP7e1ROZLSM1FbFsyjzlLt8jfb137JuOHTicovcoKuizy3h34Sm0VOL02k9lrA2nVG2mu82D03U/hkdRs7a/zhOsZ8bqI360hcNlkho9dJbfh4e5Lcm6ZDGhDZvyRfqPcqJdaiFw5mtvveIAFq93x8nJm8aRhDB6/mspmLR2SkfyAlUyevoDNLmKcNzDp8X685ZhCW0c9YWtmMWrscqV+D1/iMwQQLcVl2gDGTN0gf+/m6k9edSOmjjqWPvlH7h04j5g+coeYqhN4Y8pkXl0rxtKdVQumM27CUjLrWhEKzpVDruKux0exapMz/uE5ZGx4jocHLCW3zTwODTGMv+c6lvhUkxu0lGefmUpqk5oOfTtJXm8ydPR01m9UZNLPy5nUcglTTTKLZ0xl/hoPuc3Vi2Yybtxi0qoUpVJ34Bu79AGuuu0p3t7ogafTCkY8+RTPDXyZSa+uxtPLgQWjX+blaZtpbNeja2vgrUFXc/+T41m92UXmw5Zlo3nmhVnWOdUd+F5sjbXIgP3zvxvg2ce/7/G/ZOArGCjcmdPS0mT35ssBvaKsAL6fNnr1ALb7ajagzVqO09tjKYtcyI6ClT3uW4Dv7tZE6+JsGUiRJMigUcsWKGGlaXYYje+ADagswPfBuWaXHhOt0Rvwu3c8ZU3tCvB97F4StsSiN4qFT0vR7H8SPNmdto4SMoc+hveCKHTmQ1qHSUvd5lE4XPeqfJjoy9VZ0msxaHUyKJD0LZQsHEfUokDZWtmXq7MF+LZLDZSumETA5A20t5gPapIBVcg7+Nw9lSq9QQG+jz5EsluyfFgW4CBv2lOEz/ORNY8K8J1BbWMBGdOmkuabKW+AupZgop8aQFFuAZkjLcDXSEuqK4mvvklduVa2gEu6RorfnUnMm56otUK7eqGrs6m1CYPsXmtCl+aA9x1TqZIkWrK3EfbcKIqTa5FjgiUTTbEbCHzRFuNram22lU1YjdtN06kRgL8PV2cR82vQaMxxkAZq144laLyzVdNtGXthMWhprKWivJzyHlcVKo1FU9tT4DXlMfj4x1CrUTY7o66dkkRPnFzd8QpNkrXglvovBL4uhCYUoxbyIhkoiHTAwyuBOr0YMxMVyX44+GTLygAZ+G73JaPaAkgk2msFGA6jqEXdA/jqJWGl9CS2SI1BjqGV0KsK8HcNpMi8KWvq8wjyDKFQrUcyaSnLjMAvPI1ms6VPAb7epBTUYpDdTQ0UxPoSnliM2gx8nbxSadYLK7IJVUkSHm7R1EomVLXZhAfHUN6gMcd9SWibK4kLDiGrSqG/L1dnk16H0UyvrioFR4cYOd6oL1fn7sDXaKwk2tuPjLIWc/kOTAY1OdH+xKSXo5HaZeDr6peOSo7fMtFcFIeri1K/FfhWNaEpi2K7b5oMAiSphawwXyILtLQ124CvcEXODXQiuVRjo7cxBy/HAMrbhQxe6OosLAQGEYsrrAhGLSXJEUSnl6GWGknxcSc4vQ692dXcqGsktZvFV16TzNZ6k66V3LgIEvOq5QNjX67OwmJoHfe6bLzco+XEPFpVLckJsVQ162gpjsTDL50Wo4Tw1IgLCiajViNb2EsyYknOr5NBgYhX9/aKo1proL0muwfw1bdUkxASSnpFg3yo7g18m/NC8A9Iok5noK0itQfwlUwGNOp22traaFU1kRXtSVB8Dirz+ijLR0AUVa3KvLLMoYt9SlITAfMe5y/DHWlqN695Ji1qrQmDMZoZ9z3Cu/7F6Cw8VtezaeLTTF4cTGNHBwL4/u3xtylsF5ZDHTErB3HzFYPxbxJKEBM53gt48pmZ5LTaLFmCFkmqw3nIjSzwqUdrXstacrfy6BXPElAtYdAVsXnSAMYsDqPI4SUe77eQ9HbF48PQrqLNINYTCW1BIKMen8L2skYZ+L4z4g5mrgqX5VUytLFh8JX0f2EFebKHhw7/KTfw4DBXGiUJAXwfvukZnIoV645YS0qClvHoHROJNRjpDny1Ug3bBl7DksAGtLKSy0hL1noe+9NAQmt78ro5+11efOA5gvIVfmrb2mSZEMB37AP3scA9iXYRdy+ZaMwOZOJTQ9kUVyzLwpbh1/DM8HUUWS1cHRcA3+vvX0Se4HeHkVK/hdz31ykkSkaKk9Yz+unRBKbXy/uwJBnICV/J4Be7Ad+xV9L/eQs/OjBJlWwYdjfro5rRm/vVnLqMZ++cQFyDhFGrpt3sHWJUlbJp+gRe3yasuOm8dvOfmLwxHbXZ00OjSuO1h5QYXzHGvYHvkIceZ21QDnqThL69inVjnmXm8nCaOnJYdOcNDHs3yWzh70DbksVb/f/QJ/AtDFvAS89OJKFc8cTRtLZi7NCRF7yC1xdtpKhR2XMMraVsmzuZNzZEy/LiOf4PPPzEUrLNnkMmTQ6v9f8z74QqLrq1YQv5+5UjiNBI1Gb4WYGvUapg+cDbmbo6Fo28bncgGVpp1+opCF/DGwtXk1dnkc0KnF+bwqurwlB184BR+DGGW677E3++9VZu/cst3PfcNKLyVPLa9m3At0mVxJz+dzDdo0k+dxkNBnR6vVyuN/C95/5JpLQIWkyyBXP4oyNxy6uR59PqcU/jmtyKwTzOlZELePnJV33ihDYAACAASURBVEktT2fBC/czZZtiwTWJ+nU6DPXBDLruSt4MN/NTq0Vvzh3TVJLEguF3ce2Nf+bRSdvks5A8rzvaid84mdmrImxztC6ZhYNHsTK8TAa+q166kcHTnKgwK8PUDbHMHfQ07slKiEu5x2huvX4ayTqJom7At60hmXmD/skKzyzzWVGEoLSjEYB460zmvhtEs1bMRQldQxpLho9heWChzLPewPemh94iX16z9CRsGMnfrhyIT6OyZhUEvc3zz04hRVaSNrDkhT8zcp47leY5qW0q5t1RzzF7VaSsHOoOfAUP7JedB3YZuDwZuCzgK5ir1+tpbGzku5JZ9R4I8V7ePc2BFwDb94rX4L5yPKqUZRfcswDfD9ozL5jcwqLZ4LucwAeuw/mmG3C+9hp8nltLsxn4Oo9zs5ZRJzsQcNcoihvaZOAb+eKTZIeVWe+XLXiKoLGOqBpjiXj078QEKpuKpQ/GpLfZ/Nv+FFeKw3LvGF8Jk7adqrWj8fj79bjcdANOV91G5AL/7wa+bUVkzniW8BXRGM0HPdGmqcALv3ueIStPrwDfAQMoiDXH6EoSRa88Q+gMD9ltyAJ86yQNdd6LCZuzhjaVltbtEwl6JRCNVGIDvkY1lQ5TcLnySpxuvEGmVdArrqC5G2hp7gv4GtA3NZE+9GqcBJ+v/xNbfzOUCkmi3v8VAgbPorbKInS9Y3wN6KrLSB54tTJG11/F1v8bLYPmC4GvhEmnps71dXzvuU7h49U3Ejja4ULgKxnRtLXQ1Ngoy6KQR3E1NapQy2DUQo/yaapNw8MtlmqdwQzwbPdFBue4IFecHbeTUtkmHwYvAL7R7sTmNtrkJdYB77ACq1W2pSgKB69M2iUJAXxDAiKoFBZO86YkrOxRQQFK/d2SW+nUZQS7OePk4ooII+h+pVcLV1g1RSnhuAek0NauQavVUFuSjr+zD5nVzXJfBPCNDAimoMr26q+SRD/C4gtpMwNfZ7M3g6CnvSKF7cKiZzJSVxRLcEQKjVZX4w4kTRPp0cHE5dfIoOxC4GtCrWogIdAJV1dXXF2c2LYl0qzMuDDGtzvwNTRn4O8VQElTt4O7ZKQqM4zguBxUegX4esTZ4tHbyhJwdYyUAWF34GuUWkkL3E5KaRuGpkKCwtJQGU09gK+pvQjvrVsv5K+7Ozl1fQFfkYDKQFVmBJ4erri5uuLstJ3otFLU6lICXZ1IrrTR3jPGV8Jo0FORGoSrm6vMG2dHLxJyqxTX6gtifE3oNRrSQhxxkfnobI2t1apqSE6Mk12vK5O2E5ytWBEE8E0IiqNEraPDqKM0M46U/Do0Nem4OHmT06CVPXOay9Px9QihsF2NVt1KfkIwYcn5qNTK/YI4X4JjcmjS6dFVJuGwzZuCRuWeOGBudwmjVD509nS5F/Kjaa4iOjiYgmolSY5IplVTnEJsXA4tFmXhtxzGTI2xTHzgr8wJvFBBpS1czTN3PYZfno3Hop9RK0bz3KQNlLQpwPfBOVHWuZW2aQh39LMlNGpI2srAl14ns1cyNWO1D0/+4Xf84aprue6663pcG5OV9kwNUYy9+xZ+95vH8bWOsxG1qhnnMVfyp2uv5dqrr+JPv30Ot9IGGfi+O+URVvsXW+lxm3gtQ+cHWq2yRVte4IHBjrJiSADffz41kxwzEJLX+nxP+t/1NOvzDT2Ar7rKg0f+93/4w5960nvjzX/BIa0bf8SYtGYxr9+1XH/rs2wISKNBpZHXMQF8Jw0agHtSufy/aE+qS+fVYYOY65ouA5Kt425m3OKwHi7AvS2+t00Os/avNnwZ9904jiiTnjSPWbw8ZD6ZNZb11CRbWkcNGmW1TrlNvIahrwRY+WEo28IDv/k/ruzVr9vufQyfXBM6dRthi5/gmuuv49r/f0+/+vf3MH9LHM1VHjz6f//H2gRb33vH+PYGvt3pMKqb2Db5eaYsCaK+xp/nr/0jS6O711XN+meu7BP4NpSFM+mha7jhtiF4JuXT3KLFqKvD662h3HzFlVxzbc8xGvGWL82aDjwnXcXAmb49su8mr3qel2d5Uaevx3PO0wx5V0ne2R346ss28eSf78C9V54NSd+I//KR3PL7P17Q5rCF26lvt4yD8tnD4tuhId3jDf75yHhia1q/w+LbRMAbA7j5uj/y0KANFDSpZG8loQzsDXwfHb3eKhuqbD9GPTIMh5xq1Hkruee3v+XKq3vy5r4nhxBerCJ02Qj+fuMfueupVeQ1qVBrDZikOpxG3cF119/E0NkelDa3ousV9lMYsJh+/7iWq377EE45agyteSwf3Z9r/vCnHnNazPHpjvky8F0z+nZmr4m1niNMejXbFw5h7ppoWgyVbBj0V8Y5KB5/3YFvdfxiXuw/hKgSm5zIc6itkNUTn+DaP1zFtdf2XEumbFbOqr2B753Twq18ynQcx72PL5Bjr0V9TWluDB/yCglm4Pv2yHt4Y2uSzaVa24zPmyMZ/IoLVeoO7MC3p5wLHtovOw8uRwYuG/heTuXdn90hGfmoPZX9tZt6ANzvBr6bec/QKxZTMlIfvAifWweSG1UkWzhbXEb/YODb0pJEdL87CN/eM9mNLmoBW377PGUNFwJfyVBH0dsT8L57KhXiMKhXU7po7KUBX00p2XNeJPStUIwG2+JqyHbF964B5JZdDvCV0JWEET1qMgWRfkQ9dC8ZCU1IHaU24GvSUOU2m6BRi2isNVtbei0avS2+xpZQAq68geCJHvLGoc90xOdvk2Tg2xC2kMCB06gptxxiJVoynAl6TrH4Gpv98P/jLUTM85dBuj55LW7XTu4b+JraqXKZh8/tIyhMr5RBXf2GMX0CX0lTgfe7r/Dyiy/wwgu2a8ALE3G5SDZpbXUiQUGpNMlW/t6LhJ6azEict0XIAOuHAt9gv1DKVLZEY/rmMiICg8mube9h8dVpKwl3dyGu1MK/7nRJ6FuqiA/1wzcgmLCwMPMVgr+XB0EJJbIl44cA3/rSBELCkqlvtwEck7qB1MggEgprZStpb+Br0hQS4OhBbHqFrNjRV6fguC3q0oBva47sNl3U0E32TEbK00IITcij1XDpwFdkPq3NjyAiOo2MxBiiMitkq1N3i69JU4r/1q2kVPTFXxEX3NPiK5nUFKdF4usVQ6Vah2TUU5oSrgBfbQWhrk7EdxsrYWlO91FifCVjK7nxofj4JFAnMi7r28mLD78o8DVpSwnc6kx4fLE8rwz1OXi5RcqxtdqWWhn4CotvfaY/fgkibtCEur6AEK8w8lu0GNQNpCVEU1DTTE1uMhHhFvkIIzjAGxcnN/xCQ4lOLyIzJrSb/ITht90ZNw8fghOzyEuM6XEv2N8TJwc32bU5rbjnOijWc11LLfFRUbILtzgIa1ryiAqMpabdtn51X/d7/21qTWLmQ39j8nZbngDLM7qqLQy44xE8M22KRxE7HvLWMAZO20a55gcA36ZgBv7h/7E41KaQsrSrfBpoyHRm9NPP8dTd/VkTrcQqmtrimXzHnfR7bhPFkoSuKJhR/SZ+b+Db/5FJpArFhXndbU3dQr/7BrO9oqfFV93gx7O/+Q3LI3tari3len+K5EXh2xYxrP/d3HDnOBIaJQTwnfjcszjGlVjdYLXl8cwZ8hJv+eXKiq3vD3wNZPq9ytBBc0irtMxnI8WJWxj6rM3i2xv4GuvceOGGv7IlycYDS18kXSmbpr7Eo/fPJ81gxNRSwZbp42Tgq2r045n/+z/e6cYPk1TIm/dc3OJ7UeDbFMbQ667kjWCbLIhs1ssf/mOfwFfQJ/YcrxWvMPixO7jmzmmk1tfj/85oRs7YSk2rbf209EV89gV8m3OdGf3M83gEBjB90GS8cpV50AP41rnwws2345jSk0eSoZng1eMZOXkdFc19t9m9/e7AV3xvKg1laP/nWRZXh6ren/EPPoFznC00yOLqbEn4aKwLZsZzT/PQfY8yb0MULYbLAL7lmxh4Vz+8s2xzuTtt4m9jfTiznn+WR+5/kKnLg2gyW6yb8tyZ9HQ//nHPM6wJybd6B1nKS1IjfhNv4+573iJXXcja8U8ybnm8dU5ZnhOfwtW5N/AVnhbZAUsYPWoOseGOvHD/eCLMXhTdgW9t2gpeenQwoQU9+yBpStk49VnGLokwW7O779vK3z8I+A79B6+sswF1o7oB53kDGfuWL/U6O/DtPr72vy+UPTtPvpsnPxvwFYPxnr6avQ1ulwV896jEu3x7LfImPVWrhuE39m2amjowtWSR9PxtPxj4tnY0UPLqi7i9OIeaSoV5UkMumdMfx2d0oAzeLBbf0BVJ8kIrNReTOfU5wt4ORKfrQF8VTdSjD/YEvjfeQnq0zSJncXVWS23UOr+G/4AxlOYqm5zUVkPJygkEDF9Ls8F0GRZfAcpVVKycgH+/B/EcoliEewBfkbgn1ZWIgS+QGVigvGJJuA0XZ9JUohxyBfANv/VOshOUBCbGlHfZ+vtbyckRmSEbKFszGdc/jZSBb1u+H+FP/JNM/1zZYi3cIktWvYjr/UqMrzH+TbZdfQ8FBcJNs4bit4bj9PtxPYBv6Kve6LXifjPFbw4mcNYmWls7MKnSiX/6H30C3+8zsfW6EmL8IqhqE3xSU5lbRIM5iZNI/PH/sXce4FEdWb5/+2bf7tu3szszuztjezwzzhnbYILJEtFEE4zJOQeTwUQjBEII5ZxRQjmjnHNoSd2tlloJ5ZxzVqu7/++reztKYJMMll18X9Oh7q069au6V/d/T51z00JcoGvszSRZeWbhq68HuwBZMrE8HmICnWHp4I00rkBN+OYKsxHqaARDe2+kyO7Wk5je8JgMJkYqOcITVpbE86d6AZSHzCgfmBjZISo7D08tfIX5yE4Nx10rSyZONI8sRyNL1aN9YWfnjIiUHNajnBUCexNbRMqW8+XFOePWHXNEZJDHUWUh9J4ltLXUPb62XspEaqoe3/z8dHhaGcHJL0qxXFGQFoG7NhbwCU8D4UFifB/H40uELz8nHu4Wd2Bg5oqoNNZeVeFL4p+CrHRh7hzAPH6HzBviNQmVJfeRC19bH3bpoZCXAT9nc9j7xjBLbQVZsbhrYsgKX/LoIktdGDsEIVN2gZaV5A+zm2yMrzAnGe72prgbnMQIcG5aBOyNjNWEr/0dYwQnsiI8L9ET2tp6CCbe77wcRPk6QPeGHSN880mMr4czAqNSIeDEwsHEFK6+vvD1D4C7rQVsXb3gfc8J3kGxyFFZKSI/LnLGLHWW/y5/H7vUWf47ec+OVV/qzM9MQ2oGh13Kmp+HxBAP2Dt7IDmL7cePxfiq1iv/TFZ6WOyYjTdmb4OH4hwbCPdwDvLyQ3Fszgf45qQJErPY8y/3vinWan6Jk3rBzPmXLHV+XI9vdoY/DC7fgl8kWd4Zj1sL38DUNacQlMTWnc8Jhp5VBHMez4z1wKlNy3HC0BdJbqexaslm2ASlgsQFv/Pq2zjtReY7Bx63D+DTP2s+tfD96M9vYbNREPu3Iysetw4uwNwN15GaL1Tz+PIKYnF97muYtfF7hKTI7Q2Evg1ZHkqW4Fvhxu274OQIwE/1hk8I+/clz+8HvPLHf+B7H1b4rvzoVSw6aowcsmRWwIWH3n4sWLYFrhGsx/6pha8wH7G+d7D6i+m4ZBXC5BwgnjSj47PwzoePFr7k79H5uW/hq306ioRGJNbVwikW+Qme2LbwC2zQ8mbmW5K/IZa/N5kRvpkFsTjzye8wb7MeYmUrVKJcDuCjf/6XR8b4Pkr4phQk4PKsP2HKKi1EyuZZrMdpTPm3/8MIX+a8YW8ILQMPJvY6M9EfQZHsjUyy+ut//9Nr0A7k4b7lWSyasxC3XNhH95HzYXBQAKIT2LF4mPAlnmftXfOwQGM+Vh3VY3IpkGNDVfjmFUTizNx3sPLQbcTIkj4R0eoey0eo3UUsnaOJ646yVTF52QgNDkBkHEmKFQuLEydgInu8mrrwFSDO+Srmfr4UesFp4GaEYO+c93BQy4O5gZkf7YDFn/yRjfHlxsIrgDwyTQhyXru9VwPztmsjLuvxha8gNxhH53yIb0+bKY5lXooXHDwSmGsB36BY8Pj5KMjNgsWxRfhy/XmExYXirizhpDDJD3u/moa1l1zBzYuCzSUTRMn/RhZw4H54MiYv1UVyAQdulzdj6pw1sAtnb74xj2DzCkZmFnlc4kOEL0nYGuuFg+uXYt3SKVh40o05Hsk4qArfrJR72DPnM+y64sB48El5doQTApKy4KG1AzPmrIL1ffY8SELGPL2DkCZLVPcswvfo3D9g8vJTuJ/MzrkUTx0snjsDN+7GMyEM1OPLng/lf1PoO+XxpHPghQpfktm5PMsTdUlaCvFbHXcJHO8TKIu6oPhNvsSZiOSiPGUGSkXnyEW7lyHuLpkC83kLYbPhFAL3z39m4UuyRwoSAhF1fD4Mpi2E7aKFsJk5H3dP3USa7OKjoICLTIuTMPpiFmyXfoWguzFIMTsFq/kzYb1gIew2n4H714sUwldYkIaYg/Nw5/M5cDqmjYxkvlpyq7z0GMRrbYL+1AVse3M14LD9OGJDifgpeCLhS/jkhunD7PVP4OXOnjTVhW8B8rnpSNDdB4s5s2CzcCFsly6D61kTZMhOssKCVETsnQuDKXPhfFIPnMgQBG1+n+WxciO89m2A3l/WMMI3n5uJWK1dsJ4zGdakriWL4fbdPpjMYj2+wrRQ+H/zHgxnLITt6m3wPbgGOr9fxwhfJoOzixas5syG9YIF8LWNR6bTddgvnArL+Qths/EsfLdrPkfhq8zqTNpOiw+Ci5Ut7OzsYGdnA1tnH0QlsRcszyx8Tc3h6urA1m1jBRsHJ4QlsvHoY5NbCbKS4e9kAGMLYocd7Bw9GW8aye7o72gCR69w5DAxUsqTmzA3CW5mxjDxSnxq4UtitIk3LZ0IXVsb2Njawc7WFvb2xIuYqYxjzU1HoLMlTC1s4BoUD0FOGnzvGsDEkth6D4GedrihxXp8SQwgJ8YPZhZWTF8C47nqya0KhMhODoe7kzUsrWX9tbCET1QyI4Tlya0eV/gyMbg+drAl3uJc9qJHVfgyxwMnEd6OhjAl9hK+d70RmSr3xguQGeUNYzMr2Ds4IjiOg5RIb1hbWTI8HJ194OFozQhfkvWdLIt3t7wFM5ntbr6+cDKUZXXO4yMp9B7MLdm+Ozl7wdXWRiF8Sbba8HsWMDK3gYtfJLI5aQhy1ocRGXcHV/i6O0LvFuvxJYlhksO8YUOWoZOY3dQYxMbGIzUzB1xOCuLiYhEXnwzuQ0Qv6fPzFL4CbgYifN3gaE/mhx3s7dwQlZ4li03+8eRWivP1mFUl3IRAmB+bh3cma0JTUxMrNx2GUzBJsiNEvJchdq2dh6mz2LIFU+bjuIk7kmQXvU8ifNPirLDmi2lMVmJiS3a0B46v/gAfTWPrXr7uKEz8kkCyH1/YMB0rdl5FRAbJ1ZAFq3MrMWfhXrh7+UP/wEz8/TMNLFryNY7s2oYZ7656auH7+SQNfHd4DdNvjVlfQHPtbtgEsGELqjG+/IICkGzuh1Z+iE+ms/auWH8CFoEpILH0927uwoyF+xGXygUvNQinNs5h6tScOhcbztswSyKJx3fNrEn4duNaLF60AJrz5kBjwUL8YBuhuPH09MJXyCz1tru8BfNmTsbc+ZpYtGQJ9h/egZk/4vEl45DkZ44dX03C51/Kxn/DOTiEpKGAlwG3mzvxxYxZ0NDQxOatx7BlwRJG+JK/zaQ/W+e8jsmz2f32XziPNe88OrnVo4QviRVPuW+P3XNewWeyebb79Emsf///yoRvBmxOrsJnX51nYknTIl1xeP1clu+UOdis5YZEbgEEnETYX1qPSVNnM2WLlqzG0au2iMtgvfQPE74F+Vzc09uNT16Zgu+tSfwxe15XFb7kpl6yvwUOfzsPk2WM1h+8gci0ApC/F45XN+LzabOYNhcuXokjl60Rk84D4wF/91+x7DSbDJQI37++8ga+1NCApuY8zFm0BpdvOSOdL0C+gAsXnb1YMOVTzNHUxLr917Bj1p9Y4ZubDpsr27B4oQY052lg+cpdMPZJYG5uPO5SZ5LIMMpFB+sWfq44ltduuwI3chNKkAlH7T1YtkgDmvM18NWSLdBzj0FOThL0Dy9mOc+ej1WbT8M5guSDSIWz7kl8Ixt3Dc1ZWLXrB3iFsYm5+GmRMDw8F3/7lPRTE0uWb8R5fXdwyPLpRwhfYW4i9A+vxntvzINhEBvLTOamqvAlfx8jnbWxYcV8zJjDzrnd50wQzykAPy0KJsc08cZnbJuLl32Lc3puihwjzyJ8v1vyOjSWrMPXq1kWGtM/xIFb3oqQJCp8lddCj/obQ3+njH5sDrxQ4UsMKRTyUZnpNG7Js1zsyt+J6CUe4kcany9AbkYquMlJ4KZlI5/HAT+DeH3ykZedAV6mcokYiQfmp2Yijzx2JT8XuRnpEKhk/czLSgefI0/wU4ACPoetl9SdlIpclW0ZewQ88FJTwE1OZrIek8fz8NPI9yTw0nMgyOYgN5uviCcV8jLZsows5OcJkZeVAl6GSnuCHKYupi9JKeCTfZnkQSTBDh/8jAzkyZJckPZZe2XJqZi6OYoYLpLwhZ+arhIznAdBZjqT0VrOkuEhs5ebLGtP5eKUCFqmL8TefCEjlhnbUtIgyM4CL1XZnjCXsE2S8UpGLpcHfkYm8mQPlyePgGL3TYcgJwu8FOW+JH6Pn86OIZ+bxywtzU1nOXLTcpDH5aiPi4qN8r487rtqVmd2n3zwuVzm0Vzk8Vy8XDahESkjCY5y+XxmvpDvglySZEO56oCIUh5fZfu8XHB5bPywPMY3JjVDpW4Sv6Q8EQn4POTK+JD6yR9nYgPz4uWy2wpJwh2ynbId1m5SD1vGJTYL89VsJdvk5fLBZ/ojRB6fB57K3CFeeR5pQ86S2V/ZPo8va19eXkBiV/mMbXJGCnt5fCaulctVrS8PfB5bH0keR1jymTplS2FJv3LZ+tg+yxNlKfulZm9eLniy+uV9FZBEPYx9QuQLctUYCYVk7NT7kJer7B+XxyZpUbDMz2PiYoktCntl9vP4AqZ/qmNAxl4+VnxBHjNGcnsJWz6PLSf7CnJzmXlDlgST9vIVHAXM8a3KUSDIVRuX/LxshLnZwEDPDKEqiaPIkksHo3tIfMhzc+V9Yu3gK5a3yn+Xvyvnh3JOysvGzQ8y/rl88GTzkz8mTv5JPb7ydsg5NikpiXmlECEtD0EQ5iGHk64oS05OV2QwJ/vmZqciLUu59JAI81SV5xmTC/qMDCLM2XM9JyOdiU+Ut8vPSlPWnZrFMCJJyTjpKcjMJuKBZSLgZzE5A/i5+cjjZTL7JCenIisrGxnpHPDIcnZhPnI4achR+fvA4yQjI0t57iePSkqTxdzKY3z9Utl+k/6nc7iKNokdWZlpTLyjfM7wVOxNSWPtZY5/XhbSM7OZ8zOxIztDXmcqsmXHuzzGV9cpEInJbHlquvKmFmHCzUwBR+Vvlfpv+eBx0pDKUa44Icl90lIyFY+sycvNQbqsP8nJSQh204Gq4BzLgxkHhluqYhxS0nIU5yPiNU5LSWbK0jJykJPFQRZXeczmKPqZhEwuHznpyYpHxZHH0MnnAjlOMzMywZefZ4VCcDkZTF/l5z5uppxZEtKzo3BREeNLRH0m0jJz2ISV+XnISpdvm6Z2w4nwSJXZy8wPkoRQdrwzfefwFH1j5yA5d2cjPSWD+ZvD/sb+DcjMyABPYW8+uFnK4yBV5kkk26sySkpOAUfRZv44HimycSdzLTlNhQfzd4KLjBS2XymZPOamWqZs7pKM5cnM8ZmM9IxsxY0ukqE+LZP0SclI3gcheVpDWia4sr+V5FySlaEyzuls7DnZnoyV3LY0cvzLbgCQrMbseSEFGVnK4zE/j4t02fmCOW5kjweUt53HU55PklPSmWOSGQehEDmZqchSMJKf84Tg53CQlsphQoYU9ZCxSefIEkUWoID0IVN5zkhXOfeQa04y5xm2KerHLWlTPi7kkX6pHJVzFo8D0mf5M9jJ34HMzCzGDtJ/EuO794oj4lLZ4yA5JRU8JrkeazvZRn5OkdtN3+XjSt/pXPjpOfDChS87KEKUcoNRm6KHuiRt1CVdk720UJd8E5UZtijKU96FowP50wNJGf04o7zcVHjaWsA/msNcLP5cvOTCVzW51c/VFq33x8f818CHJOiyvHOHeWb6nTt3oG/mjhSVDLwvs4/kgi3Sw4x5jijxUL5MWyZC23Lhq5rc6ue0Wy58VZNbPc/2SAx8dhaHeSY1qTdfkAHbC2ux7OvvFMuzn2d7z7MuQXaqIjM+CXXJCLyJqf/5X7goS3T2PNuiddFzw+POAbnwVU1u9bj70u3oPKNz4PHmwEsSvqxxhfl8POBHoyzHH2XZPijjBqGYJLISKr1rdCAfbyApp5/gRB7fkxAMD+/7Khc8P7HPU1zMU+H7/JnSuf3LZJod6w0nZx+kMI/0+GXa+EuaO7824css99Q+hR9u3oGpqSnu6O3Dks9XQdculMlk/ktiP9aWRPvj2HVSi7HbxPQyvp2tgbU7TZjHTo3dln6nx/aLmgNU+NK59qLm2m+5nZcqfH/L4Gnff50nOH5WKiLCo8GRPYuSjvOvc5zpuNJxfdI5kBrqBL079kgRyLMg/7wMc1IiYG1shGDZo6ee1N7H2T4j2gt6107h1KlTOH32PKwekVX/cep60dsEWJxm7Ca2XzbyUC63f4obni/adtrez3vsvCy+ZIm+u7k2nP3ZRFYvyw7a7q9zftFxZceVCl/6R44uUaRzgM4BOgfoHKBzgM4BOgfoHKBzgM4BOgd+1XPgf4nFYtAXZUDnAJ0DdA7QOUDnAJ0DdA7QOUDnAJ0DdA7QOfBrnQP/C/QfJUAJUAKUACVACVAClAAlQAlQApQAJfArJjBhha9UWFHongAAIABJREFUKkVv/wBqGprQ3NbxKx4i2jVKgBKgBCgBSoASoAQoAUqAEqAEKIFnITAhha8UQFNrO6JTOHALiEBIbDKkEhEk/fUY7SzEaEcexF3FkAy1AlLJs/Ch+1IClAAlQAlQApQAJUAJUAKUACVACUxwAhNS+BJPb0BkAhy978PBKxixCdEYLvfFYJEDBgusMCi0xGCBNYZKnDFSG8UK4Ak+UNR8SoASoAQoAUqAEqAEKAFKgBKgBCiBpyPwwoVvb28vKisrIZE8vSc2MYPLCF4iet38glGXZYkBgeEjXkYYKr4LcV8NAOIrpv8oAUqAEqAEKAFKgBKgBCgBSoASoAR+SwReuPDNzc2FsbExMjIyMDIy8lSsvUNi4OwbAr/gQBSk2KMwxQ4t2WaM8O3M1kNV/HWUx2qBfJYLYiJ+pSOdT9ReZ5ozXFduRlFJyxPt91Mbj7ZXoklYiO72QbVNJaJedFVWYKDv6bioVfaivkiG0NJVgdqeZpQ1F6FtApn+ohCptjMq6oGhx2xcyMhEv2rBC/0sgrvnm1gbdB/tL7TdJ29MikbYOn8MjdBUABIU5N3EYtuzEAwPP3llL3mPrg4uzjqvhHlhEZ7XYTI81IKy1gLkN7GvorYadIvEz9DTUcSEz8UHtvZoeIZanm5XKQb6axR9KWxtfm6clPZIUVPliW0OuxHS1PxMt0K7uopQ1dODZ6GttEv9U0rsErxpaY168rNkCM2dynNs+/OaPOpN0m+UACVACVAClMCvnsALF75E7KalpeHOnTtISkrCwMDAE0MuraxFbm426rlOaMkxQ2SYBxIjXdHLN0TivVO4c34DLK5tRWn0DwrhSwTwcPX9J4r5/bmEb7PdSlz7/R/hct4ZPT3K7vdXR8N7xRJw4qqUP/7CP0kHhbjluR4nk02w+vobsJw4pr8Usr8E4StFByISLsCSn/sSxffj4VcXvsMorfCDXoIvakdHH6+CX9BWPb35cEowQ1xDI56X9SXC25hvOgcbA07iSNB32O61B7c46egYeVo51oM0zi1cSUpG1wtm19kYCePQU9gafAZHgs/gTOBNeDf1PmcrRtHQlADzBCcIVE++T9GKj8/b+OZ+KH6O1Iqqwlc6mI+bHutxMsUUq7XfhBU9xz7FaNFdKAFKgBKgBCgB4IULXwJdJBIhOzub8fwmJCQ8hfiVYrRdgIE8Y/TlGqEhyxzCJDs0ZRrA9c5uhDscQ1P6LfTyDNSE70CeCSSDj++9/TmFr/a7X8J6yiwk+RYqvBoTV/gewM0iLxy6PgfuzfSw+jECvwTh+2P2/dLK1IXvL826l28PEb5f2Z9FLvGAS0dQUGSJLZ6XwGtXuaP28s38SQukqISZ7afYHpWiENzSXj5iGp+38P1JUx57gxcpfHU89uNmsTcOac+FBz3HPvYY0Q0pAUqAEqAEKAFVAi9F+BIDyIOR+Xw+I36J5/eJlj1LJRiuDlUTtX25hiiJ1oLZ1c0IsT2K0hgttXL5kmdRC0e1/7LPg2iINIXnl9NhM2MabHe4gVxujRW+fRXxCF8zg9nG5ovvUSvbW4p65P1wCI4zpsFeYyHyhGyBFMVIXrOU2f7e7tOoJmHGAIjHV3+ZDlK0NsJs2TnUVXUzv48VvlLUInmrrL2p+5Bf1MhsN9xYiCSds+Da6sJj+VzYfDkTAbdi0FEchbAdi5n2HDUNoSrxJQ1B8JL3b8VxFAnqn2mZH2MIiZqWVMHBXwduDQE4rL0aQSruDykEuGa9GLNsFmOB83mE1NWzywIlQ8gtMMRqG7aMlDvI2JB683nfY1NMMjLSDzL7LnL9AUlt7ajKPcV8n2ezG+YFgkd6K4fbvbBZVvdiN13wevsgEQ8iNHEP9kQ5oky2xrh3IA7nXI/Bu5ywaIPf/W+Y+ufabMMdHgdy6RASuxU3k71wI2gjU77c2wu1gw1wjtrBfF9gfRXyWdVYF4qLQTeRXuuL3daLmPLFnlpIaWIXFT9M+HY1umKjzN4l9wxRODQkx6v23t4djiOy7S7xhBBLgf6+KliFfQe3PF9c9dnCtDffaRdsi5RuocTY5TgY7ADd8K0gPLi9vYiLWYUziUnoRi+S0y9iW1QUBJzD7P7Wh+BaXQGRrHXpQCmsotmxIGN1NjMct4PO4n51E7NFWvxK7Ax0hknUDixyvY7UDnYSVJRbYZ3M3q88bNhlm8wefUjl/IDl9osx22YZDt73URxLpLi9VJexg7S1JFgXt+3eky11BqrKnXAswAQPRkTo6eMxdrikWWGP+9fMPlu8nFEhs5u8iasNFXVtjrSCXfAOfBubrbKF/KMYlfWe2COz92YB2zdSKh0qgun9vZhnsxhz7Nbicmo6c34gZZlJ67EtwBUWMTux0OUqrCJ3YrWPJ1S1SW72caz09kF5TynMw07Aq6JSxlaKmiZf7FMwslcwkg6VwCr0AObbLMZs21X4PjlFMR/lFpN3NeGLUZSW38VmtzPIbu2EBNnQct4F90rlQZkatwyHo2NAgj6I2LT3ZefwKq+TSJSte+dm7MM6/0C0YhgFJfY4HuYIbs5FhuNcm83QyUpj9mfskAyCK9THKlkflnvdg5ycFDVwDT6AuTaL8dW9fYhsZS2XogA6NkuZ+raFmiC/lyxi52D/tb9iR2KuavfUPkv6M/G92zpmv/mOe2AlFEIeLBIRvQ4nQ61x9f4mLLlnDK+YVdgZGq62lD894Wvsi4hCcWMsrgVrIbldvtB/ALxCS8UxuMrHT3HulPRn47L7BqbNeQ47YSrIU7SpKnwLBVrYERMDvuwYWuhyEVGNTajK+17GbTsMcrMVYxgUtRHaKb6wiTuJhTJ2ZzJlfzgAqHl8JVWw89OBW2MADt9Yg+Ani9hRY0i/UAKUACVACVACv2UCL034EujE63v79m2kp6dj9EmWLkrFGCrzVBO23dw7sL25Dfu+1cC+bzVxdt8ytXK58CVZnsf+a3LYCL0vv4GQzy7uE5ebIzdljPCVSlHtcgcVLeSCsRlZOz/Gzfnm6EIHik0PwnmXGXq6RBAPD6EsMBD9KEfqpnlwuEZiE4HeygpUcziMd5cIX8O1jmgpS0TQ0n/gnm48SPfHCt9mi++QW0327kGJ4Q4YzjyLNgCDVTkI0vgXmGzVR2f7CIYLDGD8r/+M65M3QJjdCAmS4fXHP+GeURbTtphnDcPXNJHNKIJ+VDqdgvmsQ6jtlF82Mpux21ZY44t//h1+9zv119sf70Ki6tW8cpeHfhI3uGKSwfvYnMoKMOkAD5HllegTSVHHP4SPbHcgRnYhLG53gYbu57glZC+ZOcnf4r+1X8MhTi2kw6UwDfgaf772Cj70iQTQhxTeVSywuQBhh1yaKk0YrdTDf12XXxx2IyJ2Jz6zuMGIobaWFJxw2QCn8nKIpJW4Yf0hDqcKmJ3rhA6429AHEPFQcRfrLbfCt64OJAWbg/treMtqJ4LruiHpCsLC63/FH3Sn40pOEcjNjVu2s/CBTyxTT3W5C1aavIq/mV5n2pSKmuAVswuf2WmjsncAY4WvqPw6/qq7BRHM1OtEUPh6fGhxB0rZyvZNgkTs0Z0Kg0L2dgYnNwhlEjF6u4tx1v41vGKwFxEtbFlhwQ+YZrIV/pVslGaQ72v4k9583BaUKkD5+cpjfLsQErkZr2m/hu1pVcwNgJDEo5jtqI+2oRGIhltg6TcLC/3NUSq7YeDo8Tr+bLQOzg/YuxURgW/iD7rTcDm7UFG/qPgUPrY4geQecry0ws1nLt61tkEduaFUn4zAUh66RoHhkXyctpqF79Mz0AcpCI//0p0ER9mNkJz03Xj9xisK4UuE3lK7c0yMb2d3EnYZvYrP3W6hoGsIEiRg262puJhVwMi6Kv4J/LvWazCpZM3K557Fx7dfxSS/eIWd8g8DwyHYabwCzuWsSEzKuseMgaSvELf8tuMEh4MBCdDbl4ljVprQzuGCBGlE3/8Q/6HzOeSiRVxrgVe0lsFLpqkkvcnYb/kFzhRK0N2Zh4uuyhjfgcLjeM1oCezLyFENiDu94VgCSAcewChgB46mp6JXDAwM8XDCai6ucLLG3exhhK/dGfAGByAeboFv1EmcTktkvKaExx69mTAuUt4CC/d/HYu8fdGCOrgEb8LaEHJMAV09TcgsT2UEfVLUPFmM7yCy+TcwXfdVLI4g5zERhGXGWGZxCPEN7MFbwz+GWc43wOsn49wI67sfYKYrEb/N8I3ag3WB/hgSS9A30In0knh0oQS6dnOwKoGdi7WNheA3sjHPIX5/w5/05uAmrwhiqXoiQklHPHY4bIRuKTlHiFFV44nNVhvhWlHJLBt383wN/224EjZF7GCPll3BWwa7EC1bry3uCsaiG3+HfjlQV+2HnXeVMb7cjF141/YQohrY84mo1Q4BVYCkMxkHnDZBu5hMRglqG/yxzWo9HEvLmBsXqsKXmac3X8Ou9GpIR6pgF7IBr157Be97BZMzNrKFOlhsdQpZLaxqtXN/DX/SXQrDvHyQ21ziNjvM1J2BqznsMaQqfJkBov9RApQAJUAJUAKUwDMTeCnCl3h3s7KyoK+vz8T5PpG3l3SZEb7e44RtW+ZtOOjsQKbPuXFlCuFbxwoUOTnpMBeBc95FuHeZ/CfF+1iPr2S4Dx2FHNRxOKi2P4Ab/+871A43I+/WVrjt00FZdq0idk/ak4fYDTPgfj0EDcXNaglQ5MK3BwOo87kKq9eWICW/aZzwJYb0lmYx7dV4acPs73vxQCZ8gzcvRnpUCVOvRDSIhPVvwedSMIh0I//yjr8Ox+P+6B9tAPfkInjdvM/UQ2yvjXGE1/QFiEv6eVwHUkkLvMM3YUEguehT/ycZjcW2mx9Dt1DubWHLM+K/wTIPW5RJACJ8P7SzVnjNCgXXMMdgL+LFbGRkQ7UvdjkfRLhM6MlbkIqrYe72JXamcpFVx744JTb46s4SWDHO8h6k825gu5cenEM2QOOuHZRSEIwwIftxHnjjsNNBmFQ8YMbTyftTHIxLUrCNCHgD021MFPtmJ63DPyysGFFHhO83Zt/AvUXu9wJ6GkOwzXoXHJqa1YRvn7gC+o6fYn+6ir3F5tDQWQgH5e5M9yTdflhjMAU3c4vQ0D/ACHJSQITvRYd5uJKTqfBCDveVw8B7K77PTkePFAj2/Rs0nG3UPKFjhe+nNkZg1xMAbdXuWGO6D/59vWhrd8UWi80IrFMuOSWC84ijuvCdZmPCzE1ik3S0GFdMX8WZLGW/MgvvYJrWQnjLbnYQT3VuPRdZNRmwvb8He6ND0CTm4qThx9jDkVvCiillcivWw6kqfA9ZE/EghDzVVUT4GmwI9ESNWIhrNjOxIZVIbfYfI8C95z5U+Pa3OGGdxVKYCh+gdWhYthpiFCXltjjmfQreD2R9qUmFbeQh7A11Q/UwK3w/t9BHsUobrm4fYXdyIUQQo7LQAIstLyBLKlUTvkOjRbhs+jr2pxXJzZO9i1Fe5YTvvI7Bo0TeZgYcY45gV5AjKsYsBiDCd47xJEyzWwYN++VY5n4Ednm56BgZYW4EPFL4DpfBLOBrbI7wRW6zehKpscJ3ic0pZPey49/fycVF523QKxZiaDQPF60+wQ9clXEWXsd8g00Ia6rG3dBN2BzigqzGJkU4h3QwB2ftZ2BbcjaK2tsVqwqYzksliEs9hJnm0/CezWEElfDQQpYdSHuRkn0ZB++bIrZK1lZlOK55b8eZtFT0iYF7Xu9glbcr5AtHiAg3c5sFLT4RxqMozPoOHxrpgPhUVYWvRMTHCevZuJ035laTtB8ZvOs4FKyPqEpZm1VRuOm3EyeTE9A9CowVvpPtTRTHUEmBHhYZ7UD4IJvDork+HAdd9sC/vl52M+1DbAzyUUsgFhX1LdYHuqFGou7xHTNB6FdKgBKgBCgBSoASeEoCL1z4Dg4OIjU1lRG9ycnJT7bEWd5JqYR5Pq9czMrfH0f4itr48lqYd3GFFWzf/gS8h6ywUxW+UmkV8m5owXfdSgSdOomwTbNY4QsROnmhSD69FsafrEW8lTUKk8ohwgAaQm0QdXAJjD7dgiR7D1QXNjEXPXLhSy4lpf0VyDq+FDfnHkBxhjK5lRRNKLO1RsCSufAj7e1cjjt/3KYQvvcProMgncn5CSJ8E7d/iCCzZIUAqNLXZIRvX2c2wlZMhsWy/Qg/dVLtJeDKZbISibQ7D57mZjAzU385u0Wj7jHzkEkHBbh2byGOclQXnbJtiNvdoHlL6dGTt1zJO4bZzjfB72eF7+c+IfIiEOG7wO4iisVswp6upigc9Tw/TvhKehOww3QSZrpfwdlw9VeozFtNPM+XXDTwX1cXwFkmwoBuCIqD8b3DV9gSfgVngg9B02SzQvg6+03BOY5yGSIRvhqe3orlkMSzqCp8NzkeQKxiGSXxHCVhj+O3uFFSryZ8e3uisF7/PczxULeV2B6lsI3FIEU7QhPPY7PLN9jmrw0bfjo6pVJG+F5xWwajfKX4kw7Vwi5kF/YmRqN9lBW+K/0DmdUCcqhjhe9ULy95kZrwbay8jdV2exDHOiWZbR4mfDU8vRQ8JJ3+mPvDX7DQS71f5yKvIbljGLVNqTDw3oUt90/jbNgFbLFfwQpfGY9rJQpTGC/ijwnfoyoCnOylEL59KdhvOQVnCpWewx8TvqPiRvjGn8Jax404EHobDrk56JEMIi37NGaZfoXdwep9Mc9NQotM+M5yc1fcpCE2NBecxAL7S+B2N8E78giOJacwQlrV4zvY6YO5Wq/DfIzeglSEbP55zDJZgp1B6m2a8uPQJFf4MkTqS53FaK4Pwh6HbbAqq8Doj3h8WzGE4lIvXA/eiEkGu6GX7Y3k+gZGiI4VvsvddFDXz64OURW+g+0umKP9Fpb7qNt5Jc4I2V3DKKsMhE7IFnxmsBO6We6Ir63FMPrAFVjiTMDXmGt9DEY59yHo6FC7MdjRmgHrxNNYZTwXB+LT0Cyqh3vUNsy03oJjoeptOZYUYUgCuHu/jy1hEcol2AD4WYexyc8KD3rLYOKxDsd47E0QVeE72mqLJcaL4Ku818KQlYqa4Ru3GzOtNuJIiHqb9kVC9IvHC98ZPr6yUQGI8F1mfwZ8WdhCb2syznqfUQhfR69PsT82DmyQC7sbL+MwFnmZonCQCl8FSPqBEqAEKAFKgBJ4jgReuPAtLCyEpaUlOBwOk+Tq6foihbirCCRZlVz0kvefEr6D+WaQjqjnKpX0+cP1jQ+Rmqh6CcJapSp8RwU3YfHWcnBiq5iLw+6gIzLhy24rHaxHRbAfOKcWwnz5cdTILqSkfWUodrFHxFYNuJ13RFcPG+NLljrLfWjDNdHwm/IfMF+wFzYrFjNZncXlLjD9tw8R6cwuhRvIsITlm3ueXPiOFCJh/Uy46qsL/kdxl/aVIOyeG9zc1F+B99PQNMbb9Mg6xGUw9V6JLXHjYyklw5HYqPMx9IvVxyEnaTOWuFvhwejTC1+piIuz5lOwk6Nc2qlu4wjKyxxxxO8KbnmvxeZoNpGOpDcdRx3WYG9sAiPeBjs5+N5l/1ML3w0Wm+DdolwX3lLjhc2Oe+HT1KYufEUcHDH4EIdyVFSlusHq36QiNLRw4J9yEdPMvoJlzQgjfC85akCLm6XwSA/0FOOm1zfQ5uWgX/Jswre19S42WW7F/Xrlw5daOgKxxVzd46smfEcSsfHaK7iSr4wtlXdEOlIP16iDWO9tDeHgEKTiQQSG72CFr4iDo4Yf4VCOUvVLUYLrZh8+cqnzI4XvqACXbGZgS4ZyHKSogJHjzId6fBn7JAOoaEiFb+JxvGO4FK6Nw+AW3MAm12vgdY5RnLIOkaXOY4UvWZ7/g8tMaKX44krwNYTVsu57VeE7NBKHjddeh5Zw7KqLUeSX3MYm5wvgtD+8TTlL8q4ufIlzlI+LHltwjpcPkTQfZ8ynQ4tfrthFvtRZTlg6Uo3IXB/c8F+NlYFWKB0AHlv4Dodj461PYVQy/twpb1A6UovYPH8YBH2NRT76EMqmkXToAcJy7HDk3krsS4xAuzygXL4jhlCafRR/v/E9uJJWBCceweZAN7QOPzxb9cOEb2dbIk57bIZDug22e+oiv49tRFX4ioeCsNFAAw4V8rMxa4BU0oHw1OPY7OeI+sGH5+Ae6/F9EuHr4PERNt8PUMRDk1b9QpZgW3ggmsRU+CqmAf1ACVAClAAlQAk8RwIvXPj29vaitrb2yWJ6H9JhImCHyn2eSPiONJDYPqUHiK22H/zvJsNm41nUylZFitO0kZWjHuMrijyIO5M0ISwGJO1pCJr3nmKpc1VqPJor2Su6Pv99MJ17BBWlecgN5WKIuAaGu1GovQkux+3Q0Tde+JK40r706zD613+H9qeLWOHLuQPtf/tPJGcC0r5SZHy3HLf+ZcMTC99+iNDkcQqG772PlAy2x9LuXCTZRWG4f9zV5kNIP81PIjwQaOFTky9hKouvlHSlI6C8BD2jgwgP0cQM19NIk+kicY0ZJpt+CYsH3cxNBbLU+XE9vhJpOs7YbYZlAfEuDyM3dTdeMZgLd9YZDklfBi4nJDOd6GzPxhWvrbAqEqJ3IAcXbGfhCrcYkrZIrLWdgROCdkDSjwzuZXyhvfyphe8qkzcx3d+HaZN4X+9GfouvQ+6hbkiiJnz7MAxu4rf4u8lX8JPdKJH0JuF0LImnHEZBmR32eOggt70bxItqI2A3krQEYYn5ShjWssL3nP3f8ZHzTRR3sx58AfcUNNxOIblthJntZKnz03p8BwbKccn+c+yNC0WzbLp4BX+Gv4+J8VUVviSmMT1yAT6x26XwXEu6I3A4KhPSwUqYBa/C2qggtI4Afc3OWHRrKiN8mzGMkKCpeNvkOyTJwrfzeafwwc2/PrHwrcUIYiK/wiu6OxElu8dSUnADM/T+JhO+vUjPvYPtPpaMN3OwzQceslhYcYMzPtZbCrsmKTpbk3DCZQ4OpKQwXj5IBsAtD0Z4OTvBHiZ8ycDnpO3Bx4aLsCvaAZXk7gPYpfTyGN9hDCIlQhOfOexTeNPFdXYwrpCiuz0DZ13nYE9SHLOkFtJh5FUGIbi0lokp13dcjh0JXKZOdeE7iopKkihtO9xraiGBCFauRGD5MwJL3OCC93VfZWN8h8sQVpyN5gEREzqSnnoAS3zMUfwEwncYAwi5r4GZbueRIdPvkq4AXEriQzpSg9gHmajpYcV7QdZhzLt3G/xWLpwFhZBISdKwOjiG7sD2uFC0iAS4ZnEQMTINTVY4BAYtxmeeoRiCGPWVblhjOxuX8ti4damoESHCCOQ2syeRhwlfyUgr3CN3Y4bZLOxNScQwaXTMUmcpBnAvUAMLfXQhkM05UaUe3OokaKz2xga7WTjPZ09i0tEWRBSEI6eRDdN4FuFr5/46/mGxGwGyBHHiKj1MNteESxUbxkBjfJmhov9RApQAJUAJUALPlcALF77P03px9wMMFtqqiV9VD7DysxGGSt0hFT/cgyLtb4bg2irc+q8/Mq/bRyMYM7sy78Fzw26UlLYyz//NvzSb3ebzvSjxPA+9v5xlsrC2J1rD5Ys/MWV6f1uDIvbaDLV3d8H4b3+Ezp/+DNtVV1EnE3otThtgvsVV4fGVMynRngfdL1YjJ5GNVGu2XcG29+4iJN25BtvPT4BEIg/W8BF+YivyOWxDZKlzyv6pCLVOUyx1rjFdAddzwUwCHlJ/q9tWti7Sx4/Xg8+pVsSJytt/3u/iKgP8+dY7zOsd2+OKhDgY7UVk8k5F2Ws3VymSAREbctJ2YlYAOwbke3G+DlY4aeGBbKlzd3MczvheRXRrG4gXT8tpMW7nkuhn9p8wZa2i7rfNTiGtu5sRnEb3JmNT6D1UyaZBe60pNEzXMhmQ6wt18L7+B3j19hTsDTDBBb8LsKosY2J83YPm4IpK4qaYkE+w3M8fcq9ZjeA8PrK1Z+L1SIwvWersELtDYcMCHx3FRfWoqBfmPotxLStbkaiIk7hase27FhfAGyTLSkdRVumK3e7nwZElxHHxeZfZ7tWbc3E1r5DJ6kxifMlS5wtBJzDDbBJT/rHVGgQrHZ0IC/oQG4JD1DLcBgd+gi2h4ehAFyJid2O+n78cH9prvbHJ+hiC+1kh3dwQjb12bNtkPC/x1WN8Y0ImYbmvkoe8opDIZYp+vW91S5Gwq7MhFNscpjJlUx1t4ZNyAUfjIhQ8ff2VbW1J8ISpy3SsiGTv2pQWGmGt8xUIR0bQ1ZOG065b4F4mz68OREdvxo4QX0V25Kjg9xU2rIu0xB1XeYzvEARCI3zrdRvVfQMYHe2Hsbuc7wIYkCx2sn/ttT5YazuFqefV25OxLzpG8ciduLCpWOSlXPYu36eh1R0bDNbCvKBQcUz2dBXgmucG2BSXsDGvUjEyM/cr7PvMy1O+Ozrqg7DJ/gum7BXdSdgRESnLxNyMu+4zsDxCxqPIGAtN2WOMjM0bFltwr1TJo70zAfvN2fJJHncRGfQ+VsmWvRfwL2Oa0Tv4i867+NL+IjJkTs/UuK/wxV1nNGIQvDw9fOOlj4YBdrlHfxcfWu77YPyAfQzb6Eg7HIMXKfrwoY25IkM3EeXzTdi2P7c4rriZkZm8Aa/cIu1Owmp/a5TIcuyNSuKwRUfZlxVRSQoe5ENjiSE+M/qIaet1/cW4IUswRsp8AqZgT1S0YlzYHQfBLbyDZSb7EdzQqLjl2VAbhINuh5lkcEQKS4dJhvaNij5MD0pUtNtUaobpJh8zZX/VX4CrmRzFcRsQ+Cm2h7PjQrI5awYGKvYrLTLBOudLEAyxJ5vetjRc9r/E2EFug5Clzhs9rmKL8wxFuxYqy94zEtdgkr2jWgywonL6gRKgBCgBSoASoASeisCEFr4kydVohxBDD1yYZ/oqha6hQgwPCs0xXBn4RM/vfSqSdCdKAIBc+KrG+P6cYOTCVzXG9+dsj9Td2hqMvY6b4FWpoq4evMkvAAAgAElEQVR/7kafQ/1ScRVM3WZCI+Lxlv0/hyZpFZTAQwk8LMb3oRvSHykBSoASoAQoAUrguRGY2MJXhkEy0AhRQwqGK/wwVOKEwWJHRgwPV92HqJUL6cj4x948N4K0IkpAhcCvTfiS5x+X1CahpIf1+JFns7oFb8EmH2MUPWayMxU8L/QjWRngVyOPJe9FvtAYS02/gYfSmftC7aGNUQJyAlT4yknQd0qAEqAEKAFK4MUR+FUIXwaXVMwkriIiWNJfD8lgM6SiPmDM8yBfHFra0m+RwK9O+EqGISxxxTn/ndjqvQ9bvL/Gandz5DS3qD+K5hc42ANdApiHbJXZvRVLnU/CKZerWKr6CzSZmvQbIUCF729koGk3KQFKgBKgBH5RBH49wvcXhZUa81slMDrah7a+dgxJ2IRGPzcHqUSErv4W9IyIFDGMz7tNsXgQbb11qOliX82DD4+Vf97tPo/6BgeUdtf1dUH0gsbledhO6/j1Eujrb0T70NDPnmfh10uQ9owSoAQoAUqAEnhyAlT4PjkzugclQAlQApQAJUAJUAKUACVACVAClMAEIkCF7wQaLGoqJUAJUAKUACVACVAClAAlQAlQApTAkxOgwvfJmdE9KAFKgBKgBCgBSoASoAQoAUqAEqAEJhCBCSt8JRIJGprbkJYjQF4xebot/UcJUAKUACVACVAClAAlQAlQApQAJUAJjCcwIYWvVCrFg8oauAdFwtH7PnzDYiEdHWKe6TtSH4OR2nCMNCRA3FMBqWR0fK/pL5QAJUAJUAKUACVACVAClAAlQAlQAr8ZAhNS+La0d8LFPwwOXsFw9A5Geko4BvPNMSAwHPMywtADV4h7ygApFcC/mVlNO0oJUAKUACVACVAClAAlQAlQApSACoEJKXzD4tMY0XvXOxj3Q3xQy7FEX67RGNGrFMGDBdYYbeUCUrFK1+lHSoASoAQoAUqAEqAEKAFKgBKgBCiB3wKBCSl8Q+NS4RUcgcQYP5Sl2yAl2gXl6daM8K1J1EaY3VH4mR9EdcJ1hRgm4lfcU/5bGFO1PrY/SIKV3kVcuHAB1284o7hHrRjZXpeYsosXbiOUVw+xVL2cfqMEKAFKgBKgBCgBSoASoAQoAUpgohOYkMK3q6cXLXXF6My1RifPBGkxLggN8UQX1wD3bY7ASmsrou4eR0OqjkL4kmXQQyUuv6klz0MtJQj1soJfWALi4+NhdVAD64/ZokQmfuvCLuOOeyJTFmh2AcuX7IJP6dBEn9PUfkqAEqAEKAFKgBKgBCgBSoASoATUCExI4QupFKLmTIWoJcuc23JMUJeuD6fbu5DqeQZ9fANFuWrsr6S3Ug3Ar/mLVCLGqEgEicyL25x6Dcu+XINoWRJsiWgQI7LV3+LWZBye+T5O+o9xCf+aAdG+UQKUACVACVAClAAlQAlQApTAb4LABBW+YgxVBqgJWyJ0uYEXcPvsN3DV34M077Nq5XLxO9KYPG5gewqDELR0EswnfQD9P61EdnkrGD04OoDeumiELpwH80kfw3yaBsKtEjAwCkgH29CUZw23tz5gyxZ/hwcV3YBUguH6HKSe3QyrTz6B+aT3YLZMB/UtfZBgBP11YQj4dDKzj9PmYyh7MAQpBtFT6ox7b7J1eZ63RXvHQ5JxiXpQXVyM4jGvkpIa9D1kc/WOivAg5DS+XrIHadXqJYAE/VXh2D9/Om5G9I4tpN8pAUqAEqAEKAFKgBKgBCgBSoASmNAEJq7wLfNUE7a9PH2EOxzD9wdW4PbZ9XDT361WrhC+tVHjBqw9MQBN3eTnXlQabMD1d6+hBRIM5AfCe+1ihNhnsvuIutFZWYSejiG0OO/BjU9XgM/pYMqk3QJUCgcgGWoE78IGhJrFo28IkKIVvBPz4LLXAR29QsSunApX40Jmn8GmJrRXVkA0kADP//kPBPu2Mb93Fxehq6uLbVPlf0lHBq7v2IEdY1779uqCy5qhsjX5OIq2Ch5CfO7Bzc0IZ3ftwN0YVY93H3LDSZkD7lz5Dmf1gzEkdwGPqYl+pQQoAUqAEqAEKAFKgBKgBCgBSmCiEpi4wrfCb5ywbcu8DQedHcj0OTeuTCF8GxLGjdVoTwsKLE8j/NRJhG2ZB61/OoDq0W6U2R+Hyz49tLeOqO0j7eUhTPMtuFjXqP1OvgxVuMNl0ttw332SqY/UGbx5Dqzn70JZaTlSd82C1epDSHDIgDyaVtrHRfDk/4Td1qvgRhRCNK7Wp/1hFE3FqXC3M4eZmRmsDK5B29AOxa3y+rqR4W3BlFmb6uHS92fgmyu3Sr4NfacEKAFKgBKgBCgBSoASoAQoAUpgYhOYoMJXAlFD0jhx+zjCV9xVrDZiUmQhfJYm3DddRWFmJqrvHsP13x1E1XArhHpb4H7CHt2MN1i5m6Q5Gh6fvI7QSOVv8k8DPF3YfjILKT6ZqM1UvhqFJRgcGkV/dSFqgi7A5JX3YbtiFzgRRRjFCHqKsiG02A+ztz6B3TcXUV7Oen/l9ZJ3SUs09s+ehVmz1F8LNI4iqUV1y4d/bi9JwuntGnCIqRu3gai3CV4XZmP22bhxZfQHSoASoAQoAUqAEqAEKAFKgBKgBCYygYkpfIkI7K3GYL6pmvj9KeE7KLQAJOre29H4U9B7ZxNK6iXMOLb7Hsb13x1ANXpQ7nwKzptvoa1lWG2MpchD5Bfv4K7Z+McjDXX6wv1TDWSntavto/ZFKoGktxmCK0tgt98AbfJNpRKIa9MRuv5zeBhlQMKapLKrFOLRUYyOe4nxOE8hGu5pht7BOTAPkWW3UqmZfMw0WYpJ+/zH/Eq/UgKUACVACVAClAAlQAlQApQAJTCxCUxY4Ssd7cdITQQG8owV4rcjSw/+FgchuH9J8Zt8ifNAvilG2/njRkucZQCrLyYh3puPhlRfhKz8Alr/tB8k/9NQeQqitk3HvR980cjnoyEjFgWhwWhqBjrDr8Jm0j8Q4cpnyurDrZCW2A7pSD+E2ivguOko8mPZssoIS6R4F0HanYds5wDUcnLQkJmEjDO7EGwYjp7aOETr32fbiPbE/S27kBRZRpJXP8O/UZSnB8DsogMSeTzweDzcO7EQi3ecQkYNiT0uhNHc8/CUlcXf1cGyRTNwO7b/Gdqku1IClAAlQAlQApQAJUAJUAKUACXwyyMwYYUvQSkZaMRwubea+FUIXYGhQvwO5ptjpC4WkDw8erYx+BZCjh5GyBVb1Kb4IPSIOxRO2MYsJGmdY8u/10JBdqNiFEUCN/b3o4cRahKIgV7WmzzaUYV8y8uKsmiLFEU8b3uiNSJOHkHIke+QaBGMLpnObPQ5y25/5Byy7nMx9HBTFW0/1oeRDqT7WeD0oUM4dOgQLp33R63KjpK2FOjIyo4duo24kmaMczKrbE8/UgKUACVACVAClAAlQAlQApQAJTARCUxo4UtcopLBJozURo5b9iwXwINFDhC1ZEIq6puI40NtpgQoAUqAEqAEKAFKgBKgBCgBSoASeEYCE1v4yjovFQ9C3F8PUVMqhiv9MVTujeGqYIy2ciEZbHukp/cZ2dHdKQFKgBKgBCgBSoASoAQoAUqAEqAEJgCBX4XwnQCcqYmUACVACVAClAAlQAlQApQAJUAJUAIviQAVvi8JPG2WEqAEKAFKgBKgBCgBSoASoAQoAUrgxRCgwvfFcKatUAKUACVACVAClAAlQAlQApQAJUAJvCQCVPi+JPC0WUqAEqAEKAFKgBKgBCgBSoASoAQogRdDgArfF8OZtkIJUAKUACVACVAClAAlQAlQApQAJfCSCExY4SsSjaK4vBp+4XGIT89m8UnFgGSUzeJM3qX0qbQvaV7RZikBSoASoAQoAUqAEqAEKAFKgBL4xRCYkMJXNDoKTm4BnHxD4OAVjKCIaIi7yyGqj8dwhQ+GyjyYxxqJmjOYxxxJxcO/GODUEEqAEqAEKAFKgBKgBCgBSoASoAQogRdLYEIK35LyaoXodfIJRn66NwbyTDEgMBz3Giy0g6gxGdKR7hdLlrZGCVAClAAlQAlQApQAJUAJUAKUACXwiyAwIYWvX1g84+l19glGSowbajIt0cM3Gid6FUI43wwjNeGAZOSFQe/hBSLmhhVauoeeqc1i88NI9xfgRVjeEnoDfpcC0PdMFtOdH0VA6H0SR69FogNAU24QdLQtUdI1+KjN6e+UACVACVAClAAlQAlQApQAJfCcCExI4ZuQwUVQRAzj6SWiNyjYG7mJDozwFYZdgf75Dbh8ZDXyQy4pxXCeMUStsljg5wTvx6ppjdCD/dL9qGp5ehkpRRXCNN6Az60YPJt8VloqRTtKzE7C9u03YfTWmzCfNhuCfLa80mQZdGbfRqdy82f+JB3ph+DKYhgvP4YyYatKfQOo9b4O52NmGOh7EbJepemX9DHh2id4d6EVGgCURelj5dK9SG/qfUnW0GYpAUqAEqAEKAFKgBKgBCiB3w6BCSl8yfBIeiuZ5c3E05uXZI/79z3RlmUAT6N9cNXfjaLIH9CZfUcpfAWGGMy3AMTPS0L++CR5HsL3x1t48tLRjiqk7JsCp2PGaG1j9xd1tkJoq4fGLuDnEL6S4T5kf/cZrv+//wunMx7o7ZcnHOtH5d2TsNh8E/29VPg++WjSPSgBSoASoAQoAUqAEqAEKAFK4HEJTEzhK5VgpCFBTdR2841QlaQL2xvbkeB2Cm2c22rl8mXPo52F49lIROir4KMsLBQl5JVSDhGz1Sj6yvmo4FdhqCKNLQtNQkttJ+TyDSD75qFCtm9ZZhVGAYwTvuIBdBZwUCrbrjQ2Hl0qYcdStKIuPIxpoya/CiLWAHTkxqGhtBViDKNLkIQHghb0FCbJbMlAV69SyEsHWtGQmcCUPYiIRF1RGeqy+ejrJsm9BlB1ZzWc9lmj9RFORnXhO4r+SgEqolgmFUkPoEwR1oEGma2V2UIMylbrSsRNqJX9XltUDzFJsk2E78UVcFy3HtbvaiIquljGf6zwlWK4vQo1cSyDkpBcDMi2HG4sRFVeBYYq0tl+x6SirbEHww0CGYdo1OfXM9zZXaQYahCiXD6eycXPaan4COrzU5AgaEZTUTJCQkIQHpKGqi7W0oGuSvDS+GjtJTMAkEolqOAnoKCinbGNenxlA0rfKAFKgBKgBCgBSoASoAQogRdMYIIKXzGGyn3VhG0vTx8Rjsdw4eAK3D73Ddz096iVy4XvSH3COMR92R6IOHESkVdvIlHnHFzmrECSvwDD6EaJ/jYYTl+BRGNDJOpcgf/Xq3DvlCN6iJdSKkZHuiOCD+9H+KkfkKhzE0km1qitGyN8R4fQEmOOoIMHEXmJtHETsSfXIUjrHprqByFFPQrv7IPHhnNMWbKlN1pk6jRt11vMUudBtCBn32Rcn7YNiQb6jJ3u0xfD24Ltj7i3CaU2x+G+8zBitG4i8eZ1BO1dClPNLSjmN0PSFQfvT19HUvwjVC/UPb6i1goUe5giSZfYexqu09eCk0RuCLSgzOE8XFedZm01c0ZtWQvEqEae9k54bznP/J5iE4jOniGZ8F2H+8a+yLm+Ebe//BZl5WQI1IUvEci1oTZI0tNBos55uLw7ExHefEZsN/qeg4XmMsSTfmtfgu/6FXDbfBihV64wbUUc+RZOqy6huqaHGdvRkiBEnTiGsMvE9gtwX7wGUS5ZKsJdNgUkIlTnBMPw2jVcU3vdhleUAD2ymw/yCUNuTngemY4/T9kEQ0N9aGufxaYZi7HPMJLZpCLHDFvmbkO0kLVDIhqCyfb3cdIkiYmbpsJXTpK+UwKUACVACVAClAAlQAlQAi+WwMQVvmWeasK2P9cAwrDL0P9+A3zNDkAQfFGtXCF8a6PUCEvRCM6BuYj3K8MwI3SG0BZ0FPazzqCmkxW+BpO+QUEV8eqJ0JFkD+fZuyB80ALxSAXits6Gv2EEBvpZL5+kvwZ9XerCd7g9BiHLliLBJxfDslW9w3VZiPhmBaIcMjHYHgan//49IiNY1+lwRweGh1lP7ljhq/XxYVQ0kLJB1LuehdFHJ9EACTp4zvBetg7ZcRWMp5U8wqnK6zxsvmKFr7jKEbavaiC/Qq37al9UPb6S/m70tbVjVEw2GUDR1fW49503urtTETDtbfj69DP7inp6MNTXB3GrH+z/4z+QEM/aPdTaimGRSCF8Q6zT0NeSibAFr8JyqSPaxwhf6agIA421GJKPgf23MJqqCxIVTISv+ZfrkPegh0lQ1hhmALs3P0OoNxuz3VcaC5/li5ER9QBitIC/5wOEORZgkGE9jI6YqzB/cwfKZcu7FZ0mNy5qhUiIiECEyisyIg784gYMMX1XbA2F8P1gH5LqyVgNQeh5CTMmfQc+ACp8lazoJ0qAEqAEKAFKgBKgBCgBSuCXRGDiCt/KwHHCti3zNhx0diDT59y4MoXwbUxR4y+usofF7/8VOn9+BXqvyV5/+U/ceX86coWs8DXaYqZY2twv8IfHjI3ILmjAcJEJHKdqIi9/jEIas9S5N0sHjrPXoLhEqmhbOtgOwaVNcL/gga7+KiQs/CNuvv4JAu7EqSWyGit8b+wNhbyWrhgdmL62C6XSUdT5noLLN2dRVy8vlaAj2xWua7YyHl9W+K5CUb3ChHEfVIUvKWwO1oL9p68yXHT/8Dpc97miS9IAzq7PceO/X4HTiQCw8heQSsoQ/eW/QueN6Qi3S1csLWaXOq8DEb4jkGC4wBymf/wb/OzTx8X49uaHI2DRa+w4/Pe/w+D9H9AoE76Wew0hGmUXmHemO8N12bcoKGxi+iBqKkLMkW1ICS3ASL0XrH//f3Dzf1TH8w+4+cdXkPGMuc3kwvf9XYGK+dCUYICZ/9iBGCp8x80n+gMlQAlQApQAJUAJUAKUACXwSyEwQYWvFKMtWRgQqD/C6KeFrxEkfTVq7MU1drB76xPkcMeLV8iWOhttt1TsoyZ8i43hOHkB8oXj91WN8e3N0cXd2V+juEQZGSwdaEPuxY1wv+gJ+ROPOlP1Yf/O33Hrg9XgZdUyAnec8D3ALqslBqkJX7/TcFl/FrV18jbEaM+6C+dVrPCVIBP+b7yKMLcyhWhTdEr2QSF8pb2ocDkDy/9ZgeycasaOWvO9jPCVhyWLq+7i7ntvQu/deYj340FEmpWOoilMG3Zvvw6djzai8EG7msdXnsKq2mwZTL+ch+DjB2AmS27V+8AW9n+YjHDLJBBf6kjkUXXhe8AYYlXhu3ITCouaGctFzUWIPbaDFb4NXrD5/e+RnMJ64Mf2Ue27eBDZXpcw66238JbK6+23puDwrUA0yWKX5fvIhe8He+/Lf4Kq8K3kWmLr/K2IzOtiyulSZwUm+oESoAQoAUqAEqAEKAFKgBJ4qQQmpvAlWZ0HGjFYZK/m2f0p4TtU6s7E5aoSlyIPEfM+QZBpNPpl7ktpXynqCsm6WJnH9xHCd3QoEyGa0xHhkKpI8CRuykV7h/pS56G2eAQvnIvYe1kYkmWIGiyKQsjGrxHvIcDwYB0aStm4UGkDB2HrZ8HXOhsSKfBYwpcsdc5xgofmauQkVkEsIRp0ECU222A8jV3qTPpcavw1nBccgZBfiRGZLhQPtaOVn88sC5YL347+ZvAvrIXrORd09wGER9zaaazHd7gFLZXsA4+k3VXIPL4Erpc80dtajYZS9tFNkqpY+Cz6AkEeFQ8VvqLeIsSunQy9v/wZOt/cYLI6t7vtgvmSE6huAqSDdeAd/eKphK8IxYj78nW4a/mhm0UK6UAVKvmsSFYd+yf9/FPCt6U0EgeWLoR9xAMmmdVIbQb2LHiXxvg+KWi6PSVACVAClAAlQAlQApQAJfCcCUxY4SuVjEDUlIbBfDOF+O3m6oMbeAHVidqK3+RLnAcLbSDuq34ovtZoM/iu14TP4fOI+v48orSNkZtO1gT/uPCFZBRNoYYI3LkB/sfYfWNM7NDQqC58paIhNATqwm/nZgQeZ7cL27oREfah6OwiwvIB0q99x7Z99BD8D2uhSNj2+B5fEn3cWY9c7e24t3ETws+dR/TF84g8tw3mC5XCVzzUgELD8/Ddugn3T7N2RF/8/+ydB3RU17mob95NcnPzkntzb8qLk7gktuMSO3ac2I4ruGFsiA0YYwOmGIzBDYwrbvTeO0K9gSTUkKgSEuq99957Gc2oTJ8531vnzGhUHUooxt5a6zAzp+zy7RFL3/n/vc96so4m0KsftLiVqY/GoDX4vDSJo4ttPE5MfdImvto6snd+YWvrkvcIfeNDMuOqMKqLiF+2SNl/auF8jryzgYqqnlHFF6uJTnmu9J/+l5XP2cRXm+1P0JTH8H/zY04v30DsojEXJb6yz/ekeRM65QF859vHc+UWUqNHH/tRvxBfs/Nc4mvobsDni5lMnTqDxR99xNoN25n8dyG+X4NT7BYEBAFBQBAQBAQBQUAQEASuGIFrVnxlQpKpB2P9abR5O0aIbr/wyq+y9Jo78+SJqKOClcx61CXp1MTF2bbsBvujccxo64tpKGlyXGfpbactu4iePnvo1qxFU57juLa+whYNNanqac4vQ2+yp0Gb+ugqyXKcV5dSiLY/91dePqoyyX4smbaadiVqK1eqKU2lvU5+fJKJnrJMastUjraYu+poTC5RUoPlnbL8tqTb+lCbGE919MAc3/6LrHoNnfmpo7ZD35BPbXa90nerVkVHXortvOwG+prKaS1tVY7p6vr7m0hzSb0jetxbFm8vN4X2hi4lYo3VQk91IZ1NmiEp1v3tqM2vxWqRkCxGNKX2Mcgox9BZTn1ajTJX2NheRVNZA5Jkm79s7m6ltaAYrR2gZNTSVVGCprPPNv9ZstJbmeHoY01mtf3xVP0ULvbVRFt5NumlnY4CjOoGslNLsI26ld6OWrKSY4mNjSW9rJOGknQqG9TI3wJ1TTppeU1Kn3SqevLzyug2jkyTdxQu3ggCgoAgIAgIAoKAICAICAKCwCUhcE2Lr0JAsmDqzEZXsGcU+d2GvtwHS588r3d06b0kFL+JhVgN1Pq8i9f0z2lq7l/w6pvYUNEmQUAQEAQEAUFAEBAEBAFBQBAQBC4vgWtffO185Mf3WNQlmJpjMTZGKWnQ1t5aJOt3I6Jmai0hff868iLTaSsqoiFtJx53PkOMf/YlinZe3i+iKF0QEAQEAUFAEBAEBAFBQBAQBASBy0XgWyO+lwvQtVRub2EkccvmEzL/dUIXvkXS6eprqfmirYKAICAICAKCgCAgCAgCgoAgIAhcFgJCfC8LVlGoICAICAKCgCAgCAgCgoAgIAgIAoLAN4WAEN9vykiIdggCgoAgIAgIAoKAICAICAKCgCAgCFwWAkJ8LwtWUaggIAgIAoKAICAICAKCgCAgCAgCgsA3hcA1K77yo20MBiNdmh56evu+KTxFOwQBQUAQEAQEAUFAEBAEBAFBQBAQBL5hBK5Z8e1Ua0hIz+HQ0dOcOJuI/LxYq74DS28tlp5qLL31SEbN1z679xs2DqI5goAgIAgIAoKAICAICAKCgCAgCAgCl4nANSm+Wp2eE2eTcPMPw8XvKKfORGCsj0BfcRhdiQu64oPoStwwVB3B1JKE1dh1mfCJYgUBQUAQEAQEAUFAEBAEBAFBQBAQBL7pBK64+Pb19dHQ0ICcqnyxP8lZ+bjapdcr8CjVKc5oc7ehzd06csvfiaHSH6u2Gbj4Oi+2reI6QUAQEAQEAUFAEBAEBAFBQBAQBASBq0vgiotvSkoKmzZtIj8//6Ll1yfkFK7+R/EODCU/zoXq5H10ZW1XpLcvZwvdWZvpztyM/L5fhvWlnkgW3dWlfV61S1hNRsx6vW0zGLDafb1y/UOsfGgH6vMq53xPkuszYDaaRoyHZDZhMZnPt6BvxnmSBaPZgMliVjarcrujjvX7bmLS0TBUl7mVtZWevOK6gDOdnZe5plGKlyzozQbHZrRYhtzqqS4/yEuubxGrHv0b1KfL4N29j/FlWjraUYr/l3aNMi7/UnniYkFAEBAEBAFBQBAQBAQBQeACCFxx8TUYDERERLBhwwYyMzMxGo0X0FzbqbnFFSQkJ1KT4U1L+m7Cw/xIiPSkN2crSf4fsnbpZNYsnULRiS8c4isLsLEh4hsd9ZXMetRlp4j7YB6ej43B7YkxeL80g+yEBoxmuBzia+lpIXHeHay4ayK5iXUMBOJ7KN81nx0zt2Exy/p4bfxYu/x5bMUfWXRqOdN9vyJLnuZNKz4hL/N5QiLdl7kbV0d8Lag1FaSlfc6fDrzA024v8JTbeCb6reZ4RSV6e5/PJb56Qwk7Qt7BtbjYcc3F4eqhvDaVxv6KAWtXAI+tuJW3Tq1gus+XyrhcXNniKkFAEBAEBAFBQBAQBAQBQeDCCVxx8ZWbKMtvVFQUO3bsIDU1Vfl8YU2XsHQVos3bTm/ONmqS95EW5UZr6ha8N79O6L5F1MeuQZO5eYj4avN2Ihkud8zvwnoy+OyeND9CXnmRKN94tPbgtFnTQUNCFD26yyi+bz/Ixut/zYHJW2jT90d4r13xHbtiAhtyDvKB/yYKegcTvvzvr4b4GrRl7AtdwPTg9ST19PdRQ1r+dibvmsX28jpl57nEt//Kf/XVShpvLv81O6oHSpLFd8yK59mQ68wHfhuv+LgMtES8EwQEAUFAEBAEBAFBQBD4LhK4KuIrg5YjvfHx8ezatYu0tDRMJtP585esGOpODpHanuytlJ9ZxZ7l0znp8g41Z1cNOd6f8mxqzxxRj7Y5mujZMwl8bSaJx8uVqGdvXSQJK3fTWGdP+pQkivcvJe1YIXJLW4I/I2TVCeqTPQmfZbs2eFfMkLIldRax7y5Qyg188xNyYiro18oKp7c4u9OHpPXvEviROypjI2kLHuHo7gR0XxMEHxrx1dJ4dBfh8+S6ZxGx8pgjmilRTNLs15R6I/cE0J/ZatAkcta+Pz44F7MZlIjvh1MIXLoY97vvx313sr0Pw3LxxBsAACAASURBVMXXTFdWGFHv2PoaOMOVDvuZqngXTjpH0Xlsua2vb6+hLL8Jddwu2+eZ75LinzEQRbQaaDvr4uAW+HkIl8pPrcYoZq58A+dyD74IcqLcHnVMTVnMtoxMez1qouOXMSdwEa8f+Qy3wlxkX8zP+oQv4uKHpJLnZXzAioRENOgpKvXiw5BFynWfnQ6jccho2z4MFV8JlTqd7cds1yw44kSRcpqRypogNiYcpaRol70dyxztUE6x9JFWsEM5JrdzXUEmgVHL8K2oH1arnoKS3cz0+IIElWbYMQ1nI17hph3bqAL6xfdsw3G+OrJQKXvRaWfyVLY4uNnUQ1jiKo5UVmKwl6RuC+Nj+7lvnfClTv7S2H8kmgmPWcVcmWPwJ7gUFNLcEsHnx1/jjuX/jwc9FvF+lCt5XTqsxmhmrpiPc4UnXwQdcIxLf1niVRAQBAQBQUAQEAQEAUFAELicBK6a+Mqdys7OVlKeZQE2D/qD+pwdlucyVvgNEVs5uuu5aQ6Lpj/Je7OeYeV7Lww53i++xobIIcVbSSDswQeIcEtBVVlJ8aEgVFYrXfn78Hn0VYrz7DIhWYmbdSvBW84qAle+6i+s+K/f4rXUi6bKSjpS3XD70504r0lSyrfWxxI2dRqnAzNQVZZRGbQFr2dnkZ/doMy7TH3tx6z50zhi/eJR1bVjrHXH9bY/kZ5hGdK+wR8Gi6+uJJn8k6doLqmkvfgEgY/cz2nPdAwUE/Pc/XitPKv0pybyLI1VtVhIIfyvd3P8QJKyvzTgKB06vV18p3HaI55qtzdY8+vrSU6Vax0qvmZVMxXB7lTmV9JZGc+Jv/4Cz0/DlbmgjV5vsu331+G3M4nOwiTil7zI9ht/z465u1FVllLqs4yDjy+gosimyt3HPsX1haUUZcplJRH53G04LzoyUn5N3cS5f8hDt9zCLYO2W295kKW7I+jst7PBkNDTruqgx9RNZ283Jvv86MCA3zvm+LaU++NWXkClqpKY/N286vwGIY2NaIqX8vutC4mxR02tPdFM23wjXxb0oOnM53jhCTLaqqlUxbFk7yN8kpwyos2DxVeymsnM3s/xRvmaDDZ7PMrj/gG0oSMtayUPbrqNl0+foFJVxonMFUw4+BHJbbYVyFPjZ/KYx1x8KuVrq/EPf5jrN9zDhykFQ3orWVScjP+M904H02IcuXiboc2Th1dM5pjGJr7jd97MfS7rSFFVU9mawvbw15gW5kenwYzR0MFG34E5vpbaHTy0dx6+NXIbctgfNJnHvFxpkicM9Bay8dhUng1yp7Sjisr2fJKrzlLYoaFOHc705b/my9xqarvb0Sqp8vZxMfcMGZchnREfBAFBQBAQBAQBQUAQEAQEgctE4KqIr9VqpaioiPXr13PixIkLT3VWxPfwCLHtSNmAy9pZpAR8NOKYQ3zr5Xm+Az+WmoMcvPl2UhO6MZsGpPN8xHf1TxfTMFAUHV6vsvZ/3qPe2ku1+1LC1vnS1dKFrqsLXWMO8Qtnc8IlGbma1Jm/wO0VF/oftGSp2ofLrdMpaxlU4LC3g8VXPmQ19KFXd6HrbKN49Tz8PgxE0xaB7+2/JjxYjVFncixuZKnzxOm635BwthuTPGHY/mOL+E4jwjsdI00kTf4NW2/9lHqDesQcX8lswNht609P4Fx2PbCeNkAW3+1PfuZYOKojaheuf3yWrAr5KPSWRBM05XlSYyqwWMuJfOq3JETbuXR10Ze7A6cbXqR4tBBqf0P/xdfB4isXZTZ1o9Zp6OpMZaXfe2wuK8JAHZtc72NNXiMSEtU5H3Pz2g9Js9dtsejp1muU65IS3uHlkMNDxl8+bbD4yp8lyYzWYLumo2Q5N679lCy7+D65bzGpPbZYd68qjU/cZyrt0EsxzF33ZzYU2vgp5VDNcqd7R4qvoRnvk/OYc+YYbaMkTdjm1t7Evlqb+L6wfQq+ne32HoGq4QhT98zjUJdqiPj2SQ3sdruDzwttbZdZqVr9eGbNeHzajRSW7mWq18dkdQyPMsNoqc6OCsUbQUAQEAQEAUFAEBAEBAFB4CoQuOLiK6c45+TkKCs7Hz9+HL1+0Ao45wtASXU+MUJuz0d8TW3pQ2qRaCL17WfY//cnCP5yP2VJJciBs/MR3zVjdjP4z35L/Jes/tk4CsprSf94Itv/+Fc8nh2P13MD2xnfDOSFklPnXYfPZ8foX2fa0uyB+80TyC8bNYyptHlAfM1oG0rI/GQmbs8/gddzz+J0x72K+HbTRfG6ubg/fjdOk5dTGJeJpkuLRAsZ7z2L00OPEvDhbkoTi9CbLI6Iryy+sjdZm8Px+cstHF7rQ+7GgcWtTD31lOxcweEJD+Hx3Hg8H7hxiPjuWODk4KqI7/g5VNTbVg821KVz4s35iviaalzZ/ZP/y+5HBpjIfA5Pn0NpuaMI2xvJTEdtPrEREcqCaPKiaPIWGRFDfmUbxgtYc6tffDvRUd+Sza5DT/CI1zQmuk/g3k0vKsIpZ5inJ83llRBPavX1OB+ZxOvJcqMsaHoqORLxPv/weoGJXtN4cvcj5xRfq9RBQpY7b3o+wTivaUxwun+I+I73Xk+z1vb9Hyy+uk4PntjwFzwH3VWRvkZ8sXRxOvEz3j7hT5NhJJC+pgPcv+IVTvYMpDoPXtXZqopihvNU1lW0DRHfHs0JJm74PXcemKb0V+5z/+ZXr+F04ltMDzlA1SjLPwvxHfY9Fh8FAUFAEBAEBAFBQBAQBK46gSsuvuXl5ezbt4/IyMgLj/Q6cEmYVfnK4lb9kVz59Zzim7cDSd8/M9VRGFh0tCcFEvv2S2y9exxZJRY0xb74Pj2FvDR71G2UVOfVt65UIp79JXV4TWXtHe9S19lMzopp+Lzvi1Y7Ukbk84eLr0QFJx++kdDNCQNzYfsLtr86xNfQSt6aubg89RnVTd1gMVL01SuK+PavbWRqiiXh47dwe/xxTngkK6tCYzWhyggl9t1X2PmXZ0jN1IwQX7mqpqAPcXngfrwmjGWzfVXnthNfcPCuaWTF1yjzlDW+Uy5OfLuCcP/Vb4iNPo9ZvRYdZYmBbPjiC74YtH35xXoCogvpGwhcDyM18mO/+HboslnmOYlJRw5RI8811+SwwvdNh/iqWo+xyPtVvDJ9mef7BbEqPVg0nEr6gPEHPyNK1aVE0RNj5p5TfHVtexm76QV2FBQpc4hVhR+fl/jqtUeZvP5e9lT0OToikcPi7SNTncFIfvEupjm/S2TH0IXbJDoIC5vE3zwOK/OR5Tm+k/bOIlw1cJ6q3p+Xnefi2zw04turj2fOxptZmjv41o69OdYeYtI/5lX/7ZT1jBwEIb6OYRNvBAFBQBAQBAQBQUAQEAS+IQSuuPh2dHRQUFDwL0ivjZzV0Im+3HdI1Pdc4muoOwHSUBG1tpwkN9qW+mktCcD5rgeITjejrUsl5KkHiDqUoURCLVn72HP7H4bO8f3POzgRUqY0yFoTyeFHruPw3mpMGGk/uQ2PJx4nLtIm2pKhlfLoGDrqbAsJDRdfuZDmk+vx/fuTRB1KdCxwpWvOp9AnGHXfwKrOXZoaUt57Gq/P/OjpA1NtEN5/vMOW6qzOIue0bTldqbOYmHnPEbDtDLqGM2SdbrW1tSIc7wcf5nS0alTxNfdUk7JkPBv/+/+yeortcUaNB15l7z+WUNcE1o44gu/71UWJr4UOMufehfPsr2iUJ4vKUebWCGK9hs5dtR25dP86xFd1hlecH+f93CaQDOQXbWXshucd4msxtON14jWeOjCOOWdPorVISMZ2Dp2exoRwD+r0YO2OYNb2+xTxraeBI6c/5e3EXKWxg1Ode4sWc+ue6ZzqAEmXyyrPR85LfA10ss3lZiaHelNlTwDITpvGH9faxFfOUgg58znvJmQpdeq0FbiGzeVFz/XYWiE/wqmT6NSveGbnQsI6bAIti+/47XfyfIQt3V8yNOFzZg6TQt2p0w+d49uHhshjz3GXyyKi7feKrH3pbEzJUSLgjfWBzHUbz4qcYizy1GJTF6UN8ZT0DqQ6f5Z3FZ5lfOm+MqIkQUAQEAQEAUFAEBAEBIFvEYErLr6SJCHP8f2XfyQrZlUBusJ9Dvnty9lCR+qGkY8xyt2KvtQDydQfDx1Uu7mPxLk3sPXGG9jym3sJc0nAYJKQLH3U+i3H5fZfs+XGG9jxXhCRL98yRHxX3/8VUUsft1/7c/x2pKC3i4pk1NJ8aDHbbr5JOb71rrGcdk1Ab7L1fTTxlSwGupL8OfLsnWy+wdamfY8upLSyF4t1QHzVVjOaZC98x9ymnLdjwlZSvppji/ha9BSvfNTWpuv/iPfCnTS3GZDMfaQt6O/nnwnZdZo+nXVU8ZVvDvTmhOL/yHWsfMEmvob6LCJe/RMbf3cDW8d+SrXvrIsSX7n3xrZy4ub92VbWjTew9Zm1NGu+PsV70Ghd9Nt+8e20GijK+Zw7tt3HrdseYm7gBt479I5DfEFHav5qHt30Mj418qJg8kRdK62N4cx1/zs3bbmH+1334BezyC6+rXgFjOW2gDNK2waLr9XYgVPI4/x20z3cs38pYcnvnZf4yinXKlUOn7jdwg2b7+HmrffwQVYMH+zvF982DgWN407/k3YeEgaDmqzkd/ndVtv5N2+9mynH3Mjv7HasJC6L7xTnuew69ZpS5s1b7uJJv69I7NCjjMuwxa3MRhUhx5/guk22Mu91+pwEje13SLIaUdV5M87pMf6w5R5u2zWOVRm59vRzIx05C/n5+rt4xOdTYlvPI7p/0SMrLhQEBAFBQBAQBAQBQUAQEATOTeCKi++5m3QBZ0gWzG3p6AoPoM3d5hDgwenP8rN+9WXeWPvklZNGrnp7AbUNOVVe1Xn4HN8hJ4gP3yACFvwDbmZ+nBytvDZ/JGsJy/bfy7L0ksvWAYOhlU1HnmNv0aAH8F622kTBgoAgIAgIAoKAICAICAKCwJUjcG2Lr52TpacGQ004+jIvdEVO6IoOoCt2Rl9+CGNTDHJa9KX+EeJ7qYlevvKs2kQW7PorW8sG5rZevtouTcldnRmUdfdHwdXkZnzC2F3Tibj0X2VHgzXtIbzhMYejTSJC64Ai3ggCgoAgIAgIAoKAICAIfCsIfCvEVx4J+ZmpVl0rlu4KLJpSLN1VSAbViDm9l2rUhPheKpKXrxxddxGHUnewPGgiz4cGUX4RC4hfvtb985JrKr1YdepLVkStZ3nUEsbvfxfPggIGlrv659dfyNHuthi2xm5mWcDzvB0bS7Ocay1+BAFBQBAQBAQBQUAQEAQEgW8RgW+N+F7pMdFWpVCVUeeYP3ml6xf1nZuASd9Gbn0iUZWxDFog+dwXfgPOsFoMVDTGKm2X25/QMvDs3UvdPENfFfHVcZytTqLxGro5cKk5iPIEAUFAEBAEBAFBQBAQBL69BIT4fnvHVvRMEBAEBAFBQBAQBAQBQUAQEAQEAUEAEOIrvgaCgCAgCAgCgoAgIAgIAoKAICAICALfagJCfL/Vwys6JwgIAoKAICAICAKCgCAgCAgCgoAgcM2Kr9Uq0aFSk1dcTkVNvRhJQUAQEAQEAUFAEBAEBAFBQBAQBAQBQWBUAtek+EqSRE1DM8GnzuJx5JjyKlmMWDTlmFqTMbXEYWpLw9rXgGS1jNpxsVMQEAQEAUFAEBAEBAFBQBAQBAQBQeC7QeCaFF91Ty8+ISdx8TuqbLGxEegK96PN2442d5tty9uGNm8H+go/rNqm78Zoil4KAoKAICAICAKCgCAgCAgCgoAgIAiMIHBNim9EXIoivK7+RwkMDaIhdS99OVvR5o6+6YqcMHcVfe0zfbUNJahbe7COwHPuHRa9GnVtHQad+dwnX+EzLDq5bfXfyLZdVhSSRF99Gd0dfUiXtaILL9yia6csP5/S6kb6DF//jVM3FFPf0oPIV7hwxuIKQUAQEAQEAUFAEBAEBAFBYDiBa1J8Q07H4BNynJMngyhNcCIj2o36lL2K+DYnriUl4CNifZbSnLDWIcO6ooNY+xqH9x/oIWbK7zi88hS6UY7+810SXTmH8XnhZQrTm//5qVf8qBVVuhdeL86gJLv1stTeEhdITX7zVZMziTaqvTzI9rBt5WkVmEwgmfTEvHY7oTtiMVyWnl9coRItRK6dzvgnX+HTzV5UtH5967zm/YpXPz1G18VVJa4SBAQBQUAQEAQEAUFAEBAEBIFBBK5J8W1u66C6Io/2bGc6MncSc8qb08d90WRu5ZTru+z84hX8dy6gNmaVQ3zlaLCc9ow0PIamoTbUi4qMOi48ZvvdEV9tYxzZ+3zpVNm/PZJE3OxbCNoSjX7QF+pKvdWVniHmy+kEL3Yi3cm2pWzbSWlJ+zdWfK2qYP7xkz/jnNl3TkxCfM+JSJwgCAgCgoAgIAgIAoKAICAInDeBa1J8kSTM7RnKXN6+3K2oMndQl7KXpuTNeGycS7TXErrSN9Kbs2WI+GrztmHtbThvOOc+8bsjvl35+wia8CY1tXYqV1F8pbZczr4xndBdoag1A6Nk7Gymt9fwjRVfS9pa/t9PnyHsPL6CQnwHxlW8EwQEAUFAEBAEBAFBQBAQBP5VAteo+FrQV4cOkdq+nC0UnfySbZ9NI3jvQgqOfzHkeP/8X2NLwghmyXOvt6c6t5O56AFWzw+n4JO/sOKH32f5/3mclKw6xzXWurMEP3eHcmzFj/+THTPfxXtwqrNFT43nW2z6j++z/IffZ8VflqOyTzRtC1/NgWcWUp21g10/+oFSxsoH51Fd3OkoX+opJu6NJ1gj1/3D77PnNW96JJDTejPm38vqN46T++G99raNJa1gIH3bWhPJkadvs7XtJz9l54y3hqY6m/uodF4w0La/rra3rZfKA2+xa/pGarc/aSv7+7cRtiNKSf9u2TNWacvyH/y7cmzvB6HINx8GIr6tpM2+k7ULwsha8md7254io7wNGEi5Tlo9n82/+jHLf/BTDk7cw6Beo45dztb/+IGN2Z1v0dRrSwNWp/nhO/ElYr94kVU//gG7X3Ol9NhG/N9ZQ3vr6LHm4anOEjVEPvQf9n79lTPB2ZgU4gYaT6xir30sgg7J7ZVZt5D71XQ2/8f3lWuiYhzDM+KNvML48G3ESUC2+xx+97Pv8W//9m/8n+/9jOcWHqCypxmnl67ne9/7Hj/43o28sSKcDvvFg8XXKqXx3v/+VDnvjrEzia3ur0Gi7PjH3Py97ynHfvGn96n4pk1q7m+qeBUEBAFBQBAQBAQBQUAQEASuIoFrV3wrDg8R2+6szQTsfIPFs5/h0zefZ/tn04Ycd4hv/ekRuIeL74qf3UTkiRYkWin4ajpbnt2opPOaWrOJmf80RzaE0ae1zSVNfecONjww1T7H10DL/qm4zthGi1oWqA7ylvydbWM30WEEWXz33/Rzds5wplsWLF09WV9NY/PTK+jWmbBoqkn78FXCdp6hzyBfX8/ZqX8l4ItQei028V3+P38g6nSrImd5n05l07Nb0CNhakojau5TBG45hU4PVn0PyYtuY/3fp9vn+Bpo3DMV9zm7adXIZbeT885f2fHMVjpNNvHd8dvr8HctAXQ0hq3F6bE3qCxpV3j984ivTXxX/vI2zka2IdFEztIX2fjcTvR28fW87ee4fuyLVmtB33Gcw/c9RpR/PhaMaA6/zq7HP6ZWsT41pRtfZsM9n9JiAFl8fe79H3YsdMNitiIZOyjYNBu/pW5oZIij/AwXX/UxJwqUKKue5tC1HHhoPhXN3WjrPfC+bxzZ6bawcV1IMN2Sltojn+L10uc0N9jEuvb4MbTD6zGpiff6kvEPPMADg7YHHxjPSs8ENDazHnKVJX45Px0U8W1PCCGsXO6ElYYsP2aNfRG3uAol5b5ffFXmQtY/fQ9TthYpZbXX1lJcWooBI41er3D/syvIUO4gdHFy+XPc9KcvKTEOqVZ8EAQEAUFAEBAEBAFBQBAQBL7zBK5d8a0MGCG2HSkbcFk7S1ncql90h78aG6NHDPpw8V31vKtDdDTRm9n9u9mUyTHXs2vwenYBleX9kcahqc7WnkQC7/xv/D/dT9p+25aydiY7f/13cstt4nvgz69Q2jkwx1OX6YnLnVPIbNChyXXn8JiHObFm4PqodybiPvkzGtps4rtqgodjES515Fp2XjeHcslC8+kVeE14h5qq/rYNRFrlxa2sPfEcuevnBCwbKDtlzQx2/e5x8ips4rtz3KeotDZj05VEEDjmJRITK5WVkc9HfNdO8h5o26kVbPvlXCr6xfepF8lOqlXKsmpVpCwYT9DKY/T2ZXPswV/i9f5Au1I3vMn2//tHkvPs4vvwONLTbdfK4lu4cTFHV4fQ29/VYSM6XHzlw+3RTsqYpK55l303Tye7ToW21APvv91L+JZjtLd021aAtmip9f8Uz3FTiHaOo880fE74sMou4ONw8ZUvbUj1Ze/evezd+DmTH5jMxuP5yN7qEN++QtZPvoen3tjKkVPFDr5Sbwbv3fEjJr2/13b93r3sWfs6v/+33+NReAGNEqcKAoKAICAICAKCgCAgCAgC3wEC16j4WpEFdrjUno/4mlUFI4Z1uPiunn/Mcc5g8W0KXorHpMXUOeZoDhVfS607e//rvwlc4UmO18CW6xdAe4ddfJ9ZRL16YP1oa1kIbn95hthsLZ2Rn3Hgz48RsW3gWrmc4jNJ9PTZU50XnHK0bUB8zTT4v4fnyx/T4Hhk8VDxtdS4svd/fk7QyqFl5wUE0dFpT3Wescnx6KOLEd91b0UMtG2Y+CqrS2fZVpceLL49TaG4XvczfJYNbZfc7+YWm/jKqc75eU02MbWqKTvwPocX7qGra5SwqhxJH7Sqs5468r74EI97niPay5OsrR9y4NYZivhaDO3UBGwlaMpzePzjZUJWhNGHFX1LCWUeX+L24BMcmj2HiH0JIxfwMveSfeIAi+fOZe6g7fW5i3E+lkvvKCulDRZfOeIevW8d0/78DMs8PPDYvYZpD700Qny7MFCTdhKvrbO476ZHmPXOCo6l1KJvPMLjP/o+0z7zwEO+ftBWeHkW8XaMrXgjCAgCgoAgIAgIAoKAICAIXGsErk3xBSzdlWjzdg6R33OJry5/N5hHJK1yvuLbnrQF76dep7y41z7OFtqSdnDwQdvjjKymSA797885fdQ2V3T4l0FJdb5lEoUd/ddDx4k17B+7gJouI+qCfXg/PJXC3J7hlw7M8R1NfLHQGrMer2cXUlXWH0020xKzBaeHbKnOVtNpfH91HZHHRmvbVRRfczLB1/+cAM+BucqDO98/x9chvljpOOuE530TyMod/ZrB4qsrO8T+Gx8mKqJFmderzT6M570zFfFV6rEa0bXW0Rr4BRuuu5H4VHvtFi3d1RU0u81iw+2Pki9ngA/+kcz0dDRQWlhI4ZCtlMaOXiyjzLUdLL7WhrPMHTuODzxykUdMW5vKJxOmjiK+9kqNKioz49n05lgmvH+Q2o545v34P1h8+Jv2GK3BkMR7QUAQEAQEAUFAEBAEBAFB4JtB4JoVX8nUg6Fm6AJXHakbcN8wh7TAj4cIsS0yvA1TW/Ko1M9PfEFXm0nYk38gYF0IGrUWg7qD6Ck/ZdVfXnI8x7d2y+Nsf3Ac+blaTFot+lJnfD+LVepVxPfmH7F2to9yzFidyKlX/8bhLXGYzWBW15Mw/y5c3txGW5Pt+ua4A8T7Fp5DfEFbmUTomJs5svkYPRot+s4Woib9hFV/fdXxHN/qDY+x45F/UJhnb1vJAfy+jAPOQ3wLDuL7+DTyU1swGy2jLm51MRFfWfra3F5iww1/ICXJ1i5DVQAeS04qzEaKr7y7m/Kd89n+i78QZ++LSdtC4brPSIqtHhLx1RZ4sveWX3AsXItRVU76py+y/vvjbanORQdJPlJpG6ekHWz+9dNkVfTQEO9PSUKTsl934j023zmL8pZRvzoXtHOI+Nac4ZWxt/L6wVK0PZ2cPfgmt33//hHiq1Ils88zni51L30dtXh9Mp0ZXwXSooMyp+f4zc1345mqRavV0lvhy3ODou4X1DhxsiAgCAgCgoAgIAgIAoKAIPAtJnDNiq88JpbeWvRlXspjjYanPQ/5nLcTQ81RsI6+6k/hhqlEeaRhQE3ZtkV4bUpyDHlflh/BU9fRn93cnRPGydlP4v7kE3iMH09SWBQRn6+gpsS2RrFk1FKyY65yXD7H/Q13ZSEruUDbqs6LyPde7DgevukwmkGP5DHUpRP7/kuO48FrI+zzOrso2TQfry1pjrb1ZngTOHm9o22azECOv2Zrm+eEiSSFnub056upK+9SrrHquynaOsdRtvsCL2yxZR2NR7cTtPowJoNtTqvSjsXLKSiwpRhL2nZK9i1Rrg3Zm6CIb+66GcT5ZWOki+J1c/DZnj7QtlQPAl7cQCNWukts7agtsz0EWGnHlo+J9Uh2pBA3eLw50K7Z2+nQ2dKYe4ujiFy2nKqqgTWg+yvRRG1yXOP25BTOHkpBbwLJbCRn7SziA3OUKK/61CrbeRNnkbDflVPvbKW8tRuLVk3Gp08rx9yemE12oY1GX3k8UQuesu0fu5CySyC9cpstee48N/4DEm3rhdGe4sKUiU8z9snxfLnWi/1rt3IouUpp8+lNL7L6YDJybkBR4MeMe2oMY8Y8w1vL3KkclBCQ6DSfMWPkY2N4Yc5eHJnu/ZDEqyAgCAgCgoAgIAgIAoKAICAIcE2LL5IVS081hupgtHk7RonybkVXeABjYxSSwSZ/V3PM+8V38Bzfq9keUbcgIAgIAoKAICAICAKCgCAgCAgC3wUC17b42kdIMqoxq4ow1p9GX3EYfbk3hsoATE2xWLqrkCwDi0ldzUEV4ns16Yu6BQFBQBAQBAQBQUAQEAQEAUHgu0rgWyG+tsGTlFRmyazFtunAKqfLjrLK0FUabSG+Vwm8qFYQEAQEAUFAEBAEBAFBQBAQBL7TBL5FnK57hwAAIABJREFU4vudHkfReUFAEBAEBAFBQBAQBAQBQUAQEAQEga8hIMT3a8CI3YKAICAICAKCgCAgCAgCgoAgIAgIAt8OAkJ8vx3jKHohCAgCgoAgIAgIAoKAICAICAKCgCDwNQSE+H4NGLFbEBAEBAFBQBAQBAQBQUAQEAQEAUHg20HgmhVfi9VKdX0Tx6MSSMzI/XaMhuiFICAICAKCgCAgCAgCgoAgIAgIAoLAJSdwTYqvLL25xeV4HDmGi99RAo9HYNV1YGpLwVATiqHqCIbaY5hVeViN3SBZLjk4UaAgIAgIAoKAICAICAKCgCAgCAgCgsC1QeCKi6/ZbKavrw9JuvjHDNU0NOMRaJNeN/+jZCYEo8vfhTZ367BtG7oSV8wdWcojjq6NIRGtFAQEAUFAEBAEBAFBQBAQBAQBQUAQuJQErrj4VlRUcPToUVpbWy+6H6GnY5VIr3vAUc6cOkRd6l56crYNk94BCdYV7MHUFANW86h11gVuJDeqDPmpv1fqR1d9hvgvPyfB6xTd6itZ85Xq4bVZj8Wkpzw3hYomDSJP4Nocw29bqy2GPmL9d3I6rRbjt61zoj+CgCAgCAgCgoAgIAhcIQJXXHzb2tpwd3fn4MGDFy2/EfGpSnpzemwANcn7OH38EEXxBxXxLYtYjuu62ez44lVKT33pkGE5ImxW5Y/AKtFExDO/4/DKU+hGHL08OySyiRz3ECFrj1CbW45Bf+kVq9XvXbxmvE1OYsOgTljQFJ4gYsUmGqs1g/Zfu2+t9fEcDgynsNE2elJLFt7e3rYt4BRFjWqsF9A9fW89oc57icyq/9dvhEhWWgsilbb4nsygWzdw40XfXkFUSj59BtvYm3paSY08opx7LLNtRIslNKQd9Rrom7c3x3NUI84b2GGkPjeGQN8oGgd2Ot5ZzB0khhwhLqvG8b3Xt2cR7DW0joxBF0vt+fgf9lXa4B8eTXW7QSlPXXgc/6BwKjodxQ95Y605w4LXJvP0uGdZ41eM1FuB5/K32OLqypIJLxBePOR08WEYAWNvJxtm3M1nB5PpG3bsm/ixLdudzxYt5KsPP2Srfx5mK6S4LuLpp59m3gpP6lVC37+J4ybaJAgIAoKAICAIfNsJXHHxlVOcu7q62LVrF/v27bso+TVbLBjU1fTl7UaTvZ2MaDeCQ/1RpW8hYOcbuK6bRVboMjpSNzjEV06D1hXuB+vw6KoVc283Jr2Zcydfa6h0+4jwL/3o7b34r4al1hmXGyZR3HDuGi+2lpoND7L8hz/EadYqWh0eZaEj0RmPSXOoyG+/2KK/MddJqIl3WU1QWhtmq0R3RRwHdwRQZDBgMBjQt5ZwNr2Ibp0sl1baahIID46h5Z+MnSRZMRmNmC0Xostfg0SyUJt6lODYErqNZpTsfslCQ95xdq1byzr3M3Rr7d9HuV5TF1nhbrhF1Q4pUF10km1bNnCmVK/0S+mboZUYt00ccDmLY3gHXaVrKSbQZTOrV/hSPmh//9uG+IOsWbmFI5EF9OPoq4/G2zWcSpWNn1yPLC3yj9RZjJ+LO9FVPei1agrjA3DxO0trtwnJbKQ+KZBD4dmMdjvFWuDN2AkrydVo0BosSOpslr/wMqtOeDLvpz9jf2p/q8TraASuNfGti17DtOfm8vG8Kby3MQ6jBcx6FSlBq5m3aDklzfrRuin2CQKCgCAgCAgCgoAgcFkJXHHx7e9Nd3c3Tk5OSvS3ubn5wub8ypLQHD9EatVZ26lL2IjL2lnEH/oATeamIcf75/9a1GX9TXC86lqq6OnsQ8KCoa0OVWsvho5aOsvL6SyrR2+wReoM7QVkrnqNw/M3UZtTjqbLLi1WA31NdbbzyyvQtPU6oozGjmpUDSq0bTV0VjfS21xLu+981l03jvTESrrbu7FKZnSNlfbra+hTawdJuBVTdztdclvkra7LUTaWPnpqq237K6vpVesc19VsfpytY6fhcteDHPdIwGiVJXuk+EpmLT019rLLGu3ngVXfTU9rGwZVs638iip6VFosWhXq6gpln7pONSQdWDJ2DbSzpgVTvzVhwdjV6jjWp3Wg/5feSNQQuGIFsdVyMV2kh3riHF40aplmrYrSnJP4eR+jpK4TjdaELLnaHjW9vb1o1Co61VosVouyT2uQb4RY0WlUqHsN6Hq66OzspLOzG+Pg+xUWAxq17ZiqS01Pbx+a7j4sMm9FfMM4mliJLTYKzWn+BEWXUl+WgHtQ5ID4ynJJH3kn3AeJr5Wu8gQ8DoRQbjBjtejRyG3o0tCt7qLXKFF+1odDIcl0mAcaZTV0kR0VSoCXC5s3+A8TXyvahjictnjj5+06RHx7coNw8U1kROBW0lGWFMqBgEQMJpsJGzoqCAsIIqterXznOkqjORqagXoU+rL4PvmPDVTZj0k9eayZNJtN0b4s+snThA1OSkBHS3kZZWVlVFQ10q0z2b7T8lipW6kqsx2Tj6sGfY90XQ3UtPbS21Fru7a6iT6jGaO6XvlcXlZDh0Y38LszrJ1Wg4oae9mVNa3o5O+uZEXTWkNdc6cib/IlFnM3TdX1aPrk330z6sZKe/nVtHVpHeVrWqtpbVfRXF+lHK+q68JkMdLZXG1rX1kT/c036dQ0Nbag1XVR19+G2mb69Lb/d0YTX7Ouc1B729Arv9/DOiW30Kih3l5mc5dNOK1mAx3N9XRpumiusbWvvKqGzp6BSGxPawUNTR20NFZTWd1i4zGy+FH31MdvYtbERXyx4AM2+WZj+8oYKTi5mQVvCfEdFZrYKQgIAoKAICAICAKXncBVE1+5Z6WlpWzcuJEzZ84okazz7q1kQV8VOERse7K3EOP7PsvffYHdX00n7MBbQ473i69Rnus77Cd57vX2VOd2Mhc9wKonPyJp/RKCZk/h4O1PE+adpGhJre+HeDx0OzvuegS/6bOIPd0Kxh7aznpxbOEbBL42iyMzJ+E9cwVV5e3KH8Gly25m7Z9nc+yT+QQt3kzmvmWETPwTq356I+5TF5F4OIGuiiQSls0jaPZMfJ6eQMDSA7Srbam72vJIYr5chP8LrxI0exZBH+ygsR2kvlZqQ3cTOHMuQbNf4/DLLxH4wV6am7sVUajZPBaXhQfJ3vsOO8ZMpzRfjsWNFF91hh+R780maPbLON8+jlOhOco8QnXaYXxfGkfEVx8RPGcWvs89ivurn5GwcyVHF8whcPZTHLj7TUpqbDE+OQ02a8sSDr88i6DZr+A2bjpnDyVhkOWxJYX4D94gYMp0pQ8JoRUj04itJlrKkgnx9cV30HbIN5CE3FqUoO2wcRsqvn0URh5mq3MIRfXdw86EzqJIDnkdYOf2ffj6BxOV347Z0MsZ3624+QZxNCyYkMgCurRqIg7ZUp2NqElwW8c2r9PERYYRHHyIA5vciKjuUsq36LupzTqJu+8RgoODCQ4NJcjfk92eJ2jTGEYV3/6GdZyH+FoM7aScOEJkZgNmaw9l6ScJ9gkmODgIz/07OVluRqeu4dQRP7JqNI6bHnX5kYQejaIoPYI9m4eKr7azjONebkQWdZJ1dKj4dqT5sOtAEEn5+eTn51PXZRMvydhBcrg3IYk1AxHgvkaijvhwMrcZ2bkuSHxpJ2ZfKKnNqbjNW0+mPWNb6qogJGgFMx6cxMyZM5n35kf4xVUp0tlXGc2Gj19j6gszlWMzXryft1eHUmRPcU/a9iTXP7EUp/VLmDFtIg/f/zyfbtrHgZULmTHzZcY/8ATzvzhMa3+EvX8g5N/s9jy8trzP9MkzlXOff+pVtvql0m3s48S21xj/8jvEV8g3s3pJDljK9OeXcCanlb76ZPZ9Po+ZM6cz6annmbdkLyVdNp09+Pp1TJz1EZ+9v4AZkx/l1lteY4ebEyuWzmPGzAk88L9PsiGtWWlF9dk9THj0UVZsW8/SmTOZ8cpknn52MmtdYtEZLAwXX6k1G9f1i5kxRW7vVMY/MZ1doTkj0qAlmjm+ewkzn3xJYbbiQDQ9Emjqslk68XZef/9zPlv0BjNnzODF559gweeHaOiw/b8TuODH3P3wbJYsfp0FHzhRav//aBC2r32raU0jZHcIxw75ciyxBotyT0aI79cCEwcEAUFAEBAEBAFB4IoQuGri29HRoQiOPN+3rq4Oq/UCUktl8a04PERse7O3kBzwIauXTFKivlGei4ccd4hv/ekRYIeL78o/TCKvuAfoofbgErb/7WNsicFqyg+8Q/BHXvTIh5HQVkUT/d5CMmLqkLNjrYYm0j56hdDlQfQYQBbfNb+YQHruQEKq+eyHrL9+CqW2v3vRV2TTrJIlw0pffigB42aTkVGLRAepix7G8yM3VPb5lFZ1Nh1NZtSJboS98wWlJbJ4Suib0oic/SpnvFMUUZDF1/W9INStmUTNuI99z++ncxTx7c1PokuZOKij1fsd1t7wEU2ALL4+Y//CyUPpSopud04AXn/8LW7vu6LpMSJJ1Rx74jaO7k/BRA81Wybh+k4gHQoXAx2Rmzhw1yxK2o00hHyC15SPqK+zRchV+fkjF+mxGqnLjcBl5w527BjYdu5w4kRSGX02BxsydpIqkz0rtpLWYtvd21ZJQugB1uw9zOnoBMqalMbYr7HQWhVLsP8Zmu27FfH12IBzcAJtSgQPTKOI75aDYVQo8xK1lEX6sHZ3NCrMtJUlcsjLj8xqm2ibDd1kn/Fmp8elEd++ljKOhx2jok2Oyp/C7WAYdb0gqUvwO+BOfLMFq05NWkQIMQVNyIh6qhLx9/Anp1GNquzsEPE1apqIDfYnLLUMrdk4Qny763NJSUlRtrOh7jgdPk6JfJNF20Js8CGOZzXQH1iWDG0khnpzNLVBEd+u+gRCDkfR3B/GHDRSwyO+gw4Neqsl3/Nd7hgzl5N59psp+maqGzQYLeU4TX6A6V/6Um8PKUuaPFa/eB8LVkUh34aQxfcXv/8HwUU9YFRxbP2r/P4nf2ZZpJwOYCT/6Hqef3o+yfabFgMV95C8YQLPvRtMlZLzrafy9DrG3DaLyA7Qdhay692pfLTtFDWxm5lw1z/wsf8u91TmkN9p+71VFYbx5rOzcEupVm54HXjtf3lq7haK2g1IvaUsf/QH3HjrDEKLO5Ho5NDcu/jDP7yU1HBZfMf98TbmbztpSxU395BxeDlj/76Q2EbNMPHVEL/iCSZ/FE6N8nurpyz8Kx64aTZnh035tnb68uL1d+CSZBuU5tJSJSIvi+/ix3/L82/utQutRFOmH7OeeIHd4YXK72bg/B9x673zOVVuu8kzwOti3wnxvVhy4jpBQBAQBAQBQUAQuDQEror4ygtcOTs7K6nOjY2NFya9cr+ViG/wCLHtSNmgSG9KwEcjjjnEtzl2BLnh4rt6eoAiEfKJmujN7P7dbGwJ0sPEVzLTdPRz9t54A/sfegzXMY/h+vgj7L3jBlxmraGl3Sa+m8bsUv447694uPjK+2t2TVCud3noL2z5xTMkJlViafTB/e57SE0eahNyBK5o6xx23XI7Bx+11/vYg+y86Tf4fBVEnw76xbcPM73Zzhy87hY89qSOmONr7m4l9YOxtrrvu5kV/2ceNXbxPTR3AdVltsRXfUM+4ZP+TnRAlj1aK5H1yVMEbYlG15VI8IM3svnP9raMeQyXh+5iw09+TkSshfa4vXjecxP7X1pPsz0i1s/iYl8lVRlhPkdJqmsZIsXm3g7qamsIc1vLtt2exOQ1YFTuqYwuvlG+uzieUu1IRR5NfPcdK3OkdKtyQ1m7MpAai5aSxEB8Q1Pp0vanGZtpLDyLi8+lEd/uxiJOnDpFY5eRipNb8YlrUtoh9VUS6hRMvhwGN2jIjjmuiK+pJROn7fuJL9coY9Q9WHwNGvKigzkSkUWnPM92FPEdPBZmbRfJRzbhFFJEX08jZwI8CR8hvoc5kdmkiK/ZpKIg4TgRscXKDZ/BZZ2P+Eo9Baybej+zduQNvlR5b2n2Ztwvf4dT0kAqrnwgb/90Hn1xLYU9NvG9bbqfYxwL/Bbz9wffpsA+NB3ZR5jz8lucLh86t92qiufNe67jd3c+wiOP2LaH77+D//3hf7M2Xq7FRGdRKO88/zT3//4h1hytGRJZTd09Ubnu4fvv4eafP8WuuHJFfF0W/IGlBzId35vjb/2IR6e6KTeV5FJL3F7m+od3KguPyeL74thXOFU9kGRuLD/Oyw9PZEtyyxDx7e2M5rWbf8b1fxrc3tv52b//F1uTFVyOfyR9Bovu/gl3j5nPobPljptNsvh+9OJDbA7KoX+2rUVVzrY3prBw5xk0Jgha8BOenevLxa+972iG/Y0Q3+FExGdBQBAQBAQBQUAQuLIErrj4ypFeWXq3bduGWj3ajMDzACDP8W1JGiG35yO+lu7KERWMEN/5xxznnEt86/3ew+OlD6irNWIxDmxWs0WJlMoR380TDjI4+Xaw+EqUETvxQVb/+xyq5EWVahM59sICRXzNlbtxuu0+coa5gKRvIXf1y/i+74ZaNVCnXL/VvijTgPjKNwqstDhPYs2vf8vx3QOLW1k5y+Gf/hLXl/bRYTRiTN7Cuh+/OSC+b75NfYUt4qOI78uPEhOSZ78pIJH71USb+LZFcOhPvyM8fGhblPYoUyUtmNuSOPb8faz+8X+y9QWXITwU2OYeove/wU0//CE/HLT96Ie/YcZXgbQMX3JbkjBXR7NmVQj1jtEaeGO16qnNieTARneyVHIo72vE9/AeTqYPPCZmNPHdf6p/dio4xNfcR1G8P4fC0xnIAr184lscvp6ANFtIT2rLw2NPEMVmC+Y+FfERoWRU1pMVsp+VK1eyevUa1qxZw5rVq1i5chWr165jj99pfLevZNXq1bZja9awetUqVq1azTqPqCFzjfsptqd4sN0rlW6DnOrsTkBMFSb7AuRSdz2n/Tw5bk911rSlEeJ1lCpV/02A/lLgvMS3K4Nlz93D2+5DF/aSS7FUH+TxX16Pe+ZAmfK7Uve5PDhhObldNvG9Y/5Rxwmy+D40dikV9uZ05Ycyb/rikeLbeoppf/gVnxw3YpR/BwZt/eubSapUPnzqT/z43/6Gl/2rIFHOzol/59f/PosYoxFDXTKfTFowIL4Lb+ETt4FfXFl8x872tWeOQLXvnCHiO3n8LM7WDoRsrdURvPLYeNacbR4ivj3NYUz41X/x1emhbZXbbUspdiBQMkHMfS2EbpjOb77/A66750MqrJKS6vzx1MfYebTAcaNAUlex662XeH3zKbqMEPTmT3j+rcCR870HF39B74X4XhAucbIgIAgIAoKAICAIXHICV1x85bmDPj4+qFQDf+RdTK+sfQ3KKs39kVz59Vziqy9xBWlkzuyFim/gEje6u+W/qK10pB3g8Ljp5CU3YcvWljD2dKKV53jKf5yfQ3ytZSG4/+UxolP7lEi2Jt2fQ397URFfK0mE3Hs3p31zMdqDXVJPA719PdT4LMPz5U+oq7Tn7VpN6NRdGOxzGIeIr/IncCMJk3/Puv/5AxsnzFZWdZYFfN3vxlNUJ6+C00ed0+us+eH8Cxdfyokb/2cOLDtBX//zVszdqJttadimvi709lxlc+wy1vzyFtJzLmbUh15jm+O7m6wOeb8FrUZDr/3xQHL6t7G1kACPEPKVXG6b+AYejqRRGTuUOb5RFyu+GKnLi8TL+wS1nfZFgyy9FMYFsNP50kR8jV01nDpxkpLGbqx1MTjtDaagtYb0xEgO7zjAqYImyjJOEnYinY7+0N0gREMivoP2y29Hi/jqu1X0P1lLnr+cFrQN1xj5toKRhpzT+IQm0qWzLfrU3ZBH8JFwStp6L3hxq2FNUT5KNHBo4XieWuROS3+GurGbzm49ZimND267iaXO6fT2/x70NuHy9qPMXByCPGNATnU+X/GVpG5qi0ppVeuRbzxtG3M7T392ks7+xApTN3VN9vR1fRvHd77F26sPk++7gMeeX01uhw5reSjj73ucdYndyu9tS+YRZt7/wkWL73N/fJANMfaF9ywGMo98xcQXF5PR1jtEfHspYv1fb+CFlZGo+m8GmTTUNMrtlRcAa6ayvMG2eraxgzb7o4OsxX48ePsNfBphVcT3/cdvZcHm46jkJZeRaMoOY8Hk5/A4W6VkC4wU317q8guob5chGeioKae0Vr4pJqHTtFBVXudYjGu08ZW/Q2Jxq9HJiL2CgCAgCAgCgoAgcGUIXHHxtVgs6HT9f7FdfCclix5j01m0+TsdkV91xibOei+h7PRXjn39Yqwr2ItZUzpqhecvvlpajm/F96X5xO8+SFlhN2Z1PTmrp+E5awnJB9zIcnMl2dWL8mxbkuC5xFdeqCZ63qO4vbefTDcXEla8w77fT1TEV1brRr9P8J/+ChFb5LLdyHTaQFkFGBuyiH/nSdzfXG/b73aQePdgmu3P5x0uvnLHdWVB+Nz1c1bcP0sRX2vJEQ49eQdBK9zIdN1P5NynWfX9Cxdf2bl6Ulw5/Nj1+H9ub6frHs54pik3Gjozg0nctltpZ/ons/B4YzfNFxnsHzyAQxe30lKTnUh0dCpZWVlkZaUTG3WSYzF59j/IrXQ35xLq60dkXBrFDT3/kvjKcUltZx3RR1zxPxmr1JmZnswxPye2up+8JItbYe6lMCaMwMgcei0SVWlhhIedIbeyjaayBI6FhxMRlU7bKNIrc7pQ8a3PPE1Suswui8RjQRw6GkWN/VlHUk8jMSGHCIhOJyszlaiTgUSmVNJnF9ELWdxq8BgOft+VF8oH0/7GxKUuuLi44HVwF/6xFciLG5eEfMWrL03kg/W2Yy4fzuD5Nz8nWb5pc4HiazLF8vqddynPFJavbU925qVHbmDmZ/Z6Xfaw1jMdq0lPrPsyXpvxFhHF7fIMefw/HMNLC/dSlBHH6vmPMe6dPbi6OLNn+Ts8dtPzFy2+z/71j7y44HOl3y4717Jw1iRW+GQofIcvbtUav4cpj9/K3C/727ubVR7ZgJ7so6sY/+QC0spUWNuj2bJmi63M1R8yZeaXRLfYIr5Lnv0Nj764kJ17D+Di4syqheOZt/owNfYpvcPFVyKT9278GfN2ZCBRj9ucx7jrNV/b/OlTG3l+zFziC5U7ULYBGfGvEN8RSMQOQUAQEAQEAUFAELiiBK64+F7K3smPIDHUhKHN2z5CdPuFV37VFe7D1JqiRGZGq781xpeKjHrM6OmIDyErdiDd0tiYQ4HvWcfzSaXeJqpPBpDh7Expvi0qZOqopCzYS9mX4epGSWK1Y46wvEhU7slix/w6uX6pKYVs3wjU9giToTqJLDcXMty9qYjLpDointZWe3K0qY/25HBb2c7OZMUNJPYaG7LJ93W3HfPwoya/2TGnsCc3fEg7lHrNelrjAsgMOYvGHi7SZIbYrj90ivbCZLLd4pADbsa2CiriEui1R64tfSpqz4TRVN3peGRLZ8YpqnMbHXX25oY62pnhd5buXlvU29TVSFWoi+3YwWDa7V0bbSwuZN9Q8ZWv1NJQmE9mZqay5ZbU2J/hay/VrKO5ukg5VtTQg9ViorGigPq2HkefrGYjDRWFNHTIq/gaaSnNHrJKtKGzhuzMKoWRUmNHLQW59voK8slLP785vnpNC6VVjRgdj3ySY2fDH2cEuq4qIgJ8CQw7S11/NF3+DukaSDie/U9TUeXFrApzKx3f3cFs5Uc5ddSUUNWgcqywbTH3Up1v60tmRimq/rxm+4UGVS3ZWbbjBaXVdPc/o4kLW9V5cDuGv5ea05S5//KjzjyDomnstN8ksxioyjjhOObsFEJ5f2QYaM07RkCsPDvd9qOqTOJoeLIjpd6gqiE2Kol6jR7J2kXK8SNkVQ4s3NSeE+oo28MvhhatURHfzJNenEosocf+5DJtSyZBh45SVNdNb3Uy7q7OOLt4EhWbSXxEPPnNttW1S+IPk1o6kNVSl+BKeEwF/bf8uiti8D2ar8wXluf4yqnORyOPONoQHJHiiEDLAp4TfYS04lbH/ytNmSGOcz394+lUIrdW1I0FRETE0W7/vS08Y1tLwdnpMKlVtv7Kc3zlVOf1+7zx9nFTyvEJCGXwul9VcW6cjK9yzAGWF/rLCvMgVnn+t4Hq1OMExlQoUWZNcxFnImJoVn3NHRhlSIT49n83xasgIAgIAoKAICAIXB0C17T4yqogmXoxtSaiy989ivxuQ1/qgVldjGQdujDO1cEtar2UBORVr8/sXkF47iADupQVXGhZFnne7xF8wtLQ6EZ/ju8/K3I08ZXTV3WaDppKzuC214mDBw8qm7PPKcoaVUNuqPyzsi/3sYpYHwIjix3Pph1c3/nM8R18/nftfb/4Dp7jezkZ9Ivv4Dm+l7M+W9lCfC8/Y1GDICAICAKCgCAgCPwzAte4+A50TTLrMXfmYKw7gaEmFGNDBBZNBZJ15JzegavEu2udgLUjjgPb95NUYc/JvYId0rWWcCYuhbZu+fFOEp2NiThvciGhpMUWBZcs1Cb6sGrVKta6RaDq+fqbLwZVHSe8tyrnHjxjz9+9gn35V6pqS3Jm2+4AKr4mkm8t9OGem3/J93/4I179/+y9B5QlV3lwu/7He37G2MY2GGMDxiaDyQaRZQHCCAklEEICJEBCQmSRBAKkGU3qmenp7umcc84555xzzjmn231zqv2vqpu7e6RRGqbF6bVqbt0KJ+yqntW7vu+cOt/6Yqp6RZ77lyC+hX/4GK961at4/9eeZmzl2SLDr8hLLDolCAgCgoAgIAgIAtcBgVeM+F4HLEUT/gIJbI43kZ4YRVRUFFGJGbSOu9Jb/wJxiC6/AALLXRn87vGTdK1e4cnBCyjz2U5Rr40T+OQPSWuwTWT1bMeKfYKAICAICAKCgCAgCLxSCAjxfaVcSdEPQUAQEAQEAUFAEBAEBAFBQBAQBASBIwkI8T0Si9goCAgCgoAgIAgIAoKAICAICAKCgCDwSiEgxPeVciVFPwQBQUAQEAQyq3U0AAAgAElEQVQEAUFAEBAEBAFBQBAQBI4kcKzF12qVMJstyO8GFj+CgCAgCAgCgoAgIAgIAoKAICAICAKCwFEEjq347mu0dA2MkFZQQXm9/I5eq/JqI6t+C6t+A/kdv5JZC5J0VL/FNkFAEBAEBAFBQBAQBAQBQUAQEAQEgb8QAsdSfPUGI9XNnUSnFxCZmkdReTmmtTYMs3nox+PRj8Wgn0jEOF+CeXsAyXSdvOf1L+SmEt0UBAQBQUAQEAQEAUFAEBAEBAFB4HoicCzFt2dwjOj0fEV64zLyGG+JQ9vvi7bv0qFFNxiEYa4Qq37zeuIu2iIICAKCgCAgCAgCgoAgIAgIAoKAIHCNCBxL8U3OK3NKb2dNDHOtQah6jhZfRYb7fTFMpSFZDdcI69VVsz9YSv7DjzA8sMy1SshWj1ZT+Mj3GehauGZ1Xh2Nv9yjBosDyaoeQ/eXi0D0XBAQBAQBQUAQEAQEAUFAEHhZCRxL8W3tGaSsupbJ9mSW2wPIykmnrSoGTe8lOnOe4MRP7+A3D3+Fvvzfe0SAjSt1LyvM51u4qjublDvuorfzpZVQq17F9mQ08W/8Ny78278qS07UMCYL7A8Uk37nV+lqnsH6fBv8LMdvJD7A03/9aqKfqcRsdh1oUneT8+WPU50z7tp4bNckjNNVnPW6SGHvLpLVgn6+g+hwf7y9vfH2DSa/YRyt1f4YQzJj0OkwPwtoiR3q4vxIrxx9ScTXOpbFqdNeeEdmMTS/BxYjqt50vC54433xPEHpdaypjEgWI/2l4Zz3OktgVhtqvWuCOMliQqdbpSEpwNYvuW/eFwnL7WBHpcN1pOtCSpKJxcFqws6H07K07dphX7Oa1ygLOklwVC0bjm07HQSdeAavi3L5tiW/b891rmTBqNcx3xBNQNGUc7tqpBz/S2cpHTYeeQ9bl5r58V0f5bX/9Ho+8XgVBSdu4p9e+xo+et85Zjaur4dfzk6JFUFAEBAEBAFBQBAQBASBl5XAsRRfkLDsjqHt92O/14fxxlBqS+PZaPMmyfsh0i8/wnTVSXa7LniIr27AH8nk9of1y4r2uQt/OcRX2lug98m7CPnq/YyMudqwGH+G8dWXV3xPvP6tXP7gx2kpW8Hhvq8k8ZVQ0Z4RSnyzLHZWdue6SYvOpH/NPobcqGZ+aoSlHaMC3mweIiswmsE113V4uddk8Q3N7EFtawE7vbmc9stkVg2ScYuOonhCc/qxtdDIXE8ZKYWtTvG1mnTM99SSlpZI47Terbl6ZtrLSQhKoXV2g4P6qNuaoST+MufORB0WX7OGsaoULl3y8hTf9WYCzyYwZmusW10gt2N9rp/Kgmwi/U57iK98oHWulMDLZax4nGX7Iovv7376NIXDq/a9BnpzT/PQz7yE+B7BS2wSBAQBQUAQEAQEAUHgL4HA8RRfyYpxscJDavd6fJiqOU3wyW9THvMzlhrOeOx3jP81b/Uduq6Lhf4MVDQxHOdDzalnqI1sRqPdZiYrQPleczKdLbezJM0UA0H2Y88HMNo254yCrRRepKe0g/EUP1tZYbVojVoWC4LsZSWzprVph0N8e2rK6Dh/1nZ8YDxLM7uu2iwa1puyaDz1jG1/VCsOHdnrK6AltpK15ihqlXaMsZz2BCF3PM3i4aCbUubBiK9JPctQ0Cl721JYNziUdZ+VinRnvbNztiZJrDMVFagc3xQUxdq6bbsc8X3mM7+n/Mc3E373CRaXbDJ4WHx3mYy01/dMBLMT60rUzqJTMVUYx2R1BV1B55XyWzN60WxOOa9LzYl83Mgg7Q3QftrO5VIM8+Mb9gighGa+mY7TtnqGuq8Aw0X5qtbkvtdEB5E3JDMyMNNTTERsmRJBPViAdmWQmuoMQi76kl5US9vQAnqTldXherr6Jhjpb6audYRdo5mV4Qb6JtYxYWJtooemoVW2p9upra2lrraTuR2NKy3doGJy0LZP3t87tchQbx/LO7a7wl18JeMy5TF+RDe4xrfrZxsICMpgQiu3+KD4Wtld7CU/OY/BFTVWthmQ29DYSmdnB6MLO+zNN5EYmsjAprv6ahmoTCYzLY/YkMQD4mtmY7ye5OQKWotDPcV3ppxzZ/NYPAgPkO+HieFhlnd1jBZ7HxbfrWbihPgeQU5sEgQEAUFAEBAEBAFBQBA4isAxFV8L+qk0D7Hd675Iuv8j/OK7/8vvf3gbfn+412O/Q3yNi5WHOLQ88A9cvuUh2pLzGUv4PX5v/CAx99xPyaU4xkpCSHvPx4gM6FLOkzYGaHriJxT6JDNeUkR36AlSvv4Yw71LinR1P/waLt14L03xeYwlnSD4Hf9NzNfuIe9sFGMlkWR/6nNEnqtWylLE9zNvIuRrv6W3sIjxgnSqH7+X5F9GsLttk+OtQi8yHnmSzsxixkviyPrMh8jzq1PkdzH+EXze9k4ifx3IeHktq0PN1Hz3s6QFDRzqo2PDQfFdy/WlI6eE8ZJUSu/8AhE/T0WNnrW6ULIf+CWdibmMlxTTn1WDjk0mwn5L8kPnlW0jeUVMNPVjAmTxPX2jP4uDhWTc8mFy/CrQ6+Gg+KrKQ2jKkuvLpuHxB4l54Bzr+wZM2/OU3v1Gwr/1W3ozCxmN+TGX3/IRYr71CHVhKYyV+BLzmneQnTysdMU6X0vxg9+lJErmkkfL6Z+T9MDTLKzsYTG2Un7vXZRdSFXa2RWTx1Hzeu+NpfLobbdxm8dyF794Kp6pI07wFF8rGxOtxAT5EVc25MDr/DSqVhgdrSTWN4jKjglmV3YwWyR6M09yPiCO8uYeJmZW0ZqtdGeeJb5oEA0a+otj8PIJpbhxgImJfioykojO78JotmI1ahiqTSUxu4zuwQkmJiaoyAzCJyierqkdGxe3iK+kHictIIy6JWezkHYHifONpFXJN/YUX8msZ6A2g6K6EdTmTdqzYimqm2B8sJP8pGjyO+cxW430FYaR0zBrjxrDfGs8sUmVTE4NkhXhKb77q2Pkp6XRNr3Jcp2n+O71Z3LqGV+ik5NJTk6mqmcB53MXV5MZE+LrRkOsCgKCgCAgCAgCgoAgIAi8EALHV3wnUzzEVh7fu1h/mpCT36Ym4RdstJzz2O8U34WyQ5xavvcmkp7MQW2SwGqg5+G/xecDf2BRL0f2zIyf+AQnPxuACgPL+ecoeiaC7W3bSEereoaO3z5KcWANehN0P/IPRD6WyJ7JqpQ1+Mu3ce6NP2NWJ5dlYdrnds7deE6JXMrim/yRG6jK78GsDAuVUPfnk37TN2ltm8XKDLX3fYKOVi22YaMWdF2nif74j5jdBEV8/+lOBvdtkiztdlN25zeoKjsqhmbr9kHxteo0WJQxqFYMjV6c/fsfMWfaYdT/uyQ+6sfWtm28qkWvx7o/TO2DN5Lu16EUJlmtWIxGJRppE98Adq1qZuJ/Q/Bbbqd3avOQ+Fp1amWssZyubhrJJv6GRxlc37eJ7zc/TFFEIwaLJIf8aLj79UTdG8ymUWZtov8Hf0/gg8mo2Wcy4GHy/OucZVk2Oij7+repKZ3BOOpL5If/h4FB2+Bape2HrrqcTqtha32ddY9lg+1dtf16eJ4kbQ4SFxxB/bLt2ksWM5vDlQT5XVTGqKY0LHiccFSqc2/GM4TE1LDqNvD3kPgGlrAq3z9IqKaaifRPY9RgQr3dQ1poIj2z+/b7AXZX+0iOjjtafNe6CfOLoMUxqFYucX+UJL+LlEzITfUUX7NBQ1NhLB3TalRj5fiFlbFuAcmwSUt+OqXdiwqXje5sUitsY5J3h0vwPpPGuMGMdm3UQ3zNmk0aMhMpbp9Qxj0fFF+rSY9Go1EW+SFCQrgvHmN87TSPEl/JOkbmpSB6jsh1FqnOHreh+CIICAKCgCAgCAgCgoAgABxb8TXM5h8S281WLyLPPEBr+m8O7XOK71rLoQvf8sO3kxvlSoEe+snfEfidRPs4SdhM+T4nP+XHrn6VvlP3cPF1b+DS2/4T37e7lszzhWh10PPY60n0tYmhXNHY79/OxdvCcYws3s77NV43eiEn3zpSnd0nt5KW2yi6+3aK0gYwTwZw+TV/w/l/d9Uj1xn6xbsYHbeL7//8zpmGLe31UnH3NygvnD3UR8cGT/HVs9vfRtFX3silt/8nPm95PSf+n+8zi4mN+khSbngTZz7wCFPTM+xvarCyz3T444S/91849dGnmV9YQrun9xBflSxXe4PUPPA5zt55kb0N98mtjOiWF2m895+5KNf31jdy6q9vp98uvmU//DxNJdOOptLy/TeT/HSJc9Kn1cCbCPh2Avt7Q9Q8+Dm83vBmj2sgsylIGMNiGqfsy//B+Xd/gerEGrZXdo+cBMliULE8N8ecxzLPyvouxgMTUknqZepy8qgdXcJon7vK2VBgvNQXXx9folOrWNg3K0yOFN+s08Tk96NxO/mg+F5I73XuVc+2EXU5hSG9iZ3JUmJisphyy9xWb4+SHvts4htGo2Ooq3Jthkn0izoy4iuLb2NhDF2zGuabk4mtseW3S4YNWvKKaZ22paWvd2WTVjXG/nI3UQFhVIxvo1KpWJvsJiU0lpqxOVRaAzN1iYQllzO1plL2j5cFERhWxvS+BpOb+Ds6u9SRyaWwcuV3w7FN/jxKfOUHIRvzjeSlFDPnnv8uj/8VY3zd8Yl1QUAQEAQEAUFAEBAEBIFjK75ImDd70Pb5eAjuc4pvvy9W7eEQ0VWLr2mDwQvfIfEn4ahUB8zIfjs9b/G9+St0ts4ooiQXYZyqJueuu6gpGcO8GkP0Oz9MR7v7eErXfatEfN3Fl3V6f30bId+Mckq762jbmrv4mjeSiPj7d5F7ukI5Xl9/mjOvfgSHNkt7w7Q++VNSb3onfrc+xapstbJYbDVSct+9xHz6wyT9LhGVzpHqLEfFbT+annjiPvg6Yp+IJNE+q7N1t4qU/3gnUfclKHJjGs4k7iMPPX/x1Y3T8PAXSDnXYK/tiA/jNjNpF8m65QbOvO+bTBwxwdTeRCY/v+ce7vFY7uOJ08lMHzHhkqQaJz0kgz7N0ddeuzNFfngEpT2zyuRPL7X47s7XEBeZwfiGa17l/c0BkiOuIL76eQojfMjsc90/xvlmAvyTGFSexHhGfC1GLc3FCbRN7bHRm0t4Vi/y4w7t1jgFMcnUjK5iMWzRnBtP1cg6q2PtFGWnk5GRoSypCdH4XvAmND6JzJYJOktc++Rj4oO98LoQTFJJIwubyiBjjwu32V+Ib1z9oXv3KPGVjIOk+cQw5PYQwFGYEF8HCfEpCAgCgoAgIAgIAoKAIOAgcDwjvrJ86TbQj8U9L/E1zGSDdFharlp8MbBW4kvCLbfTVrNsY2hSsdzbxdaCbVDo8xXf5I/+OzEnszHLETDjPjPRvyT2O79lfl6NxAw1d36I1KcS2bFHtaybjQzaI3EHxVdu0F5/Kpkf/yyZJ6JYc1goe8wlxLGw7Tmrs6nm15x90yfpGwNJO0vnL2/hmf/3IWYtOnam+9lasr1Z1lzxEy68+ysMjayxPDiJTi2nbUvMBdxH6DeeYnnjsPiChqX4R7nwV2/i3Ec+przOyNIbxqU3vpO6Ttnwt5kMfxy/19/9/MWXfWbDf0Hol+9neNR2GST9ClNNfWhVBiwbTcz02Tpv6Y/i8lveR61c54v8sY3xjaJ8ShZPMzvLU0xMrTmjw3rVHKVpqTSNrimTncnim+4fQde8LRVdrr73RUR8dappciKCqexewPH2ofGmeHwvHz3GV05lXmlJwzeullX5UppUDFanEVc0bI+ie4qvZDEw3JRLSeM42t0limMjyKysoqaumer8DFIycijPz6Skbphtl0s7qeoOpDo7d9hXDqY6b030Mm8PfRtVy9Rlx5LSPH/wtCMjvlYxudUhTmKDICAICAKCgCAgCAgCgsCVCRxb8UUyY97sRjcY6JTf/R5vZqpOsn7E+F79SCRWvdtgRzcmVy++YFFvMBX2GCGfvYnYL91M7FfvpTSkjL09mwk8X/FN+fLnyPnZd4n/ypeI/eKNxN19L111C5hkt1TSoXMpuPcGQm+82VbfQ37MzNqk7ijxlWVHNdRC62OfIchxzs33U5NYx57OU3wtO5M0PvIhAj51M7H3/JSmEw9y6v//AbOSmc2WNAru+7xSZ8xHvkR1/jBarYbZ1JOk3fFFZXvCV75PV/MCRvNR4guyjHY++j5OvPW/FfGV9pfo/+NN+HzsZmLv+BblT/yckPd893mLrxyMNe/MM3Tmdrw/audy98PUZ7RjMFiw7k9T90Pb9Yn55M3kBpQrfXe75C9o9eDkVrr9RdpK8kiKjSc+Pp745BSqOmdQK2PD5Wcs+/QXxxIQFkN27RAag/VFia/VYmK+r5bkmCCi7XWW1tcTG3l0xFfppH6brrwQgqPiiYuJIKWggflteToy+cdTfOWHGdtzfWSlZDK8sodma56ZmVlW1lRoNNsszc8wM7PEvuN0eymOj+crvtrtSWqz4hR2MeGJlDT1saFzRbMd5R4V8RXi66AjPgUBQUAQEAQEAUFAEBAErobA8RVfOeZoNWJaaUDbf9kpv46xvO6fupEILPszSpTyKCgWvQazMpmQba9Vv49RZ3KmH8uz3Rq0tkmc5CMkixGjWo1hfx+DWj7X9ce6Ra/2+G41qA+UZcBoL0uymjHpdFgMOozqfaU8o06P1T0oLVmR26fUJdfn3g6THqPW4Gyne9+sRq3rnH0NFnnCKIWZvU7bjFZYDfbjNDqsJgNGtV4ZDytZTJi0tjYZ9rX2CbBAkut0tFWrd06yJG93b5ujLUo7NFos9jGdkknn4mYwYFLKkJRIvFnvOk4+X2EpW7X9RzJqD7DUu/qoPnCuztF2jS2a7ijkRXx6iq9ckITFbMJoNNoXExbbLGTOWmRZVfabLcp1spiNyvhW92HC7tuscnlu418lqwWT0ezibLVgNjnqM7K7eeUxvo5GyNfS0UZ5bK2r7oPiC5KkZ6q9kGDvIOrnbRF/pafaOUriShiVZ3C70o9kxWw6zMBxuHJPmWwcbNskzPI9J/MzXPk8q9nowUQ+V4ivg6r4FAQEAUFAEBAEBAFBQBC4GgLHWnxtHZQwq8bQjyeiGwpBNxiAdsBfiQTrhsMxzBZg1R0xwPNq6IhjBAEPAlqGK+KJKB5l35Fr7LH/5f0iSVb0WjUG2xTgtohtZy7xSSUs2GdPk9/jG5RUz/zOHga3hzmHWyahV6/T35BLYn4r6gP9kdQTZEeGERQUpCzB0fmMru65SfPhEq/VFotBzURlFBG5Ax6ThDnql8f4/vaHvyS0sJHpVQ3762PkBv2cb/3Ii5mNI3K0HSeKT0FAEBAEBAFBQBAQBASBVyyBV4D42q6NZDVhVc9h3urFvNmJeXvAJrySKxr7ir2KomPXjICknac6N5eOGfd5ma9N9XL0fLy7hoaWTvr7++nrLyMuNJ324VXlXcpyK6SVDnJycsgtb2b+iAmkHC2Vsw1mu8uUY8s7ptA/qyQ7zro+PjWLPRTkVTF7xARkCoOdCWJ9f88DDzzAryP76Ej5o7L+ZGABG3uuDILrozeiFYKAICAICAKCgCAgCAgC14LAK0Z8rwUsUYcg8OcmYNjfZKy/jbY22zI473hR1p+7ZaJ+QUAQEAQEAUFAEBAEBAFB4PolIMT3+r02omWCgCAgCAgCgoAgIAgIAoKAICAICAIvAQEhvi8BRFGEICAICAKCgCAgCAgCgoAgIAgIAoLA9UtAiO/1e21EywQBQUAQEAQEAUFAEBAEBAFBQBAQBF4CAsdWfCVJQrWvZmZ+ieW1o9/P+xLwEUUIAoKAICAICAKCgCAgCAgCgoAgIAgccwLHUnzl95DKslta20JCdjH5FXXYZnVewLzdj3mzB/POEFbduvzS3WN+iUTzBQFBQBAQBAQBQUAQEAQEAUFAEBAEXgyBYym++xotmcVVRKXlE5maR1VNOfqJFHTDYbb39w4GoBsMQjcSiWGuCKt+/cUwEucKAoKAICAICAKCgCAgCAgCgoAgIAgcYwLHUnyrmzoU4ZWlNzErl6X2QLR9l6646EYisOzPym85PcaX6iVoumTFajYjWa8dB8lsxPpS1ufog3Tt+vASkH/uIiQJq9XKS9ktyWrF8lKyf+5ePK8jJKvlum7f8+qMOFgQEAQEAUFAEBAEBAFB4LomcCzFN72wirjMQrLzcxhuCGewPoLVDn9FfLfavRgve4rh4j+x1ebllGH9aBRWw9Z1fTFe7sYZtlvIuuUz1BVMKlWZ1kaYb21nfW4b6xGVG7dmWelsZnv7hUtmz2OvI9G344jSX9im/akiUm67lc7a+RdWwNWeZdKyvrrEqsqIZDWzt7XMwtIGWuPRqfParXmWVtbQGK+2As/j9lfHycrKZHJF7bnjBX/TMVqbhl9qq1KCZDGyu7HMwvImevNRVxvUm/Msr26gM73gSq/6RIk92lP98M4bv+pzrupAqwXNzhoLCwssbOzbTrGaUTu2LSywtmfroNWoYWN1UTl23b7NvQ7JamBrecFWllzewgIb+2b3Qw6sW9Bsr7Iwv4XhwB75q8WkZWN5hR21wfn7ZtRus2QvW2nz4iJ7zpON7CwvOetfXt/BYLb9Lup3V1he27wm1+qIrohNgoAgIAgIAoKAICAIHDsCx1J8p+eXGBjoZLk7mvXOy5QXJ1FdmsBe9yWq43+B9xPfIOzUA0xWPO0UXzkibJjNBenoP/qv/ZUzsz/ZzGRlFzrdc9cuscV8WjzTM8997JWOOCi+a+G3ceIt7yDxBxHs6A+cZdxmxPsnBLzjb8jNuzqbs5qnmEjOYmvbVdbxFF8Lu5NNJCSl0zi2i0W3S2NOAOe8Y2id3jqUNyAZ1ikPv4B/eAT9q66+X3nNxPbSJFPz2zgc9OUWX9PeChXpl/HyjqfnCLmW9KsUh50nOC6Z0auaK87IxtwYU0t7h3hcud+uPc9PfHeZ6Oxm9WqeCRj26KlIISopi9JO2y+LeqGXkrxMcorKKM2LJzy5mukNA0bVCl3NJcT5exHbuOlqHKBbG6WlpZKyolLKysqUpbQsl5z8WobGVjj46yKfbFTNUppwmVMnMpDzSw7+LA2WEuLlT2n3rF2MJZYHiggPjFbaJtdTXlHJzI7tzP3VDrITc2x1F2aTmJxKTd8SZovE5mgtORkZtIxvcw2eUxzsivguCAgCgoAgIAgIAoLAsSNwLMVXTlk2b/ai7fdF03uJ1Y4ARhrCWGn1Ju7C9yiN+inrLefY7/H2EF9tvx9W7VWZyTW4kDrms/9I9g+82byKQLTEEBWffg/5xS+8aUeJ76l/u4PYB+6ht8NzHLRxvpHCX95H5Dv+hbyrFF+TLo/Mj36ewWFXG4+n+GoYqc0ks2oMkwWb+GZHEhQYRHR576H0XPVEGeejkkgJDb9K8dUw2phDTsWwM2J3TcQ3LYrQYH+iKkddF8i+tjeSh3dEPKkxSVcpvnv0laWQWz/HC8mmfj7iKzFJ1gUf2hcPNfvwBll8a4uoHVxGjs3K9TRnhJNdP4HeApJxm/YMPxLKJxT5dLTDXXy1y/3kxqRSPTTMpta9CgNLw12UZWbRPLrsGdU17zFcV0h8pCy+mYfEV9ofJTcsCP/LES7xlSQW2/NIK+xi54hEAu3mHDNrdts365lsyycsoZQ1OSRv0TPRVExx/SgeTXRvrlgXBAQBQUAQEAQEAUFAEHASOJ7iK1kwzBV4SK269xJj5U9z+Y/3kR/6I2X9qHG/xjVb6qeTgBzdWW6k6Jb34f++9+D/7h8zrYThjKzXhJP+szOMh//Mtu+9n6HgmSLkP0Ullmn+1kdIP5NKw0++aNv/rl/inoBr3agh+6YbbPve9x5SnwhxRkNnA+7G59//mbOv+xd83/0eUkNHABObTbGk/8977eX9kWVAP1FD8bc+jtffvZqzb30PIV+4k64WW1jVupJHwvvtx3/uQXqapp1plNLuFO1/+Iaz/pAnvD1SneWI7/k3PkaFz4/JP5nFvjOMpWMh+zLFTz1J1sf/y0N8rdutFN/5eVuZ//15yqJaFQHYzvsNl9/7Fs7+7d/i/Y73EPfbOPb3TMjiG/2bKGofs5/zrl+z4Abful5J5mc/5mxj2pORbNsjXvJh0kY/tT+7w7k/4vETHqnOVqmOnA/Yrl3WuWzUGrfCX/DqPgOVaeTWTmOy2sU3I4bskgLiI5PpXHdZisQmjfHJlM33k+XvKb6mzTbiAgIIDAwkKKaU+X09ksXEUFUsPhe98LrgQ0BAIHk9uzjEt7uhiMiwYAIDQ8kq7kXl1gfVXAMx9vLkMismXO1QWC23KnXJ+wIT0shNinSmOssR38qkOIpqCokKTKTPLSovsUZ1aCylYx1khXmKr3qxiVhHH+IqWTNasOj36SqN5tL5c3hd9CUgMJCyAbmlBmY7y4gJDVTakZjaivszHdNUqbN9QZnFlEdddEt1lkUuj/Bg+dwQ0vO72QX2JuuJDPPj3DOn8PYLJCa3gTWVCYkd6pNsbAMD0uha2rFFng+Ir3WnlZiAULoWXSnK+sE0/CMLmdfYxFhOuXaJ7y5deXFk1C9jwsLGbCvJcv9jsylKCaZx1szyaANZeVWsqByxVgtbs53k5JTSU53KmZOe4qvIddJFUst6KU+OdRNfK/NNWaSW9LHndp2vtLoxWkdkVDbzWiNYDUy3VVAuxPdKuMR2QUAQEAQEAUFAEBAEPAgcW/HVT6Z4iK+q6wJR5x7gkW9+nsfu/wJ/eOw2j/0OCTYulHkAkL8sxp1jak3+I3iT3p9/hpMfu8AOBpYLvQh7y6sJ+32horpbXUFEfPQuehoWkJij8tN/xbn33Uh7o5z+OkDZR/6DCz8qwSpHpMfySf6f95KbIqsrSNpZ2n97O6EPhaPRyn+EH474mnfWmM5NYlUlt2WJxlv+kcD745FHKh6O+EqYeqIIes9XaJ+Sa9CzmHWS0E8/yE4a+7MAACAASURBVMTcDpJJxcip2wj/7inW7MHcnh++jmfe8SnnGF9ZfC+89UnGevMoevJ3LM7arNG8PU3dnx6lrbqMqi980Cm+lvl68u68i/KCCaVPe2P5pNz4BerzB5To2pER34f+Gq8PfFERdYk+St7/Zi58OQQVEqaRbBI++x7yMmy5tZJmitbHbyXskRj0BiuSeomu39xM9M9C2ZEtCGh58B955v23KGN8rdZG0l79V+Sm2EKBK9XVrG+7q5btHOtCMjf9w2t57Ws9l/94272Ur9iO8fhX2qOvIo3cuhkP8S1omWC0IZaIqkX7wwWJ3fFaIvI7kRh1E18J01QZZ71iGVLarWOsNg2f4GI2lCGaR0d8M0KfISSvG53JilbVS9z5YMq75jFixTicw4XLYfTa2yvtDRB97hQZbZtI8v223EVEkC/FY7ae7Mx2kxh0ijOJtgc9DvGt6J9ntDKImLo1Zx+2B0sIyO1Hr+l1E18J01g+3pdTGVesTMtASSxeQZVsKX04HPHVr88zPDmL2mz7XSoO9yWrdhw9EsbJMk6fu0iL/cnQcnc+ly884xRf7dIkgzPLGCxg1C+QFx5ESfsscpL9URHfzfYSehV5NzDdmk9AcD4r8gOrg+K7UUdMUCZT9uG+Mh3zWh1xodlM78tl28YaO8RXs9BDUnIRs/sGdHtdZEWkMr4J0lILPl5hdGyCYWuGwsxsehZssq1XrVGSHE7twDLr/bmcdRNfeXz4eFUk5yOb2FRvUJvqKb6DpaF4eXkpy7kzp8gfNGA5YjSGVb9BS2EckbldaI1Wm/i2V1BeN4LmhQ/B97jtxRdBQBAQBAQBQUAQEAReyQSOr/hOpR0S281WLyLPPEBr+m8O7XOK72LloetpNWjY7K5murqKiaBHOfmqR5mzi2/4TQ8yMWEb/2daHabi67dTGtuCgTmqPvu3RP6ywDnebz32Xs784+MsWtYYOPNt4n4cjUbtisppu+KJfv89dM3LJnFYfOWGmffWWGmzt+Xinfh96BRrR4ivZF6l98k7SP5dtNJuue1T+aGkf+bzlBXOo1+JJ+FDn6e7zRVLOirVWRbfpZ1R6n/4QyoyO5Q03p1OXzK+8QQLqyMu8bVqmUv7I+kP/Yr+giqlzqnSTCq+dxdZp3LR6OFI8X30H4l5osjFKPpuzr3xNyxZVuh7+pvE/SwRvc71l762I5qI936D3jUduwOBJHzmHob7XYM73Se3sm6UEPuG/4/coKYrTtB16GI/1wbJgnppmLLcXJomN7FIroivLL7a9S6CvOIZkCdDMm/SUphOec+ah/hKlk3qEy+TXDfN9LRtmRqqI9I7mAZFXI8W38ykRPoWdpXIpcWgpjUrmtyGMTTmaTLOnSGnx83egJ2OWPyCSlg07tBREE98qd16lT56Tm7lLr6G1RaCvZMZVZuRTKvUpCdRNbLvIb6SeZ2KiPNkNLj1YaCK4DMBtMk3JIfFV95q2N9kYc52TnthIskFPexaFikO9iWh1RW/dgin++RWskDOzU4zPTlGQ3YS2TXDyI9ijhJfuS7Vqp1tdxWhvumMyHnpB8V3LAvfI8Q3OiieYVloD4jv5ngj2RWt7OstTFYEk1I1aUuJ3hsi7kIsvXsgqZepLi5VxNeq3aQ5O4qc6lHlAdWOu/ia9cx3lxMbW8aCBKaD4qtcJ9c/e+M1hPqdpWJIjet/DdBvzdJSnkpoRB6jq44x1RY25zsoy69kYln7gtLNXTWLNUFAEBAEBAFBQBAQBF75BI6p+FoxLpYfkturEV/zVq/HVZWYoffpP5Fx1x0U/vEPlH//C5z4P484xTfinl+woogqHBLfG/+OuIttzvKc4qudo+O3XyX1qTx0zvRhsE4WEH/D/1LTKocBD4uvYbuX1p/+mIwHv0Op3JZvfezK4qvqo+LeTxJ866NU/vEPHstAxxba7nNE3nALI24udCXxXcbIStbTxPzAj13dBv2/v4388B6MuMRXMmwweOF+gj9xK0W/8ayvs7gbg+EK4ntgVud1u/guamZoffwrpJ0qweA2d5Z1PIeYj36Jum4NW1V/IPrmB5hym9DLXXxhl6mwP5H77S8T9dVHqAnNZ3v38ExhkqqfWK9znDvnufhdzvCIBCoX0mpibbiV4pJGpne1NgmVJ7fKiEEWXx16hnJ8iK+YYnupn9y8Sma3dZ7iqx4nNcCbsPQqqqo8lzHlGcrR4us+q7O7+KpV/USePU2lEtl33m5Yx3O5FJDGxMYqdVkRZDQtuXZyZfE1oqMn05f0+lk2Z9pJy61jTWvyFN+9QWIunCUy07P9cn8mlUjrQfG1oFqboiY9lYyiQqXfufHhNvFVj5MW4E2B29Bih3DaxNfE1uI4lcmJZJSWUlVRTkZ05LOI7x4TLc1kRUWQV1VFZUEKfudTjhbf+RKCAhIYcUvtNs2VEB6aw8wREV938e3NPU+pksIN0mY3oV7ZTMsPp3bnKSsuZXh5g/maaM56BZJT2UhjYyMVmeGcOhlKQUs7PV1tpIVeJiqzVNlXV11GfNBlotMKqB+yZYK4XTBldbzYh+i8fkX45dTxpaF2ihL9SMhvYWxhx02IrexvjVFfXEzH6JbygOZgWeK7ICAICAKCgCAgCAgCgoCLwPEUXyQsu6PIk1U5Irny53OJr27AH8noioDKGCz9Xlz+ty/QWjmnzI66V/grTr7qRYqvZY3+U98i/iexaDWu2I2uO5HoD3ydztmjI74bub8i7JM/YLhvXfkDdzv29iuLr2mSpu99gfiTta6r6bamX4ohXo74driihLqNPBI+/OlDqc7yn+CmrUYKb/0K1f7niPjo9xlflRNUXeKLdZeJ8B8T/+BFtjYdYxvdKpTLuIrJrRziK0d8e5+6l/hfJHtGfDtjiHzvPfQs69jt8yf+s99gZMA1cHd3JI6YGzxfZ6RfHmAs8gwxn/skpVm2NGz3lknaOWpyssnO9lwKC5tZPezJYN6ms7hASV09GPGVD9dvNZHkH0VuTiH5DYOozXKysSvVWTIvUBTkQ1K7573matPzE1+NaYr0c2fI7XVFvuWydjvj8AsqZtGwTXt+HAll7q8G2qO3OJFLSYdTneXnDPsrdaSGxpGVlkdxxyQGq+QpvqYZsi6eI6vbdf+42i+vHRBfk5rBmnTi0+tZUtueZIxVxNnEV+YR7OvBQ2Kd6nAfW6qz3P7iFJJy29g0WJDMenoL468ovtJWF8Fn/SnrXVMyCXTz7URdTjtSfCXjNDkRIbTOuJ5AbbXFEJrSzLaSku2Z6rw320lqcSMqrZnVljiSCgbYZ5+RpgKCTkfTpzKxPFRPXkkL6xo9W3NjjIyMOJeO0jhOn4ymfnyCmfllZsdd+wZ72siMCCa5qI7BBTcTdwM7UniRhMop5fd/c6KOGN8Y6sbG2T54n0pGZrsrKa7oY881fNmtJLEqCAgCgoAgIAgIAoKAIOBO4JiKrzw7qwr9dMbzEl/jiiyJngPizFW/4Nx/foieAZAnbiq4+b848X9+8OIivljZbYgg9hPvoDDDNihT2hql4Uc3Ef/7LDR6uQ22iG/C155kecH2V+1q1H34f+khZubAulJA7Jv+/pD4Rvk7wp8WNvOexv/d/0Gl3X3lcZ8NEQXsb+mwaFYp/8q/kfTreHbs3tj383/l1NsOj/G1xZ5MrMb/kPNv+AeSLw8pf3h7iC8S6p4sUm96JzmRA8o9JEeBRwszmOq09VEW35T3foq2Btcf9QdndXaKLxZ2a4OJ+tjbKcqxpZJLG4PUPvI5Ev5UgM4oYVgdpOALbyXjTB5qu7e0/eBfOPU++xjflTxKw208rAt1ZH/5y5Tk2d5R7H6TP/91eXKrDPLqZ5TXDSmvM3JGfOXSzPTn+3MpPJ2BBbVyR7mLL1hYaUnm7MXLzpmIJfUkBdUOMbWJb3x2O2qDLc3bMbmV4z2+7hFfLRYWa8PxDoxmwD4pubTcit/FM5QP67FgZbGrgECfcDrtb+XZne8lOfj0kWN8ZS21mjW0Z1/GJzqfiTU5Yo2H+Mp9WKqP5oJ/uGtc8f4oGWWOBws28Y0rGLDNci2nGJdGEV3Uya5e/l1qI+zsRUV8VVgYKw3m7IUERu3Zzit9hQSct43xlbTrNOaGk1A5osxyrV1uIOSMr4f4pnt5K+nYMn1poYHzZ89SPSP/P7BFe1E8508mHCm+YGW2IYW43BY29SCpBog9f4aaCXmCrMOpzlbNHCVJqTTNqjFrtiiL88LHN5baoVl6ci9x/tJlYpJLmd42Hple7JHqfODGO5jqLElWRhpKlUm25EN3+vO4dCGcHmXytF06smPIbFxVxs8fKEpMbnUIiNggCAgCgoAgIAgIAoLAsxM4tuIrd8uimkQ3EuEhv+4RYOd6vw+GyVQkq+FIGhNeX+Lim9+E9w0PMZT4FJfe9BsWMbJaEUDiD55ifckW9TKtj1P38IPUpHViYJGGu95OenC3s8zNtEfxe/dT2OcfwjoYT8gH36GUffHN7yXjqVRUbu8eUWYsfsxWd/zlQcy7i7T+7DO2tvzPn1itfILwL/rieK2qpdNf2ed3w820N9gMZyvrp/by38TFj3ydzrpJZzqkZqKBgtve4txfmt9J4f2301Juk8WNxO8Q9LGzyhhiuRPW1SIS33U3A/ZplyUmaPj65yktc0V49xqDif74O21lvuvjFAU3ul7rYjUxF/Y9ZV/ET8PZU5kYfOK9ZIW70ss3U75PwAefwfFSKUt/NEHve5u9jf9F5jOZ7LlFt/Z688i62dWHsrRKcr/zbfqabWm9o0+81Xbumz5EfmAlOre0aeeFed4rB2Z11u/RXpBKedeMc6zy9lQdeXlNrNuFXB6HWhSZyLDbW6FWW2K5dOmSsviEFTC754o6SjtT5KWEK/syO3fQrE9TVFTIzLrtKYXVqKGrKIXStkkcOLb7cpzlXfKOpG3NlU0gd3GuKdG5PzqrkNrSPMLzupTem/bXqc9Op25kyfbeV8nC8mA1hWXd7NiZGbRDFCVkM+k2P9hcfYyzTJ+IUlaNrvCitDlMamywsr+wbxf9xiSFyUHKd9/YVkY7i8gulyOmtp+RIm9nWak1HTSmRxBSKicPg3Z5kMzYAGV/cFIzvU1FFDWNO1/VoxrMVfaFZdSwsmtiszNF+e4TGEd9fRWJMUVMmA+P8ZXLlgW2KTfMWXe527MRR8q1Y3Ir+fjl7jwCwotZ1Ogwuz8ns5rQaQzOWdOVhh/4Z3e4lMuXCj1mLnccIrejOTeN6n55wjLbz976CFlhNi4+F3NwPNaS9MvUZMbia79/HPfRJe8IGud1QnwdUMWnICAICAKCgCAgCAgCV0ngWIsvkgXLzgj6iUTlnb5O0e275JRh3WAghtl8rDqHPl4lGXHYXzABDcPKe3zHlff4/gWDOH5dPzC51XN14CjxBS1jtbmkJqZR1zPO+LhtGRtopCS3E1c+w3OV/vLtlyx6RhoKKW+Sx52LH0FAEBAEBAFBQBAQBASB5yJwvMXX3jurbg3TaguGmRz043HoxqLRjydgnCvCvNWHZHLEnJ4Lh9gvCMgELGzPtJGRlkv7pGsmYsHmGBCQxbcyldj0Amr63N+qfbjtpv01+jurSAr0cnuPr+s4094MbXV11NmX+o7p60Yyt8abyMnIoWdOTiQXP4KAICAICAKCgCAgCAgCz0XgFSG+SiclqzJxlRzZlUXYqt9EMmtAcs9VfC4cYr8gYCdg0bG2MMvClis9WbA5BgSsZvY2FpicnGRqaedZG2zR77M8P60cu+TI937WM66fndrNeeaXNtAL671+LopoiSAgCAgCgoAgIAhc1wReOeJ7XWMWjRMEBAFBQBAQBAQBQUAQEAQEAUFAEPhzERDi++ciL+oVBAQBQUAQEAQEAUFAEBAEBAFBQBC4JgSE+F4TzKISQUAQEAQEAUFAEBAEBAFBQBAQBASBPxcBIb5/LvKiXkFAEBAEBAFBQBAQBAQBQUAQEAQEgWtC4NiKr9VqZWl1g7q2bnqGxq4JLFGJICAICAKCgCAgCAgCgoAgIAgIAoLA8SNwLMVXkiTGpuZIyC4mKjWP9MIKJLMe81Y/xoVSDHP5GJcqsexNIVnNx++qiBYLAoKAICAICAKCgCAgCAgCgoAgIAi8ZASuufjKkVqj0fiiOrC6sUVcZhGRqXlEpeXR2lCIbiAAbd+lA4sP+rE4LKoxsJpeVJ3iZEFAEBAEBAFBQBAQBAQBQUAQEAQEgeNJ4JqL7/z8PNXV1ezsPPs7Np8NZ2FVoyK90Wl5FBWmsdAWhLrX54D0uiRYNxSMab0dpFfWSy+1U80MlXZheDZYYt+LJmA27jE7Ocnm3iuH9PZcHxMLO1zP+RB61SrjE3NozFasZiPL06Msb2mwvugr6lnA3vIIA+PrvLjHcZ5lim+CgCAgCAgCgoAgIAgIAtcXgWsuvgsLC0RERJCSksLW1tYLolFU3Uxafin1VZlMNYdQVxbPRFOoIr6zNSfJDf4hyZceZqb6hFOGZfm1qCZeUH3X50k6pvy/g/dnfscLo3iNeiVZ2Jhso6p1gC21GfVsO8Ul5bQNrhwpGvsrozRUFdO7dP0omVY1QUZMDO0T2x7QTHtr9DRXUD+44rH9+v+ipSnuNNH5/Whe9sZqme9vo6K4mOLiYirrWljeu7pKN0ZqiYzKZl5rxKRTUZEcRHnXPC9t7oaevlx/vCKaUF1ds67yKCt7a5M0Vdr6Lfe9rLqeqfVne3iiZayhhMbWSdSHarGwNT9EfVkrS3o7AbOG2cFWyuxs5TpqW3rYcLuoM52O+qsYWt5XSrUY1Ix3VdMytIDupYV5qNVigyAgCAgCgoAgIAgIAtcLgWsuvnKqsyy/fn5+xMfHvyD53ddo2V4ZY7cvmJ1uX1oqYynIT2Gn05vc4McIOfltquMfZ6XprFN85TRo/WgMSNeLUBlYrQ2l5mwiu1fxF7fENG0Pf4P6JsetY0G3PMnK8MJ1HbUzG9eoTouiun8Fg1lisz2BU5cDSUysYkXn6IvtUzLt0l2eQ7DfGXIGnk0QPM97ub8dLb4W1idbKEgIwSe2gd2XuxEe5W/TVZBB3fTVZTBYLNPUZOQz5fR2M3vry2zsaF/y6Kl7M83aHTorEkgtamJyZomlpSVmx0fp7elj5yrCqy+H+EosUx0VRa/zWYUF9dYqKxtqro6mew+vvD7bkkZSVhF947Z+y32fHG0lKzqFltHlIx/67I4U43PmFGGx9WwcKNq0t0JNRhBnT8bSt69X9krGTVoL08iu6mF+0VbP2uYOBvt/cTv9udT227ZPtJUSHZVK37aEZDGxN9dNdnIh/RuHFftA1eKrICAICAKCgCAgCAgCrwgC11x8HdTkVOdLly6RmJjI7u7z1AbJimm12UNqZQFebL5I9Lnv0pz2a4997mN/LXvTjib8mT91zGf/kewfeLN5FSFbiSEqPv0e8ov/zM1+ntUb9QNkhcYzsm47URbfs6fSiM0Kp2F406M0/eY0+SUJxHl7k9d/nYuvQUVPSRaFNWUkBPuQN+LRlZf1i8Q6tdFB5A1e3UMci3mYrMBoBtde1mYdKnypJY2ojHrWDjzgOHTgFTa8POI7Q+Yzp2iYvUKlL8Hm9aYILgdVsHpEWdqVITLCk2hf9XzaJe2PkXI5mvT00MPiazUx11VMfHAIvpeSXeKrXqY6PYv6qbXnlHZJPUlmiA95w5LSKkm/Qm16Ed2rz/P/3iP6JDYJAoKAICAICAKCgCBwHAj82cRXhjMxMcH58+cpKyvDYHgeoiNZ0M9ke8ituseb9qwnOPurrxHj9V3qkn7psd8hv8aV+kPXRTWQTf6dnyTskx/F9w230TKwjAUDy4VehN9yP82nHyXskzcQ9P6PkPDdYDbUJiTmqPrcawj+3hkqHruVsE++nwuv/iqd8/Y8ToOKzaZg4j/5OeXcsI9/iPiHfs9Y7yZWq8R8+LcJePeb8XrjWwn62A1kx4wjmXUslfiT/uVPEPbJD+P9d3fTN7OFdqqBikdu4uJr/4bz772B6Du+RV/HDovxj+DzP/ZUZ7Oe/aFcCu7/KmE33EDYJz5O9K130F4xj9FgRWKGshtfR8QPTlH68C1Ke8//1R30LMrpjya0SzWU3XUr4Z+4geiv3E1fh+pwNNCiY3V6lO7OTjrdlq7OAZZUR18/o76frJB4RuwhLFl8L1zIpbWvitziFjZ19j/EJSPTfdVU1NRSFBXiEl+Lkd2lPnIS45QU+bDwSDJKutjSydcAhrJP4BeRR2FuLJFJFcypdBjlFOTyePyDI5RzEktryQ06S3L9gu3amzSsjtcSExxOREQ4QWHJ1PfPYbBKIFnRrY5QlBFDcJjt/NC0LBIiPVOdtVsz5Gck0Te3xmBhBKcTOtDZPVRin470AM4lNtNelkRERAh+56OpnZYhSGwv9pAYFUd1aT7xsZGEhQUSFVvJoqMAg4rJ7nwiguT2RRAe6k96wxw7GjPGnXlq8qPxOXeGi/7hRCem0z2nxWLYpKs0VTk+NDiM5OxGVvUmdkcrCA/358KZcwqP1Mo+1AYrvVluqc4Kj0oi/G31RYQFklzSybISlrWyMdNGbHQSDeW5xERFEhoSRGxKHSt6ucNGdlZaSfYLUerOrOxhW2tBMi9QEBVCy5T20O+bc4Nhj7mBAiIC7fWG+pNWM6GkxMvHPKv4GnaZ6CoiOkQ+NxT/0GwGV1U2AbQY2N0eoSg2VmlTRFQCZa0TrM90kZ4YwoWTJ/EJjCAxr4aFbSOT5QGuVGeznq25VpIiom3nhoeQkFXG6JIG+fbQa2bIigwmr7CYzGT5mAACfHOZ1Nhyhs26UVK8fGldkjBol2gtyiRGvo8SskiJi2Jg3cB0czYxhX3OTA2zYYvOkhSymmZZrD0svqrVXvJS0mhvbSQuwCW+1r1FKlKTKWofZHF5mZW1dezNcCK2rVjRbQyQEhFG3YwQ3wNwxFdBQBAQBAQBQUAQ+Ash8GcTX5VKRU5ODmFhYYoAyynQV/0ji+9kiofY7ndfpDzmZzz52G14/+4bpPk97LHfKb4LZYeq2WkqYl3xVTVzfvdx8m1/Ys0uvmHvfhe5kW3KOXsjWaTceCfNJaOYZfH9zF/j8/kfMj6hRmKRjm9/DK9bolCjZ7sykMTbv0Z7gy2/VE5LHAv8CeG3P8OqMknS4YivVbPHenczKsUVdhj71Ufx/0ow8jRgR0V8XeIroZ2uoPj+2yiNbcEgp5FKZjaq/Em45bv0ty9hkcX3U6/B/9bHmZ7WKOLeetf78Pl6AhrTAp2/uYuEJ3IwmSTMWi2bw0OHxlLKUaKyaG9+8aMf8SO35cc/epqCAc/orQOyfq2BhPA0JuxzmSnie7GIqa0ZKgrylXGH8p/iRs0iVTkZdM/NUh/nEF8J7dowpTl5dM7tKaJr2F+kIi2Bio4ZDFab+J73S6JrwTFwdI/uFB8is2qdY0nXR0oJ83aIr5mtgVKiU6qZVbI8zWxNtRAfns7QtgGTbon6zFjyGsdQ29NxJ5qSCAiO9Rjju9CRQXxKJcta0ExVcOGED41zNvl3iO9p72g6F+SLqWG8JgOf8CpUdvFNuHyJtNoR9GYJo26W/IgIyrsWMKFmpiKewMRiZu3BOEm3RGWcDzEFo8ilHRXx1W8sML9tk0z97izFCfHUDC4p1/CoiK9LfPWsdhUTFJ3OkD0qLxm36SqOJzCpgz1s4hvj50NW0yRmq4RONUF2RAy1/cuYjBMkn36GwgFb3XsbG+zp9Vg364kKiONAUN9xWyhM5mtT8IvJY9qegi3pV6lNDiAsa0gZe3wl8TViZLkhlpicDns02cBCRx4+vrnM6yU0K4NkJsVS0ml/0GE1oNpZZ18nszsc8XWJr5mdqVaSE1Nom7YPlLVomGwrICqhkhWdWRHfzIDzxBa22wSfdSoj/EmrGlcmmVvtSMMvtRe1WcNgYy7FtcOoTWCdKyY4KJOpfdDNNhESW4n8G2M1ahlrLiWjoI5VrfGQ+OrXx8mPDqVqYJmd+U4P8TVrNhloraCoqEhZ0mMDKGydRmXLhAb0zA3KD6laqCwtpLh50slfMm3QlJVF/fhVpJs4zxIrgoAgIAgIAoKAICAIHF8Cfxbx3d7eJjU1laCgICYnJ7FYnufoOll8pzMPie1mqxeRZx6gNf03h/Y5xXe59tDVMqtW6b/0CLmPPEzOXTdw4v88wpwj4nvro8xN26zNtDpMxddvt8mlEvH9W2KeqnJGbtZj7+XMPz7OonGJnqfuIfHXKWi1LqE3DqYT+5E7aBmW0xwPi6/cMO10Gy0n7G259X34fegUcobqs4qvZGG54Eni7/gFc3Ou2WosawNU3n83hbIMW+SI7z+TdK7e2d618Nu48NYnWTatM3j224TfdBs5J4tesgmPpI1B8hNzaRqfR22PhjrEd8m8z0BNPrmNIxgsEqqpCtKym9gwbLjE12pgpruIyJBI0rPzyc/PJy83i/jwAJJKe5CDzHLENySp1TnGVtIOEvPMaarGXYNIJbapDDujRHwl4zr1GeEEx2Qq5SllZicTdMmHomEt+8t1xIelMLLmSiM+OMZXYpXS8ECy66eUsZqScYFc3xPEZPch67dDfL2S+5xjOVWjlVw+n86kM+KbxMD8riLzVpOOjpwosmuGUevGSblwjoJBzwi6biAdb78sZhR5OzrVeWO0zsYoJ4PowChKe2YVGXtW8TWuUJ0USkqTZx60YaYW73OxDKgdEd90xlbskyPpVDRlxFDQMoHWuEi+/ynCUkrpGFl1PiyRxTfWLnqHfuFkRvopsvwvktXntDTlMN1wLl7nU5jUXjnia9BNk+l3htBE2z2hXMPMWC4+c4GmeT1THQUkZNWzqT78/8qziq9lj/7qVJKK+tAYbZFRuVGmtQESQ+NoXtXZI75h1A2uOTMixsvCic1oVx5QzdTHEFW7gnF/Zl2WhQAAGoFJREFUk9rCVLpmbJkTMo+EkBIWTSCtdhEeX80mEhvDdaRnlDC6plbKc4/4SrvTFCZEk9e8oDzw0BwQ34Nct6c7SU+IoW1yx576rGdxpIeenh66WuspKSqgZ9lxlpHN+S5K0vPdxjs79olPQUAQEAQEAUFAEBAEXnkErrn4ymN75Rmd5fG98iRXzyvS6+Avj/FdqT8kt1cjvpbdMUcpyqeVFvI/9AkS7z/N5OAgKym/4uSrHnWKb8Q9v2DFnr58SHxv/DviLtqiwXJhTvHVztHx26+S+lQeOre/662TBcTf8L/UtMqhvMPiuz+bRfp7biT3ZDTzg4MsR9x3leJrZjHtZ8R947csOv+wBWlrhNrv301OcB168wxlN72B1MAuZ/+d4osV4/Yy67W+BP3r2wj4xOcpCW489JokeZxg9O8e4IYPfIAPuC0f+sCtBNYvOst1rhjVLDRnk5Lf7RRTp/giy24LccnlLOs3aEoOoLRvS44vusTXomOsOYPYtEom5tdZX3ctO/s6LJJNfMMye5yz4Fp3uwg5dZrGOWcrZNV0ia9ugZKEIJJrpjzKk8tW6ayoZsqJiUxjwi0QdlB8rXMlnHvmNBd8AggJCSEkJBDvMye5FGiLcDrE93yO6147JL5xaYwu2UTSXXz39waJuXCWcldwTumIdSKfi77JjO8dFfHdZ6S+kLAL8bSvr7O2MEl1RupVia9at0BpQhDZnZ5jPaWlZry9wujctIlvXHw2M+u2KKjFTXx1WNBsrzPWkUPART9C4kqY2tIgmQdJ8Q2ndcYWCXZdDduatD9Kst8FilyIbP2cLuHc+ViGd59FfFUDRJ47TX6X635w3BtqnYaRhjSSC9rZOWJs8bOKrzK5WgKp5cNoXc+PlN+jlIhoama1NvGNjqRp1HWDHCW+hr11aopSGV62NcI6lUdIWLXyEEs9VU9odjsm6xblkec4e/4SgcHyfRSCv/cZzpy7RGBKAeUZcVw4cwafQNu+IH8fzp0+h29QsCtt3w2sWaeiMS+Bqt5F5wMIx26rUUN/SSiXCh1zHOwzVJNNfvUor6C3dDm6Kz4FAUFAEBAEBAFBQBA4ROCai29HR4cS6d3YODhv6aG2PesGq3oe3YC/h/w+l/jqBoPB6vYXLWCu+gXn334v4/Isr5KVjZRHOPkqV8T3BYkvW4x4P0zM9wPZV9nrkyT2GsOIev8DDG7KObY28c36wUU27FnCq1HfI+TOEywruc0WlnxvPCS+eYWuSJQr1dnCepMPCTc/xMSQY9IcCf1MC0VfvZuavD5McqrzFcVXQrJakexFr0Xfx+Wbv8v0SzABkFE/SEFkAXP2yWNd4itf3k2aUsLJTE3lkl8ZyiVwF1+MzA+Uk5BYzsquWwRXcrVVjvi6i6/ELFmnTpHfva1EU+VarNYJUk/ZIr6wTWt6FFGlk8qYTdtNJinjruV1jaqblKB4euZc74RRbbQR5Wcb4yuxQ234KULSXbItn/d/2zsP4KjuO49nLjPJJI5zl5skd3N3c3eT3E2SSxznHFziJE4cdzs4wcElxiVuGDgbx4DtEHChmCZA2BSDEBJNFVClqKLee28raVd1VVZale2773PztkoIN2KK8E8zj13t/73///f//P+r4ft+5SkMcXLvNk5kt2L25vheiPCdoIeTWzcRUTAYsE9x0Ze3n+CdnoJJvlDn+DrP3lKMnZw8Gs6pOk+ssn1cT0ZE+AzhWzvFqRsIdTZQFKvyaJ0ynsJw7UmCNhynwxvq/OHCV8GpJr+qDNx27CQyv8f9e0HkFiISyxnxtrvPUVTWas55H6m7thGeo58yrgt90WG2BJ1CvX/z4aHO3SRtfpeooimMUHCqd0Kw0ll1hkNH09H7vnsoKOqeca/TR4U6q2HH8RyMLcBo9nmLFcY7Szm4K4raCevHCt+R2gQ2xdbhso5RlXKC5KIWxh0dnAgJ4eAu1WvezdnYaDKnCGc3LO8/Uz2+Uz9X38/w+HpZ+s6zjg+Rclzdp57kCKfD6f8OqH/b2jJD2HDcc6dBilv5qMmrEBACQkAICAEh8HkhcMmFr8PhYHJyEsWnsi6QtOIwYes6g6lmu1/8Gko3kbBnEbVJf/V/5gtxNtW+h8NQPWM0Z/l77LvxR6SF59GZHknyg2qo8/N/m8dXlbWNZzj16ByOrElEm5dHZ/JRTj0zl5MHirG79YoVfXowkfMWUn4ig76uSYYT/kLo/b+n8FgenWdCiLnx36cI3w5KF9zGzpej6CqtZGzUPq24lX2ojeLld3NoySaaM/LQZmdQ/Np8olbtZ9igCrOPEL7mbpoSomlMznDbWvP2U0QuD2PI45CcwezTfHDe4lZbTuKRRjDelsH2DZuIr/bk6CrThC/YRrs5e3wvh0+X06nVoe1so7yygnbvM0nPFb6qbZqsA+wPOUJxkw6dTkdl5hG2b/Ll+MJEZzFHPthCbL6nXaupIb2wCavNicMyQWH8PiLi02nQeNpz43cTtNOT42vuyWPnmiAKp3jWfTx6K+IIjUija2zEXdzqQoSvKrdHG04THrKblHKvfWWn2bU/nDIfNEaoPBHG7oQqurp7GR3sIS/xAIfPVLrnW19ymr1Be/3C1+Xs4NT+/ZwubKZ3cMydpxsQviqPEqJDgwM8avOJjjjE2RbVW/nRHl/TRBtpmdXucbUNZSTGHidf40kNmBztIPVwCLFn8mnpUOeipaW+guLiWtT7GMbmdML2BnOy1DvPijRCwsIp9qbmfpjwVb8+o3UnCdnzPmk+Ri0lxGV77tRYDTqy4kI4klKFVqdD195MfUM9+gn1e9DH2d1bicyop7t/CLPdNa24lWWglZToPRzNaPTMqbmalLgjnCztwub0Frf6CI+vGhURvX0n2ZoJjPpWUk+EEX4gFZ2iUJMWRlhYBGertFh8utq3ebyvn0b4moZ6qC4r9LLVURQfRmxqKUMWdZ56ckOTqdBq3fNoKkzh8OEwcju9NymkqvM55OVXISAEhIAQEAJC4GoncMmF72cJ1GXWY22PnSZ+/UK3eqtf/JrrdmLryZzh7fXZoj+1jTMrlpOyPpzeogRSV8QygoOxhkyKDsYzNuKJV3aO99NyMJSm0k4cjNCyayWlZwMxtROlh0hfFY/P5+rqKSDr7ZXuvs+sWE1ZfAnmgOMSZbyb5sOesQszenGZRtBEbvTYsiUeY+MxcoLS8OlPV2e6uy19/VY6WicwlsaQvTuQk6sYWqj6YIN3vNfI2RnPiN9xaaB591tU5gVCkseL9pO59qQ7L3W89jT561a4r8189zCDvlpRPkgX+Hqu8FW9VmfPNvgZqQWNSjOL6PLbOYGmtIC6vkCOrXW4g8KcdFJTU0lNz6K6bdAfytlfk0Jhdc+0sGzVu6cpT/Gcn5pKpa7bH+rsm8akrtzfnnq2jO4Rk987ZjHqqcoPXF/fPUR1SQm6QRMGTTFpKdXufE5fX75Xk7GTotxyeg2jdFXlklnrrRallhkaaCE3s8qd12kydlNeVsWAtxK2+lxVXW0xNW16f06wubsyYF9KDprR6UpJGdWQlpZKelYemgEr1qF28rM9jArKW2lrqKGpx+DJ51YURjrK3P3lVnVisbvorUmjpK7PP54aFu/mqzJOyaJON+IOJVcl1IRBS2lZLYZxz+ZVQ7M7qkuo7xxyr4O+Ls1zbUomVa39WKeYah/rp6oo0993TmEthinpy/b+an9bakoOrcOBxokBDUXFNYzanTjtFloq8mnuHvU/umewOS9wbU4941M9y+M9FOWd9bRn5tLkrl7uWSmn3jNmVnEtQ+MOhlryyCzqwJeVoBi15GRleK5NyaCsQYfJux3tVgM1JUX+sG+1x8HmQkqrde48XPV3fV0ih8OOUdbcxWRgG2Ma1tHePjBtr/r2ju91tK2AwtL28+bZ20a6KM2roNfqjSLBwbCuntwMz17Nzmlyf5d9fSmTHeSmePdxShGdo4Gwc/H4+ijJqxAQAkJACAgBIfB5ITCrha/6n3KXZRBbd9qMsGefADY3hWIfLENx+JXV52Vtr4h52q3tJIWFUdkVEDSX2jBlspEjQRtIawz8x/9S2yDjfZ4IWOltqiAnNZ6YmOMcP+45klOL0PSM+G/aXE4ituE2EqOSqB/03Va7nNbI2EJACAgBISAEhIAQuPgEZrnw9QBSnFZcpgHs+gKsnXFY22OwapNwDFfhso66H+1z8VHKCOcjoListBWfICwqnW73c2HPd9Zn+9lAWRSZjb7Q6QFywncRtDeDwSnet892ROlNCJxLQMFmmWDEYECtYq8exgmrvxL0uWdfyt8dJgOFCeHEZNRgtAWqzl9KG2QsISAEhIAQEAJCQAhcagJXhfC91NBkvCubgOJykB+9iU2bPMfWY5VXtsFinRAQAkJACAgBISAEhIAQEAIXlYAI34uKVzoXAkJACAgBISAEhIAQEAJCQAgIgctNQITv5V4BGV8ICAEhIASEgBAQAkJACAgBISAELioBEb4XFa90LgSEgBAQAkJACAgBISAEhIAQEAKXm4AI38u9AjK+EBACQkAICAEhIASEgBAQAkJACFxUAleR8FXcz+lVnBY8h1WqOV/UrSOdCwEhIASEgBAQAkJACAgBISAEZgeBq0L4KjYjjtFm9/N8LZooLK1HsLbHYu/LxTmudQvh2bEcYqUQEAJCQAgIASEgBISAEBACQkAIfNYEZrfwVVw4J7RYO+Mx1ezAVL11xmFu+ABb71kU2+hnzU76EwJCQAgIASEgBISAEBACQkAICIFZQGBWC1/XhA5Ly2FM1dtmCN5pIrh2BzZtErhss2BJPrmJQ+nBHF8Rytgnv0TO/BgC1rEBjm5YwpH0FqxA2d6HeXldKnLb5GPASbMQEAJCQAgIASEgBISAELiCCcxa4avYx7F2JswQvTXJf2X9q/NY8dx9VCf+JSCIa7ZhHyi+gpfi05pmpGnjI2y55Q2GP+2l55xvac/j5EM/YuO3vznjCHkjDpdTOeeKq/dXs0HHmsduYM2hUszAmVe/xU3zw9FfvVOWmQkBISAEhIAQEAJCQAgIgauewKwVvs4xzYzwZmP5ZiK2PceRoGdoSnmTkbLNAeFbvRVz7fvgVOXMlfBjRndiFSeeD2LoEyhXhXrSbv0+iacuru2OjFfY9N1Haem/uONcqb2L8L1SV0bsEgJCQAgIASEgBISAEBACF05gdgpfxYWtJ3OaqFVDm3ty17N37RNkHnqFgcINM9rVcxyG+hm0HJP9aE9GUxsdRW1ULmMu1cPpwtzTgCavAmNDnqctOh5tuRa7u4dJ9BmxaCra6MtL8l5bwMSU3hVzDx2JJ7zXRtFWVI9FjZ8FxmuTyFr+EKF3LKBgfxRt9SPuMS39zWgSvLZEljAJOI09aDN2EvG9fyX8jSjqk84wqLdg6iihKaPaHZLr7tRmoC83lTp1HtFRNKVkYfTHQU/SlxFHR2ULPdmJHpsii6bZq/ZxPuFrLD9GS2EnDvcgnn+MpTG0FmsxDbTRkV3I2EAzLTEeu+vO5GEcnnKDwTmJoTqHeq9djdltXoZqXwZ6EuPc9jRn5DM+FeCU8T7NW5fLSOXZ01RW15GdcoLIyEgSjldgcHcyQWt+Ojm1g/4ux3vqyDpbisHmQISvH4u8EQJCQAgIASEgBISAEBACVw2BWSp8nVg0sdOE7VjFFpL3LeG1F+5j3Z/ncWDDU9PafTm/qmA+92cwbS957++gYMc6Ym69najtZzFjpTd5I/vmzCFh1QYKd2wn7dXHCbv/dTo7jShoyfj5V9h+z3NkB79HwY4VhP7zzcTFtbi7V4abKN/8HBEL1WuDKdiymqRFz5F+qAS73cVIYTinnr2bvbc+SNq7wdSUDOAyjaJN+IC894Ip2PE2h//rBk4dLWdyqJ3mmDWEf+efCFkYTHHoEXp1JroPvcC2X3lCnRXzEO1HVxH74mvkbAmmYHsQaa8uIGnjCQxDVhQ6SPn5tbz324XkuO1dRsg3biQ5uW0ajvMJ38EPbmf7r1fTO+45Ve0rY86XidvbRH/2XsJu+SERr6whX51n0Dsce/whYt6OwTRuA6edwZQ9JL3yBmc3q/N6kyO/eZC8xDpsDKIJ+ytHH/6Lh9GuMDpqdTinWQTKpIbY7etZtmzZtGPFsiAKAvrVf5XdVsfSm7/FXY++QtC2YLZu+z9u/9rPCM7WoaBh9/xf8NvVOf7zW5LXcvddCykbMYnw9VORN0JACAgBISAEhIAQEAJC4OohMHuFb1vkNGE7WRVE05nVbFv5CPG7X6Tx9Opp7X7h25UyY/Ws/TrM7rpXdsYSX+edf3iFbq/w3XvDnRRme8ShWZtP0gMPkhldgc0tfL/K7seCGTCqPuBJ2tfdy7vfW8sARjoOvMbBP66iq9PkGc9pQZ+0if23LKHVoH42M9RZcdgwD+mxuV2rVgwH5rPj1i2o2u58oc4B4etipDKM2LkLqMjW4lSVo+JivDaZE/c/Qn5qEw5V+N7694Q8t4ehMXWACdpW30bQnM3TcoTPJ3xdI9kcv+MWivJVrzQ463ex+Yu/o2UMDKrw/f4czhwv9XhxXVaG0nYSetPT1HcM4zA1kvvig5Rk9mF3K1oLPZEvcejBdfR2l3HqnuuJCdV5+jWbsY6PMyOj2G6ktbKUvNxccqccebkV9E1xLHtAg0f4/htPrIqh36wOaiRh8Q3c+fABukT4+jDJqxAQAkJACAgBISAEhIAQ+NwQmL3CtyNuhrAdKtrI/vVPUhSzYkabX/j25c1YXKu+hdP3f521117D2mu+zFtfeB6tz+P7h6X0aY3ua+z9DaT9YS5nwguxqsL3tms5uLnI399A+COs/8af6TbpKH19LlGr4zFb/M24WhM5dNM9ZBWrNYJnCl/1TDWEOPLma722fIng69e6Cyt9pPBVHHRHL+Xg/BV09wTGU4YbyXpmHnF7crA4Okj59beJer/Mf4J+3wNs/o+V9Po/OX+osyq7a9+6j5gN6VgYpHzhT9m3qdEtUFXhG37v4zRrhvy9uDrTibn9PtLSuzFVbSb4K19izdeu8czp2mtYc82X2f6z39HcOkTV8jt49+tfZcfD4Xgdyv5+LvSNKnyX3Xkd66Ma/V2UbryNX9wZTKsIXz8TeSMEhIAQEAJCQAgIASEgBD4vBGap8FVwDJTOqOj88cJ3G66Jrmlr65o4TtjX/pOY1+LdjwWy5a3jnS8u9AvfkPmv0KfzJMqeV/huCVSK9gtfSxflK39PxMpjmM0B/6WjKY6Dc+4jt+L8wnekcgf7/vFmdzi0mgpsSX7uEwvfnhPLOfjQMrq6XP75uQbryXxyHgn78rD6hO/Ocn/7Jxe+MJi2mehH30JbkUjET+dTpvV04xa+dz5KY1sg5tjecpLI38wlO6cXc/02Dsy5m7r6cwOY/Wbg6jnG0f+9jm3fm0PyniwsU5OJVef1SBnvPHovP77uOq6bcvzkuoeI9toR6M3j8V125495N/p8wreTkMdv45430v2XSKizH4W8EQJCQAgIASEgBISAEBACVyWB2Sl81TJQpn7MjaHTPLsfJ3wtbZGgTBdgamjvxu/cTUMHKJY+6t6cy9t/98LfJnyZQHt4JWG/f4HmOq8f0zJCe9gKwh54E61RdQN7PL7RT6xDr/covf7QJ9n1wHK69GpeawdFT//PDOEbHeGvVjUlx9fFaHUEsfc9QH5SIw61O5cDQ1YIMfP+RHm+zhPqrHp8L1D4WnoKSHvpSU4tfZKwRaH+oljuUOcf/JC4w17Pt20MTeifOfD4KnoHTNgnCkm+6xZOh+Rg8oYl2w0NdDcMoVgH0WsGcDoUMBuofXMuoYt3Mvw3PjTX4/H9MOE7SdqGufzwVxtwF662jHD6/ee54WcvSI7vVfknTiYlBISAEBACQkAICAEhIARg1gpfxWXDri90P6LIF8Y8Vr6F6sSVdGWvnSaI1XZzw16ck9O9veoGcHXnc+rh6wl7bAnJK94mZ9m8z0D4gn2ghcbtz7Jv3kKSX1pC0rPPcHzRcqoKdJ4cXByMVx0jbv6DRD+9kNwzXUyUR3Ni/m1EPLWEpDc2kL/0137hq1Y/1m17ms2/XMDp1e+iaRqfInzBNTmMLmI1EY89TtyLS0hevIi4Bc+QG1+CyaQGK3tDnS9Q+Cr2YRr2vMzOf7mZzBRPAS+Vn9vj+8tbiFm62DPPF54gasETFKW0YXeo9xns9CZsJvqhu4h+don7nJPv7KGldhDFqqc+5B1OvryY5EULiXvqJUoyWrw5zhf+9fwo4atmaw80HGPRjTfxu8WLWfrq66x49rf85BYRvhdOXK4UAkJACAgBISAEhIAQEAJXNoFZK3xVrIpjElt3Gqaa4BlC1yeGfaLXMVLvLvh0vuWw9DTQW15Ob60G02AXveVabCjYjf0Marqw2zxeYsVuYUzThnFoAhc2xporGe5XHzjk+XEMtdNX2YW7TpZqn2kQfXWlp+/yKoZ1QzgDkchgN2Fs94w92GdCcdoY76jznF+vw27Uom/o8z/6R5noc7f11TYwMebANqxF39wdeMyQbYyRFu/15eXom7qmiEgrY83VGAa8xbYA+2Ar/TXd/v7VWShjXfTXtmPxPLPJNzU18JruhHXsveMFOjWeBwOpjW7he/8CGkrLvPMsZ0DThW3K9YptEmNbrb+9v3XQX7nZNtBGX2U5veUVDLT2TLF3ytCf8q3iMtPdUk+fIZBgPdnfTHOL3vvoJzuDmhrKysqoqGlEp+2gpUWLyenC5bDR295A3/Ak6lIZu6po1AxPY/QpzZHThYAQEAJCQAgIASEgBISAELjMBGa18PWwU3AMV2Ou3Xke8bsNS+tRXJNqxadAru1lZj4rh1fDkus3LiVxbRwTAT2JIesDwu9bMK241aycoBgtBISAEBACQkAICAEhIASEwFVL4AvOxYu4Gg7H4uexPzsf21P3Y3vyXmxPP4D9+T/iWLzwqpjf5V4j29OP0HH9d+mf98Q0nqaHbqfxv3+A4Yk/Tfv8ctsr418d32tZR1lH2QOyB2QPyB6QPSB7QPaA7IHPYg/8P4lbONJyUo54AAAAAElFTkSuQmCC;" vertex="1" parent="1">
          <mxGeometry x="-600" y="69.99999999999997" width="678" height="185.42" as="geometry" />
        </mxCell>
        <mxCell id="a1UpuL8nDIaCTMfH53SL-8" value="通过&lt;span style=&quot;box-sizing: border-box; outline: 0px; margin: 0px; padding: 0px; font-size: 14px; overflow-wrap: normal; font-family: &amp;quot;Source Code Pro&amp;quot;, &amp;quot;DejaVu Sans Mono&amp;quot;, &amp;quot;Ubuntu Mono&amp;quot;, &amp;quot;Anonymous Pro&amp;quot;, &amp;quot;Droid Sans Mono&amp;quot;, Menlo, Monaco, Consolas, Inconsolata, Courier, monospace, &amp;quot;PingFang SC&amp;quot;, &amp;quot;Microsoft YaHei&amp;quot;, sans-serif; word-break: break-all; text-align: start; white-space: pre; font-variant-numeric: normal !important; font-variant-east-asian: normal !important; font-variant-alternates: normal !important; font-kerning: auto !important; font-optical-sizing: auto !important; font-feature-settings: normal !important; font-variation-settings: normal !important; font-variant-position: normal !important; font-stretch: normal !important; line-height: normal !important;&quot; class=&quot;token class-name&quot;&gt;ScannedGenericBeanDefinition&lt;/span&gt;&lt;span style=&quot;font-family: &amp;quot;Source Code Pro&amp;quot;, &amp;quot;DejaVu Sans Mono&amp;quot;, &amp;quot;Ubuntu Mono&amp;quot;, &amp;quot;Anonymous Pro&amp;quot;, &amp;quot;Droid Sans Mono&amp;quot;, Menlo, Monaco, Consolas, Inconsolata, Courier, monospace, &amp;quot;PingFang SC&amp;quot;, &amp;quot;Microsoft YaHei&amp;quot;, sans-serif; font-size: 14px; font-variant-ligatures: no-common-ligatures; text-align: start; white-space: pre; background-color: rgb(250, 250, 250);&quot;&gt; beanDefinition&lt;/span&gt;&lt;span style=&quot;box-sizing: border-box; outline: 0px; margin: 0px; padding: 0px; font-size: 14px; overflow-wrap: normal; font-family: &amp;quot;Source Code Pro&amp;quot;, &amp;quot;DejaVu Sans Mono&amp;quot;, &amp;quot;Ubuntu Mono&amp;quot;, &amp;quot;Anonymous Pro&amp;quot;, &amp;quot;Droid Sans Mono&amp;quot;, Menlo, Monaco, Consolas, Inconsolata, Courier, monospace, &amp;quot;PingFang SC&amp;quot;, &amp;quot;Microsoft YaHei&amp;quot;, sans-serif; color: rgb(166, 127, 89); word-break: break-all; text-align: start; white-space: pre; font-variant-numeric: normal !important; font-variant-east-asian: normal !important; font-variant-alternates: normal !important; font-kerning: auto !important; font-optical-sizing: auto !important; font-feature-settings: normal !important; font-variation-settings: normal !important; font-variant-position: normal !important; font-stretch: normal !important; line-height: normal !important;&quot; class=&quot;token operator&quot;&gt;=&lt;/span&gt;&lt;span style=&quot;font-family: &amp;quot;Source Code Pro&amp;quot;, &amp;quot;DejaVu Sans Mono&amp;quot;, &amp;quot;Ubuntu Mono&amp;quot;, &amp;quot;Anonymous Pro&amp;quot;, &amp;quot;Droid Sans Mono&amp;quot;, Menlo, Monaco, Consolas, Inconsolata, Courier, monospace, &amp;quot;PingFang SC&amp;quot;, &amp;quot;Microsoft YaHei&amp;quot;, sans-serif; font-size: 14px; font-variant-ligatures: no-common-ligatures; text-align: start; white-space: pre; background-color: rgb(250, 250, 250);&quot;&gt; &lt;/span&gt;&lt;span style=&quot;box-sizing: border-box; outline: 0px; margin: 0px; padding: 0px; font-size: 14px; overflow-wrap: normal; font-family: &amp;quot;Source Code Pro&amp;quot;, &amp;quot;DejaVu Sans Mono&amp;quot;, &amp;quot;Ubuntu Mono&amp;quot;, &amp;quot;Anonymous Pro&amp;quot;, &amp;quot;Droid Sans Mono&amp;quot;, Menlo, Monaco, Consolas, Inconsolata, Courier, monospace, &amp;quot;PingFang SC&amp;quot;, &amp;quot;Microsoft YaHei&amp;quot;, sans-serif; color: rgb(0, 119, 170); word-break: break-all; text-align: start; white-space: pre; font-variant-numeric: normal !important; font-variant-east-asian: normal !important; font-variant-alternates: normal !important; font-kerning: auto !important; font-optical-sizing: auto !important; font-feature-settings: normal !important; font-variation-settings: normal !important; font-variant-position: normal !important; font-stretch: normal !important; line-height: normal !important;&quot; class=&quot;token keyword&quot;&gt;new&lt;/span&gt;&lt;span style=&quot;font-family: &amp;quot;Source Code Pro&amp;quot;, &amp;quot;DejaVu Sans Mono&amp;quot;, &amp;quot;Ubuntu Mono&amp;quot;, &amp;quot;Anonymous Pro&amp;quot;, &amp;quot;Droid Sans Mono&amp;quot;, Menlo, Monaco, Consolas, Inconsolata, Courier, monospace, &amp;quot;PingFang SC&amp;quot;, &amp;quot;Microsoft YaHei&amp;quot;, sans-serif; font-size: 14px; font-variant-ligatures: no-common-ligatures; text-align: start; white-space: pre; background-color: rgb(250, 250, 250);&quot;&gt; &lt;/span&gt;&lt;span style=&quot;box-sizing: border-box; outline: 0px; margin: 0px; padding: 0px; font-size: 14px; overflow-wrap: normal; font-family: &amp;quot;Source Code Pro&amp;quot;, &amp;quot;DejaVu Sans Mono&amp;quot;, &amp;quot;Ubuntu Mono&amp;quot;, &amp;quot;Anonymous Pro&amp;quot;, &amp;quot;Droid Sans Mono&amp;quot;, Menlo, Monaco, Consolas, Inconsolata, Courier, monospace, &amp;quot;PingFang SC&amp;quot;, &amp;quot;Microsoft YaHei&amp;quot;, sans-serif; word-break: break-all; text-align: start; white-space: pre; font-variant-numeric: normal !important; font-variant-east-asian: normal !important; font-variant-alternates: normal !important; font-kerning: auto !important; font-optical-sizing: auto !important; font-feature-settings: normal !important; font-variation-settings: normal !important; font-variant-position: normal !important; font-stretch: normal !important; line-height: normal !important;&quot; class=&quot;token class-name&quot;&gt;ScannedGenericBeanDefinition&lt;/span&gt;&lt;span style=&quot;box-sizing: border-box; outline: 0px; margin: 0px; padding: 0px; font-size: 14px; overflow-wrap: normal; font-family: &amp;quot;Source Code Pro&amp;quot;, &amp;quot;DejaVu Sans Mono&amp;quot;, &amp;quot;Ubuntu Mono&amp;quot;, &amp;quot;Anonymous Pro&amp;quot;, &amp;quot;Droid Sans Mono&amp;quot;, Menlo, Monaco, Consolas, Inconsolata, Courier, monospace, &amp;quot;PingFang SC&amp;quot;, &amp;quot;Microsoft YaHei&amp;quot;, sans-serif; color: rgb(153, 153, 153); word-break: break-all; text-align: start; white-space: pre; font-variant-numeric: normal !important; font-variant-east-asian: normal !important; font-variant-alternates: normal !important; font-kerning: auto !important; font-optical-sizing: auto !important; font-feature-settings: normal !important; font-variation-settings: normal !important; font-variant-position: normal !important; font-stretch: normal !important; line-height: normal !important;&quot; class=&quot;token punctuation&quot;&gt;(&lt;/span&gt;&lt;span style=&quot;font-family: &amp;quot;Source Code Pro&amp;quot;, &amp;quot;DejaVu Sans Mono&amp;quot;, &amp;quot;Ubuntu Mono&amp;quot;, &amp;quot;Anonymous Pro&amp;quot;, &amp;quot;Droid Sans Mono&amp;quot;, Menlo, Monaco, Consolas, Inconsolata, Courier, monospace, &amp;quot;PingFang SC&amp;quot;, &amp;quot;Microsoft YaHei&amp;quot;, sans-serif; font-size: 14px; font-variant-ligatures: no-common-ligatures; text-align: start; white-space: pre; background-color: rgb(250, 250, 250);&quot;&gt;metadataReader&lt;/span&gt;&lt;span style=&quot;box-sizing: border-box; outline: 0px; margin: 0px; padding: 0px; font-size: 14px; overflow-wrap: normal; font-family: &amp;quot;Source Code Pro&amp;quot;, &amp;quot;DejaVu Sans Mono&amp;quot;, &amp;quot;Ubuntu Mono&amp;quot;, &amp;quot;Anonymous Pro&amp;quot;, &amp;quot;Droid Sans Mono&amp;quot;, Menlo, Monaco, Consolas, Inconsolata, Courier, monospace, &amp;quot;PingFang SC&amp;quot;, &amp;quot;Microsoft YaHei&amp;quot;, sans-serif; color: rgb(153, 153, 153); word-break: break-all; text-align: start; white-space: pre; font-variant-numeric: normal !important; font-variant-east-asian: normal !important; font-variant-alternates: normal !important; font-kerning: auto !important; font-optical-sizing: auto !important; font-feature-settings: normal !important; font-variation-settings: normal !important; font-variant-position: normal !important; font-stretch: normal !important; line-height: normal !important;&quot; class=&quot;token punctuation&quot;&gt;)&lt;/span&gt;&lt;span style=&quot;box-sizing: border-box; outline: 0px; margin: 0px; padding: 0px; font-size: 14px; overflow-wrap: normal; font-family: &amp;quot;Source Code Pro&amp;quot;, &amp;quot;DejaVu Sans Mono&amp;quot;, &amp;quot;Ubuntu Mono&amp;quot;, &amp;quot;Anonymous Pro&amp;quot;, &amp;quot;Droid Sans Mono&amp;quot;, Menlo, Monaco, Consolas, Inconsolata, Courier, monospace, &amp;quot;PingFang SC&amp;quot;, &amp;quot;Microsoft YaHei&amp;quot;, sans-serif; color: rgb(153, 153, 153); word-break: break-all; text-align: start; white-space: pre; font-variant-numeric: normal !important; font-variant-east-asian: normal !important; font-variant-alternates: normal !important; font-kerning: auto !important; font-optical-sizing: auto !important; font-feature-settings: normal !important; font-variation-settings: normal !important; font-variant-position: normal !important; font-stretch: normal !important; line-height: normal !important;&quot; class=&quot;token punctuation&quot;&gt;;&lt;/span&gt;" style="whiteSpace=wrap;html=1;rounded=0;" vertex="1" parent="1">
          <mxGeometry x="145" y="422.5" width="120" height="60" as="geometry" />
        </mxCell>
      </root>
    </mxGraphModel>
  </diagram>
</mxfile>
